<svg xmlns="http://www.w3.org/2000/svg" width="258.834" height="167.386" viewBox="0 0 258.834 167.386"><defs><style>.a{fill:#e0e0e0;}.b{fill:#ebebeb;}.c{fill:#f5f5f5;}.d{fill:#fafafa;}.e{fill:#263238;}.f{fill:#ffbe9d;}.g,.q{fill:#fff;}.h{fill:#eb996e;}.i{fill:#455a64;}.j{fill:#b20000;}.k,.l{opacity:0.4;}.m{fill:#ef9d1a;}.n,.u{opacity:0.2;}.o{fill:#d5890f;}.p,.q{opacity:0.5;}.r{fill:#e72c3a;}.s{opacity:0.1;}.t{opacity:0.3;}.v{fill:#f2ae40;}</style></defs><g transform="translate(-71.73 -68.75)"><g transform="translate(75.152 68.75)"><path class="a" d="M327.42,205.67l21.221,11.668-.8,1.488-21.032-11.89.61-1.267" transform="translate(-220.679 -147.278)"/><path class="a" d="M325.8,201.084l.975-1.484.567.35-.872,1.5Z" transform="translate(-220.103 -143.797)"/><path class="a" d="M366.525,228.7l1.091.627-3.556,22.513-1.679.021Z" transform="translate(-240.973 -160.487)"/><path class="a" d="M351,285.212a8.75,8.75,0,0,1,6.056-2.405A7.535,7.535,0,0,1,362.3,285.2Z" transform="translate(-234.48 -191.513)"/><path class="a" d="M314.681,211.668l-8.4-4.819,2.427-4.171a4.872,4.872,0,0,1,6.627-1.766h0a4.8,4.8,0,0,1,1.774,6.58Z" transform="translate(-208.967 -144.18)"/><rect class="b" width="26.924" height="1.301" transform="translate(74.74 93.511) rotate(180)"/><path class="b" d="M236.137,262.744l5.051-18.794H220.164l-4.574,18.794Z" transform="translate(-157.227 -169.233)"/><path class="a" d="M218.52,262.49H237.3l4.372-16.5H222.8Z" transform="translate(-158.898 -170.403)"/><rect class="c" width="1.361" height="64.465" transform="translate(42.477 97.362)"/><rect class="b" width="1.361" height="64.281" transform="translate(43.838 97.546)"/><rect class="b" width="1.361" height="64.465" transform="translate(126.252 97.362)"/><rect class="a" width="1.361" height="64.281" transform="translate(127.609 97.546)"/><rect class="a" width="103.287" height="5.288" transform="translate(36.606 93.614)"/><rect class="b" width="45.47" height="8.751" transform="translate(81.461 98.902)"/><path class="a" d="M324.307,308.156a1.007,1.007,0,0,1-.627.93,1.019,1.019,0,0,1-1.105-.22,1,1,0,0,1-.217-1.1,1.02,1.02,0,0,1,1.655-.323A1,1,0,0,1,324.307,308.156Z" transform="translate(-218.095 -205.481)"/><path class="b" d="M147.693,346.486h17.858a2.268,2.268,0,0,0,2.276-2.26v-5.467a3.822,3.822,0,0,0-3.835-3.808H147.56Z" transform="translate(-118.415 -221.425)"/><path class="b" d="M139.833,365.462H104.718A1.712,1.712,0,0,1,103,363.756h0a1.712,1.712,0,0,1,1.718-1.706h35.119a1.712,1.712,0,0,1,1.718,1.706h0a1.7,1.7,0,0,1-.5,1.208A1.724,1.724,0,0,1,139.833,365.462Z" transform="translate(-92.992 -236.968)"/><path class="a" d="M84.265,254.181l19.327-.341,12.266,46.024-26.16.26-9.87-40.348a4.5,4.5,0,0,1,.847-3.87A4.569,4.569,0,0,1,84.265,254.181Z" transform="translate(-79.699 -174.905)"/><path class="b" d="M105.051,370.05,99.27,403.408h1.585l7.6-33.358Z" transform="translate(-90.864 -241.556)"/><path class="a" d="M136.306,370.05l-6.146,33.358h1.585l7.963-33.358Z" transform="translate(-108.488 -241.556)"/><path class="b" d="M175.042,370.05l6.855,33.358h-1.585L171.64,370.05Z" transform="translate(-132.153 -241.556)"/><path class="b" d="M130.16,253.823l9.56,46.058h7.336l-7.671-40.706a6.589,6.589,0,0,0-6.49-5.365Z" transform="translate(-108.488 -174.888)"/><rect class="b" width="26.924" height="1.301" transform="translate(190.142 92.07)"/><path class="b" d="M506,262.42l-5.051-18.79h21.023l4.574,18.79Z" transform="translate(-320.029 -169.05)"/><path class="a" d="M526.854,262.164H508.072l-4.372-16.5h18.88Z" transform="translate(-321.598 -170.214)"/><rect class="c" width="1.361" height="64.601" transform="translate(241.101 161.827) rotate(180)"/><rect class="b" width="1.361" height="64.418" transform="translate(239.739 161.822) rotate(180)"/><rect class="b" width="1.361" height="65.236" transform="translate(157.33 162.458) rotate(180)"/><rect class="a" width="1.361" height="65.049" transform="translate(155.968 162.458) rotate(180)"/><rect class="a" width="103.287" height="5.288" transform="translate(246.972 98.765) rotate(180)"/><rect class="b" width="45.47" height="8.751" transform="translate(202.121 107.516) rotate(180)"/><path class="a" d="M492.65,307.827a1.014,1.014,0,1,0,1.013-1.006A1.01,1.01,0,0,0,492.65,307.827Z" transform="translate(-315.293 -205.291)"/><path class="b" d="M553.594,346.486H535.732a2.28,2.28,0,0,1-1.608-.662,2.248,2.248,0,0,1-.664-1.6v-5.467a3.791,3.791,0,0,1,1.121-2.693,3.845,3.845,0,0,1,2.711-1.116h16.436Z" transform="translate(-338.576 -221.425)"/><path class="b" d="M537.168,365.462h35.119a1.712,1.712,0,0,0,1.718-1.706h0a1.712,1.712,0,0,0-1.718-1.706H537.168a1.712,1.712,0,0,0-1.718,1.706h0A1.712,1.712,0,0,0,537.168,365.462Z" transform="translate(-339.711 -236.968)"/><path class="a" d="M595.924,254.181,576.6,253.84,564.34,299.864l26.16.26,9.878-40.348a4.5,4.5,0,0,0-.855-3.875A4.573,4.573,0,0,0,595.924,254.181Z" transform="translate(-356.194 -174.905)"/><path class="b" d="M610.956,370.05l5.776,33.358h-1.581l-7.6-33.358Z" transform="translate(-380.846 -241.556)"/><path class="a" d="M579.222,370.05l6.146,33.358h-1.585L575.82,370.05Z" transform="translate(-362.743 -241.556)"/><path class="b" d="M539.545,370.05l-6.855,33.358h1.585l8.671-33.358Z" transform="translate(-338.137 -241.556)"/><path class="b" d="M575.606,253.823l-9.56,46.058H558.71l7.666-40.706a6.593,6.593,0,0,1,6.494-5.365Z" transform="translate(-352.982 -174.888)"/><rect class="a" width="0.988" height="8.768" transform="translate(197.285 29.908)"/><rect class="a" width="0.988" height="8.768" transform="translate(229.801 29.908)"/><rect class="b" width="41.351" height="3.523" transform="translate(193.638 26.385)"/><rect class="c" width="5.699" height="26.385" transform="translate(221.121)"/><path class="a" d="M601.089,114.272a1.121,1.121,0,1,1-.33-.794A1.113,1.113,0,0,1,601.089,114.272Z" transform="translate(-375.871 -94.215)"/><rect class="a" width="1.744" height="10.781" transform="translate(223.166 6.99)"/><rect class="b" width="5.699" height="26.385" transform="translate(215.332)"/><path class="d" d="M587.6,114.272a1.121,1.121,0,1,1-.33-.794A1.113,1.113,0,0,1,587.6,114.272Z" transform="translate(-368.174 -94.215)"/><rect class="d" width="1.744" height="10.781" transform="translate(217.376 6.99)"/><rect class="a" width="5.699" height="26.385" transform="translate(209.817)"/><path class="d" d="M574.759,114.272a1.121,1.121,0,1,1-.33-.794A1.113,1.113,0,0,1,574.759,114.272Z" transform="translate(-360.849 -94.215)"/><rect class="d" width="1.744" height="10.781" transform="translate(211.862 6.99)"/><path class="a" d="M548.438,97.08l6.85-23.213-2.362-1.028-7.026,23.4Z" transform="translate(-345.673 -71.096)"/></g><g transform="translate(71.73 230.914)"><path class="e" d="M330.564,449.124c0,.064-57.946.111-129.413.111s-129.421-.047-129.421-.111S129.663,449,201.151,449,330.564,449.064,330.564,449.124Z" transform="translate(-71.73 -449)"/></g><g transform="translate(194.249 89.991)"><path class="f" d="M477.263,146.481l-7.4-.584c-.043-.853,0-4.167,0-4.167a3.673,3.673,0,0,1-3.109-3.523c-.039-3.049.533-10.052.533-10.052h0a10.726,10.726,0,0,1,10.737,1.339l.455.345Z" transform="translate(-419.617 -123.565)"/><path class="e" d="M468.694,140.6a.446.446,0,0,0,.03-.627.432.432,0,0,0-.6-.012.424.424,0,0,0-.028.594A.432.432,0,0,0,468.694,140.6Z" transform="translate(-420.321 -130.765)"/><path class="e" d="M467.883,139.409c.052.055.352-.175.773-.179s.73.218.777.162-.026-.119-.159-.222a1.054,1.054,0,0,0-1.237,0C467.9,139.277,467.862,139.375,467.883,139.409Z" transform="translate(-420.257 -130.264)"/><path class="e" d="M478.988,140.732a.425.425,0,0,0-.123.582.431.431,0,0,0,.583.138.425.425,0,0,0,.154-.575.431.431,0,0,0-.614-.145Z" transform="translate(-426.488 -131.234)"/><path class="e" d="M478.583,140.26c.047.055.348-.179.773-.179s.73.213.777.162-.026-.119-.159-.222a1.044,1.044,0,0,0-.623-.192.992.992,0,0,0-.614.209C478.6,140.141,478.562,140.239,478.583,140.26Z" transform="translate(-426.362 -130.758)"/><path class="e" d="M473.19,144.091a2.022,2.022,0,0,0-.683-.145c-.112,0-.2-.038-.206-.1a.567.567,0,0,1,.077-.311l.335-.853a11.679,11.679,0,0,0,.726-2.243,11.792,11.792,0,0,0-.949,2.162c-.112.294-.215.58-.318.853a.721.721,0,0,0-.06.456.291.291,0,0,0,.189.179.653.653,0,0,0,.189.021A2.189,2.189,0,0,0,473.19,144.091Z" transform="translate(-422.665 -131.108)"/><path class="g" d="M475.085,150.05a7.926,7.926,0,0,1-2.074.6,1.168,1.168,0,0,0,1.379.461C475.308,150.779,475.085,150.05,475.085,150.05Z" transform="translate(-423.185 -136.619)"/><path class="h" d="M474.049,159.53a7.205,7.205,0,0,0,4-1.13,3.788,3.788,0,0,1-4.011,1.919Z" transform="translate(-423.773 -141.408)"/><path class="e" d="M467.807,127.914a5.106,5.106,0,0,0,4.295,0c1.654-.674,3.535-.921,3.921-.576s.348,1.983,1.89,2.559c0,0-.339,3.1.919,3.079s.833-4.887.833-4.887l-2.942-1.706-3.286-.853-3.17.209-2.478.482Z" transform="translate(-420.207 -122.556)"/><path class="f" d="M492.993,140.552c.052-.021,2.109-.618,2.044,1.463a1.572,1.572,0,0,1-2.147,1.531C492.89,143.486,492.993,140.552,492.993,140.552Z" transform="translate(-434.527 -131.117)"/><path class="h" d="M494.4,143.672s.039.026.1.06a.389.389,0,0,0,.275,0,.894.894,0,0,0,.43-.793,1.166,1.166,0,0,0-.086-.525.428.428,0,0,0-.266-.286.189.189,0,0,0-.219.094c-.03.055,0,.1-.03.1s-.043-.038,0-.124a.213.213,0,0,1,.086-.128.285.285,0,0,1,.2-.047.519.519,0,0,1,.374.337,1.225,1.225,0,0,1,.107.584.938.938,0,0,1-.563.883.389.389,0,0,1-.331-.064C494.4,143.719,494.395,143.676,494.4,143.672Z" transform="translate(-435.387 -132.016)"/><path class="e" d="M470.152,137.708c-.069.119-.468,0-.949,0s-.893.038-.949-.09.357-.426.971-.4S470.225,137.6,470.152,137.708Z" transform="translate(-420.469 -129.259)"/><path class="e" d="M481.122,137.708c-.069.119-.468,0-.949,0s-.893.038-.949-.09.356-.426.971-.4S481.195,137.6,481.122,137.708Z" transform="translate(-426.727 -129.259)"/><path class="e" d="M475.113,123.782a7.268,7.268,0,0,0,1.22,1.407,2.446,2.446,0,0,0,1.718.6,1.479,1.479,0,0,0,1.327-1.122,1.061,1.061,0,0,0-.237-.855,1.077,1.077,0,0,0-.807-.381.654.654,0,0,0,.691-.357.645.645,0,0,0-.144-.76.656.656,0,0,0-.774-.082c.537-.03.7-.853.331-1.237a1.577,1.577,0,0,0-1.52-.256,9.26,9.26,0,0,1-1.555.426,3.445,3.445,0,0,1-2.311-.887,9.88,9.88,0,0,0-2.07-1.437,4.756,4.756,0,0,0-3.054-.068,4.9,4.9,0,0,0-2.238,1.22,2.842,2.842,0,0,0-.859,2.329,2.04,2.04,0,0,0,1.649,1.736,5.588,5.588,0,0,0,3.608-.512c1.718-.947,4.986-.371,4.986-.371Z" transform="translate(-418.512 -118.557)"/><path class="i" d="M479.577,124.544a.431.431,0,0,1-.133.077,3.584,3.584,0,0,1-.4.179,6.705,6.705,0,0,1-1.576.4,7.17,7.17,0,0,1-2.405-.081,17.387,17.387,0,0,1-2.779-.96,6.18,6.18,0,0,0-2.8-.516,2.737,2.737,0,0,0-1.98,1.049,2.023,2.023,0,0,0-.348,1.471,3.59,3.59,0,0,0,.167.554.828.828,0,0,1-.094-.124,1.433,1.433,0,0,1-.159-.426,2.069,2.069,0,0,1,.3-1.578,2.869,2.869,0,0,1,2.087-1.164,6.18,6.18,0,0,1,2.9.516,18.465,18.465,0,0,0,2.74.964,7.525,7.525,0,0,0,2.345.128A11.235,11.235,0,0,0,479.577,124.544Z" transform="translate(-419.772 -121.34)"/><path class="i" d="M493.143,133.807c.021,0-.073.2-.331.426a2.16,2.16,0,0,1-2.508.209c-.292-.183-.429-.358-.4-.375a4.011,4.011,0,0,1,.472.235,2.307,2.307,0,0,0,2.341-.2C492.98,133.935,493.117,133.786,493.143,133.807Z" transform="translate(-432.822 -127.302)"/><path class="i" d="M494.322,131.224c.052.03-.159.384-.593.606s-.859.188-.859.128.356-.124.743-.324S494.274,131.181,494.322,131.224Z" transform="translate(-434.516 -125.819)"/><path class="e" d="M464.913,132.182c-.026,0-.073-.107-.064-.294a1.172,1.172,0,0,1,.275-.67,1.135,1.135,0,0,1,.623-.371.637.637,0,0,1,.3,0,1.761,1.761,0,0,0-.752.5C464.973,131.721,464.995,132.182,464.913,132.182Z" transform="translate(-418.529 -125.596)"/><path class="i" d="M463.44,126.78a8.281,8.281,0,0,0,.7,1.075,7.99,7.99,0,0,0,1.014.8,1.678,1.678,0,0,1-1.177-.652A1.7,1.7,0,0,1,463.44,126.78Z" transform="translate(-417.726 -123.273)"/><path class="f" d="M398.69,209.623s9.135,11.515,13.572,9.382,12.395-9.382,12.395-9.382l-4.406-4.393-8.925,7.792-11-6.218Z" transform="translate(-380.785 -168.267)"/><path class="i" d="M467.636,205.719l-23.291-1.1c-.06-2.529,1.013-20.436,1.013-20.436l-1.288,2.38-6.64-5.877,5.828-7.783a11.508,11.508,0,0,1,7.679-4.512c.9-.119,1.585-.179,2.032-.235a13.136,13.136,0,0,0,7.868,0h0a10.8,10.8,0,0,1,3.26.618,13.431,13.431,0,0,1,5.2,3.344h0l6.945,11.587-8.435,5.28-1.211-3.646Z" transform="translate(-402.887 -147.006)"/><path class="j" d="M524.12,439.61l.73,3.049s5.029,6.487,6.58,6.167c1.018-.2-.232-1.9-2.147-6.823l-.4-2.034Z" transform="translate(-452.344 -302.692)"/><path class="e" d="M532.5,450.993a.359.359,0,0,1-.043.09.553.553,0,0,1-.21.2.817.817,0,0,1-.43.1,1.172,1.172,0,0,1-.571-.209,24.3,24.3,0,0,1-2.53-2.341,32.334,32.334,0,0,1-2.251-2.614c-.266-.354-.477-.64-.619-.853l-.159-.234a.526.526,0,0,1-.051-.085.516.516,0,0,1,.051.085l.176.222.64.823c.55.687,1.336,1.616,2.263,2.589a29.165,29.165,0,0,0,2.5,2.354.933.933,0,0,0,.962.132A.72.72,0,0,0,532.5,450.993Z" transform="translate(-453.212 -305.806)"/><path class="e" d="M537.1,454.019s-.159,0-.429.021a2.416,2.416,0,0,0-.9.341,1.811,1.811,0,0,0-.679.674c-.12.217-.155.371-.172.367a.9.9,0,0,1,.107-.4,1.749,1.749,0,0,1,.687-.725,2.158,2.158,0,0,1,.958-.316A.779.779,0,0,1,537.1,454.019Z" transform="translate(-458.506 -310.926)"/><path class="e" d="M526.667,446.383a5.214,5.214,0,0,0,.09-.571,2.346,2.346,0,0,0-.249-1.339,2.221,2.221,0,0,0-.962-.959,4.555,4.555,0,0,0-.545-.2.563.563,0,0,1,.159,0,1.636,1.636,0,0,1,.43.128,2.141,2.141,0,0,1,1.018.981,2.25,2.25,0,0,1,.232,1.39,2.171,2.171,0,0,1-.1.426A.428.428,0,0,1,526.667,446.383Z" transform="translate(-452.846 -304.812)"/><path class="e" d="M524.865,440.82a3.193,3.193,0,0,1,.275.955c.095.542.193.968.172.977a3.054,3.054,0,0,1-.266-.959C524.951,441.255,524.839,440.829,524.865,440.82Z" transform="translate(-452.767 -303.386)"/><path class="e" d="M534.724,446.169c0,.03-.283,0-.623.1a4.739,4.739,0,0,1-.6.183,1.081,1.081,0,0,1,.58-.277A1.12,1.12,0,0,1,534.724,446.169Z" transform="translate(-457.696 -306.428)"/><path class="e" d="M535.238,447.373c0,.026-.241,0-.52.073s-.481.192-.5.166a.783.783,0,0,1,.477-.264A.744.744,0,0,1,535.238,447.373Z" transform="translate(-458.107 -307.107)"/><path class="e" d="M536.149,448.839a2.46,2.46,0,0,0-.541,0,2.966,2.966,0,0,0-.5.213.671.671,0,0,1,.477-.307A.656.656,0,0,1,536.149,448.839Z" transform="translate(-458.614 -307.916)"/><path class="e" d="M533.131,444.021a.585.585,0,0,1-.167-.021,2.763,2.763,0,0,1-.43-.119,3.752,3.752,0,0,1-.627-.273c-.112-.064-.228-.132-.344-.213a.512.512,0,0,1-.253-.384.3.3,0,0,1,.135-.207.3.3,0,0,1,.247-.032.777.777,0,0,1,.352.23,6.45,6.45,0,0,1,.464.5c.12.149.215.273.275.362s.09.145.082.149-.155-.183-.429-.469c-.129-.141-.288-.307-.472-.478a.7.7,0,0,0-.309-.2c-.112-.03-.258.03-.262.149s.107.226.21.3a3.654,3.654,0,0,0,.335.213,3.851,3.851,0,0,0,.605.29C532.895,443.957,533.135,444,533.131,444.021Z" transform="translate(-456.446 -304.497)"/><path class="e" d="M534.923,443.349a.539.539,0,0,1,0-.154,2.508,2.508,0,0,1,.03-.427,2.388,2.388,0,0,1,.159-.606,1.345,1.345,0,0,1,.2-.32.345.345,0,0,1,.4-.124.382.382,0,0,1,.137.4,1.463,1.463,0,0,1-.107.358,1.805,1.805,0,0,1-.361.512,2.122,2.122,0,0,1-.322.273.427.427,0,0,1-.133.077,3.635,3.635,0,0,0,.4-.4,1.867,1.867,0,0,0,.326-.5,1.224,1.224,0,0,0,.1-.337c0-.111,0-.252-.09-.3a.232.232,0,0,0-.283.107,1.406,1.406,0,0,0-.189.29,2.511,2.511,0,0,0-.172.576A4.337,4.337,0,0,1,534.923,443.349Z" transform="translate(-458.504 -303.889)"/><g class="k" transform="translate(72.154 138.5)"><path d="M525.352,444.787,525,443.32s1.233.226,1.55,1.143a3.762,3.762,0,0,1,.24,1.565l2.68,2.866s.67-1.3,1.885-.989a12.414,12.414,0,0,1,.928,2.614c-.03.525-.64.461-.859.363a10.928,10.928,0,0,1-2.4-1.881A55.223,55.223,0,0,1,525.352,444.787Z" transform="translate(-525 -443.32)"/></g><path class="j" d="M459.062,437.622l-.022-4.068,7.679-.094.094,5.97-.472.039c-2.122.141-10.78.576-12.2.166C452.555,439.162,459.062,437.622,459.062,437.622Z" transform="translate(-412.278 -299.165)"/><g class="k" transform="translate(51.753 138.006)"><path d="M477.5,444.378a2.67,2.67,0,0,1,.958-1.638,2.628,2.628,0,0,1,1.791-.576l.026,2.132Z" transform="translate(-477.5 -442.161)"/></g><path class="l" d="M455.855,445.25s-2.276.682-1.989,1.053,9.058.26,12.919-.128v-.166l-10.226.213S456.3,445.263,455.855,445.25Z" transform="translate(-412.249 -305.927)"/><path class="e" d="M466.921,447h-.133l-.378.026-1.4.077c-1.177.06-2.8.115-4.6.141s-3.436,0-4.613,0l-1.4-.038h6c1.8,0,3.436-.073,4.608-.111l1.379-.094h.528Z" transform="translate(-412.277 -306.93)"/><path class="e" d="M459.152,446.2a3.23,3.23,0,0,0-.271-.657A2.917,2.917,0,0,0,458.4,445a1.223,1.223,0,0,1,.752,1.2Z" transform="translate(-414.85 -305.783)"/><path class="e" d="M464.838,444.22a1.014,1.014,0,0,1-.245-.29c-.112-.171-.189-.328-.168-.341s.129.115.245.29S464.859,444.19,464.838,444.22Z" transform="translate(-418.286 -304.973)"/><path class="e" d="M466.183,443.708c0,.021-.137-.06-.275-.175s-.228-.226-.21-.247.137.06.275.179S466.2,443.691,466.183,443.708Z" transform="translate(-419.012 -304.798)"/><path class="e" d="M467.185,442.336a.887.887,0,0,1-.4.055.2.2,0,0,1,.072-.193.2.2,0,0,1,.205-.029A.2.2,0,0,1,467.185,442.336Z" transform="translate(-419.632 -304.151)"/><path class="e" d="M466.819,441.39a.8.8,0,0,1-.43.132.743.743,0,0,1-.459-.055,2.59,2.59,0,0,1,.455-.034A2.362,2.362,0,0,1,466.819,441.39Z" transform="translate(-419.146 -303.713)"/><path class="e" d="M462.841,442.605a1.3,1.3,0,0,1-.494,0,3.221,3.221,0,0,1-.528-.107,1.575,1.575,0,0,1-.3-.119.252.252,0,0,1-.125-.154.2.2,0,0,1,.069-.2.91.91,0,0,1,1.125.252.812.812,0,0,1,.163.324.309.309,0,0,1,0,.132,1.451,1.451,0,0,0-.232-.426.894.894,0,0,0-.43-.264.765.765,0,0,0-.588.047c-.077.06-.043.149.043.2a1.6,1.6,0,0,0,.279.115,3.808,3.808,0,0,0,.511.124C462.652,442.593,462.837,442.593,462.841,442.605Z" transform="translate(-416.556 -304.024)"/><path class="e" d="M464.385,442.291a.523.523,0,0,1-.06-.337.773.773,0,0,1,.129-.362.49.49,0,0,1,.408-.252.2.2,0,0,1,.155.222.569.569,0,0,1-.082.222,1.652,1.652,0,0,1-.228.3c-.155.154-.275.213-.283.2s.1-.085.232-.243a1.51,1.51,0,0,0,.2-.3c.069-.1.112-.29,0-.311s-.245.115-.322.213a.849.849,0,0,0-.133.32A1.95,1.95,0,0,0,464.385,442.291Z" transform="translate(-418.229 -303.684)"/><path class="e" d="M480.209,442.037s-.219,0-.567.03a2.4,2.4,0,0,0-1.989,1.616c-.116.328-.125.546-.142.546a.477.477,0,0,1,0-.154,2.011,2.011,0,0,1,.077-.427,2.333,2.333,0,0,1,2.049-1.663,2.158,2.158,0,0,1,.43,0A.555.555,0,0,1,480.209,442.037Z" transform="translate(-425.75 -304.048)"/><path class="e" d="M481.85,434.71a14.312,14.312,0,0,1,.086,1.565,13,13,0,0,1,0,1.565,25.982,25.982,0,0,1-.077-3.13Z" transform="translate(-428.224 -299.882)"/><path class="e" d="M472.246,445.643a4.568,4.568,0,0,1-1.121.124A4.388,4.388,0,0,1,470,445.69c0-.026.507,0,1.125,0S472.242,445.617,472.246,445.643Z" transform="translate(-421.468 -306.149)"/><path class="e" d="M478.441,445.6s-.039.107-.09.222-.077.213-.1.213-.039-.119,0-.252S478.424,445.58,478.441,445.6Z" transform="translate(-426.16 -306.124)"/><path class="e" d="M479.619,443.936a.5.5,0,0,1-.107.179c-.077.081-.159.132-.176.115s.03-.1.107-.179S479.619,443.919,479.619,443.936Z" transform="translate(-426.792 -305.171)"/><path class="e" d="M481.328,443.109c0,.026-.107.026-.219.068s-.193.1-.215.085.043-.124.185-.171S481.337,443.087,481.328,443.109Z" transform="translate(-427.681 -304.676)"/><path class="e" d="M482.946,442.766c0,.026-.034.064-.1.09s-.12.026-.129,0,.034-.064.094-.09S482.938,442.745,482.946,442.766Z" transform="translate(-428.724 -304.492)"/><path class="e" d="M453.76,253.66l3.586,79.088L469.3,333l-1.984-66.209L480.766,333.5h11.373L476.952,253.66" transform="translate(-412.203 -196.043)"/><path class="i" d="M515.27,437.683l.271,1.169,11.691.158-.18-1.829Z" transform="translate(-447.295 -301.298)"/><path class="i" d="M485,438.08c.069,0,.129.149.142.345s-.039.354-.107.358-.129-.149-.142-.345S484.941,438.08,485,438.08Z" transform="translate(-429.966 -301.814)"/><path class="i" d="M484.741,431.36c.069,0,.137.316.15.712s-.026.721-.095.721-.137-.316-.15-.712S484.673,431.364,484.741,431.36Z" transform="translate(-429.823 -297.96)"/><path class="i" d="M484.53,424.64c.069,0,.133.32.146.716s-.034.716-.1.716-.133-.316-.146-.712S484.462,424.644,484.53,424.64Z" transform="translate(-429.698 -294.106)"/><path class="i" d="M484.366,417.92c.069,0,.129.32.142.712s-.039.721-.107.721-.133-.316-.142-.712S484.3,417.92,484.366,417.92Z" transform="translate(-429.602 -290.252)"/><path class="i" d="M484.206,411.19c.064,0,.129.32.137.716s-.034.716-.1.721-.133-.32-.142-.716S484.137,411.194,484.206,411.19Z" transform="translate(-429.511 -286.392)"/><path class="i" d="M484.02,404.47c.064,0,.133.316.142.712s-.03.721-.1.721-.133-.316-.146-.712S483.952,404.47,484.02,404.47Z" transform="translate(-429.407 -282.538)"/><path class="i" d="M483.77,397.75c.064,0,.137.316.155.708s-.026.721-.095.725-.137-.316-.155-.712S483.7,397.75,483.77,397.75Z" transform="translate(-429.268 -278.684)"/><path class="i" d="M483.49,391c.069,0,.137.316.155.712s-.03.716-.095.721-.137-.316-.155-.712S483.421,391,483.49,391Z" transform="translate(-429.108 -274.812)"/><path class="i" d="M483.246,384.31c.069,0,.133.316.15.712s-.03.716-.1.721-.137-.316-.15-.712S483.177,384.31,483.246,384.31Z" transform="translate(-428.967 -270.975)"/><path class="i" d="M483.03,377.59c.064,0,.133.316.142.712s-.03.716-.1.721-.133-.32-.146-.712S482.957,377.59,483.03,377.59Z" transform="translate(-428.842 -267.121)"/><path class="i" d="M482.856,370.87c.064,0,.129.316.142.712s-.039.716-.107.721-.133-.32-.142-.712S482.783,370.87,482.856,370.87Z" transform="translate(-428.741 -263.267)"/><path class="i" d="M482.7,364.14c.069,0,.129.32.137.716s-.039.716-.107.721-.133-.32-.137-.716S482.628,364.144,482.7,364.14Z" transform="translate(-428.651 -259.407)"/><path class="i" d="M482.575,357.42c.064,0,.129.32.133.716s-.043.716-.112.716-.129-.316-.137-.712S482.506,357.42,482.575,357.42Z" transform="translate(-428.576 -255.553)"/><path class="i" d="M482.5,350.7c.069,0,.125.32.129.716s-.047.716-.116.716-.125-.32-.129-.716S482.427,350.7,482.5,350.7Z" transform="translate(-428.531 -251.699)"/><path class="i" d="M482.45,344c.069,0,.125.324.125.716s-.052.721-.12.721-.125-.32-.125-.717S482.382,344,482.45,344Z" transform="translate(-428.503 -247.856)"/><path class="i" d="M482.435,337.25c.069,0,.125.32.125.716s-.056.716-.125.716-.125-.32-.125-.716S482.366,337.25,482.435,337.25Z" transform="translate(-428.491 -243.985)"/><path class="i" d="M482.464,330.53c.069,0,.125.32.12.716s-.06.716-.129.716-.12-.324-.116-.716S482.4,330.53,482.464,330.53Z" transform="translate(-428.508 -240.131)"/><path class="i" d="M482.523,323.8c.069,0,.12.324.116.721s-.064.716-.133.712-.12-.32-.116-.716S482.454,323.8,482.523,323.8Z" transform="translate(-428.536 -236.271)"/><path class="i" d="M482.627,317.08c.069,0,.116.324.112.721s-.069.712-.137.712-.116-.324-.112-.716S482.558,317.08,482.627,317.08Z" transform="translate(-428.593 -232.417)"/><path class="i" d="M482.756,310.35c.069,0,.12.324.112.721s-.073.716-.142.716-.116-.324-.107-.721S482.692,310.35,482.756,310.35Z" transform="translate(-428.667 -228.557)"/><path class="i" d="M482.933,303.63c.069,0,.112.324.1.721s-.081.716-.163.716-.112-.324-.095-.721S482.868,303.626,482.933,303.63Z" transform="translate(-428.753 -224.703)"/><path class="i" d="M483.277,296.91c.069,0,.1.328.077.721s-.1.712-.163.712-.107-.328-.082-.725S483.209,296.906,483.277,296.91Z" transform="translate(-428.943 -220.848)"/><path class="i" d="M483.818,290.21c.069,0,.09.333.051.725s-.125.708-.193.7-.09-.328-.052-.725S483.749,290.2,483.818,290.21Z" transform="translate(-429.23 -217.006)"/><path class="i" d="M484.5,285.23c.064,0,.1.175.073.371s-.107.341-.176.333-.1-.175-.069-.371S484.428,285.221,484.5,285.23Z" transform="translate(-429.634 -214.149)"/><path class="i" d="M461.38,437.469l12.648.2-.1-2.094-12.55.068Z" transform="translate(-416.55 -300.38)"/><path class="i" d="M537.468,435.67c.064,0,.146.137.176.328s0,.358-.064.371-.146-.136-.176-.333S537.4,435.683,537.468,435.67Z" transform="translate(-459.916 -300.432)"/><path class="i" d="M536.446,429.22c.069,0,.176.29.236.67s.06.7,0,.708-.172-.29-.236-.67S536.381,429.233,536.446,429.22Z" transform="translate(-459.349 -296.733)"/><path class="i" d="M535.384,422.78c.069,0,.172.286.236.665s.06.7,0,.708-.172-.286-.236-.665S535.315,422.793,535.384,422.78Z" transform="translate(-458.742 -293.039)"/><path class="i" d="M534.314,416.34c.064,0,.172.286.236.665s.06.7,0,.708-.172-.29-.236-.665S534.245,416.349,534.314,416.34Z" transform="translate(-458.132 -289.346)"/><path class="i" d="M533.227,409.9c.069,0,.176.286.24.665s.06.7,0,.708-.172-.29-.236-.669S533.158,409.909,533.227,409.9Z" transform="translate(-457.512 -285.652)"/><path class="i" d="M532.125,403.46c.064,0,.172.286.241.665s.06.7,0,.708-.176-.29-.241-.669S532.039,403.469,532.125,403.46Z" transform="translate(-456.879 -281.959)"/><path class="i" d="M531.026,397c.069,0,.176.286.24.665s.065.7,0,.708-.176-.286-.24-.665S530.961,397.021,531.026,397Z" transform="translate(-456.257 -278.253)"/><path class="i" d="M529.929,390.58c.069,0,.176.286.24.665s.064.7,0,.708-.176-.286-.24-.665S529.852,390.593,529.929,390.58Z" transform="translate(-455.628 -274.571)"/><path class="i" d="M528.789,384.15c.064,0,.176.286.241.665s.069.7,0,.708-.176-.286-.245-.665S528.72,384.163,528.789,384.15Z" transform="translate(-454.977 -270.884)"/><path class="i" d="M527.652,377.72c.069,0,.176.286.245.661s.069.7,0,.708-.176-.286-.245-.661S527.583,377.729,527.652,377.72Z" transform="translate(-454.33 -267.196)"/><path class="i" d="M526.512,371.29c.065,0,.176.286.245.661s.069.7,0,.708-.176-.286-.245-.665S526.443,371.3,526.512,371.29Z" transform="translate(-453.679 -263.508)"/><path class="i" d="M525.357,364.86c.069,0,.18.286.249.661s.069.7,0,.708-.176-.286-.245-.661S525.292,364.873,525.357,364.86Z" transform="translate(-453.023 -259.82)"/><path class="i" d="M524.192,358.43c.064,0,.176.286.245.665s.073.7,0,.7-.176-.281-.245-.661S524.123,358.443,524.192,358.43Z" transform="translate(-452.356 -256.132)"/><path class="i" d="M523.017,352c.069,0,.18.281.249.661s.073.7,0,.708-.176-.286-.245-.665S522.952,352,523.017,352Z" transform="translate(-451.688 -252.444)"/><path class="i" d="M521.829,345.58c.069,0,.18.286.249.665s.073.691,0,.7-.176-.281-.249-.661S521.761,345.593,521.829,345.58Z" transform="translate(-451.007 -248.762)"/><path class="i" d="M520.639,339.16c.064,0,.176.286.249.661s.073.7,0,.708-.176-.281-.249-.661S520.571,339.173,520.639,339.16Z" transform="translate(-450.328 -245.08)"/><path class="i" d="M519.434,332.74c.069,0,.18.286.253.661s.073.7,0,.708-.176-.281-.249-.661S519.37,332.753,519.434,332.74Z" transform="translate(-449.643 -241.398)"/><path class="i" d="M518.216,326.32c.064,0,.18.286.249.661s.077.7,0,.708-.18-.281-.253-.661S518.148,326.333,518.216,326.32Z" transform="translate(-448.945 -237.716)"/><path class="i" d="M516.992,319.91c.069,0,.18.281.253.661s.077.7,0,.708-.18-.286-.253-.661S516.927,319.923,516.992,319.91Z" transform="translate(-448.248 -234.04)"/><path class="i" d="M515.754,313.49c.064,0,.18.286.253.661s.077.7,0,.708-.18-.281-.258-.661S515.685,313.5,515.754,313.49Z" transform="translate(-447.539 -230.358)"/><path class="i" d="M514.509,307.08c.069,0,.185.282.258.661s.077.7,0,.708-.18-.281-.258-.661S514.445,307.093,514.509,307.08Z" transform="translate(-446.831 -226.681)"/><path class="i" d="M513.259,300.67c.069,0,.18.281.258.661s.077.7,0,.708-.185-.286-.258-.661S513.191,300.683,513.259,300.67Z" transform="translate(-446.118 -223.005)"/><path class="i" d="M511.991,294.26c.069,0,.185.286.258.661s.082.7,0,.708-.185-.281-.258-.661S511.927,294.277,511.991,294.26Z" transform="translate(-445.395 -219.329)"/><path class="i" d="M510.719,287.86c.069,0,.185.281.258.657s.082.7,0,.708-.185-.281-.258-.657S510.651,287.873,510.719,287.86Z" transform="translate(-444.669 -215.658)"/><path class="i" d="M509.439,281.45c.064,0,.18.281.258.661s.086.691,0,.708-.185-.281-.258-.661S509.371,281.467,509.439,281.45Z" transform="translate(-443.939 -211.982)"/><path class="i" d="M508.139,275.05c.069,0,.185.281.262.661s.086.691,0,.7-.185-.281-.262-.657S508.075,275.063,508.139,275.05Z" transform="translate(-443.197 -208.311)"/><path class="i" d="M507.136,270.23c.064,0,.155.128.193.32s0,.358-.051.371-.155-.128-.193-.32S507.068,270.243,507.136,270.23Z" transform="translate(-442.615 -205.547)"/><path class="m" d="M399.746,150.6s-8.706,6.4-6.013,16.095,8.852,10.726,11.854,11.941,10.2,3.275,13.658,7.745l11.553-8.789a38.189,38.189,0,0,1-4.5-14.3c-.9-8.346-4.5-12.218-7.353-14.005S408.3,143.6,399.746,150.6Z" transform="translate(-377.662 -134.628)"/><path class="e" d="M438.276,194.2l-.167-.154-.485-.469-1.847-1.817c-1.585-1.591-3.9-3.885-6.554-6.9-.657-.759-1.344-1.557-2.032-2.414s-1.4-1.74-2.062-2.729a9.555,9.555,0,0,1-1.495-3.352,5.379,5.379,0,0,1,.567-3.813,3.685,3.685,0,0,1,3.59-1.706,2.761,2.761,0,0,1,1.847,1.075,3.463,3.463,0,0,1,.64,2.081,4.724,4.724,0,0,1-.558,2.132,9.127,9.127,0,0,1-1.288,1.83,25.864,25.864,0,0,1-3.333,3.109,26.428,26.428,0,0,1-3.8,2.525,8.565,8.565,0,0,1-2.113.78,5.588,5.588,0,0,1-2.225.043,4.179,4.179,0,0,1-1.984-.917,3.206,3.206,0,0,1-1.061-1.851,2.857,2.857,0,0,1,.335-2.056,2.578,2.578,0,0,1,1.718-1.134,3.891,3.891,0,0,1,2,.132,5.287,5.287,0,0,1,1.684.977,21.719,21.719,0,0,1,2.478,2.712l4.2,5.054,6.056,7.314c.709.853,1.263,1.531,1.641,2l.429.525c.094.119.137.183.137.183s-.056-.055-.155-.171l-.43-.508-1.671-1.97-6.124-7.284-4.252-5.011a21.524,21.524,0,0,0-2.461-2.682,5.162,5.162,0,0,0-1.615-.938,3.671,3.671,0,0,0-1.9-.119,2.371,2.371,0,0,0-1.563,1.045,2.641,2.641,0,0,0-.3,1.906,3.006,3.006,0,0,0,.992,1.727,3.985,3.985,0,0,0,1.885.853,6.481,6.481,0,0,0,4.192-.806,26.08,26.08,0,0,0,3.767-2.5,25.408,25.408,0,0,0,3.3-3.079,8.824,8.824,0,0,0,1.267-1.783,4.469,4.469,0,0,0,.537-2.038,3.284,3.284,0,0,0-.593-1.953,2.521,2.521,0,0,0-1.718-.989,3.474,3.474,0,0,0-3.384,1.616,5.2,5.2,0,0,0-.55,3.672,9.319,9.319,0,0,0,1.456,3.284c.644.981,1.361,1.868,2.04,2.725s1.366,1.659,2.019,2.418c2.637,3.028,4.931,5.339,6.5,6.947l1.812,1.847.468.482A1.34,1.34,0,0,1,438.276,194.2Z" transform="translate(-389.435 -148.527)"/><path class="a" d="M453.53,227.48l11.515-8.93,5.686,7.212-.326,6.551-4.321,3.544-7.2-1.646Z" transform="translate(-412.072 -175.906)"/><path class="i" d="M486.989,250.761a3.963,3.963,0,0,0-3.049.815,3.827,3.827,0,0,0-1.34,2.8Z" transform="translate(-428.657 -194.356)"/><path class="e" d="M477.223,234.609a3.613,3.613,0,0,1-.563.136,15.586,15.586,0,0,0-1.508.4,14.157,14.157,0,0,0-7.9,6.188c-.339.563-.584,1.036-.743,1.369a2.943,2.943,0,0,1-.262.508,2.583,2.583,0,0,1,.185-.546,11.192,11.192,0,0,1,.683-1.407,13.457,13.457,0,0,1,7.988-6.265,12.118,12.118,0,0,1,1.542-.333A2.741,2.741,0,0,1,477.223,234.609Z" transform="translate(-419.329 -185.117)"/><path class="e" d="M474.113,230.419a3.085,3.085,0,0,1-.563.137,15.6,15.6,0,0,0-1.507.4,14.131,14.131,0,0,0-7.9,6.192c-.339.559-.584,1.032-.743,1.365a2.945,2.945,0,0,1-.262.508,2.5,2.5,0,0,1,.185-.542,11.206,11.206,0,0,1,.683-1.412A13.427,13.427,0,0,1,472,230.808a11.562,11.562,0,0,1,1.542-.337A2.743,2.743,0,0,1,474.113,230.419Z" transform="translate(-417.554 -182.714)"/><path class="e" d="M470.913,226.619a3.082,3.082,0,0,1-.563.137,15.581,15.581,0,0,0-1.508.4,14.131,14.131,0,0,0-7.9,6.192c-.339.559-.584,1.032-.743,1.365a2.944,2.944,0,0,1-.262.507,2.5,2.5,0,0,1,.185-.542,10.916,10.916,0,0,1,.683-1.412A13.458,13.458,0,0,1,468.8,227a12.135,12.135,0,0,1,1.542-.333A2.739,2.739,0,0,1,470.913,226.619Z" transform="translate(-415.729 -180.534)"/><g class="n" transform="translate(17.057 20.069)"><path class="g" d="M411.135,186.9c-.026.3-.455.567-1.258.7a8.312,8.312,0,0,1-3.389-.264,12.677,12.677,0,0,1-4.557-2.3,13.345,13.345,0,0,1-5.2-11.2,12.547,12.547,0,0,1,1.2-4.934,8.152,8.152,0,0,1,2-2.729c.627-.52,1.108-.67,1.353-.495.528.384-.034,1.889-.335,4.167a16.939,16.939,0,0,0-.094,3.923,12.976,12.976,0,0,0,3.805,8.21,17.342,17.342,0,0,0,3.067,2.473C409.662,185.7,411.183,186.25,411.135,186.9Z" transform="translate(-396.716 -165.616)"/></g><g class="n" transform="translate(34.522 41.703)"><path class="g" d="M441.177,217.284a2.022,2.022,0,0,1-.644,2.753,2.053,2.053,0,0,1-2.791-.554,2.021,2.021,0,0,1,.472-2.787,2.157,2.157,0,0,1,2.963.588Z" transform="translate(-437.381 -216.343)"/></g><path class="e" d="M367.209,186.751c0,.06-2.285.111-5.107.111s-5.1-.068-5.1-.111,2.285-.111,5.107-.111S367.209,186.687,367.209,186.751Z" transform="translate(-357 -157.605)"/><path class="e" d="M373.988,173.339a30.778,30.778,0,0,1-5.1-1.279,15.513,15.513,0,0,1,2.577.525A15.707,15.707,0,0,1,373.988,173.339Z" transform="translate(-363.784 -149.243)"/><path class="e" d="M381.117,156.628c-.034.051-1.868-1.139-4.093-2.648s-4-2.781-3.964-2.832,1.864,1.134,4.093,2.648A48.362,48.362,0,0,1,381.117,156.628Z" transform="translate(-366.162 -137.248)"/><path class="e" d="M400.1,144.712a12.785,12.785,0,0,1-1.748-1.582,12.039,12.039,0,0,1-1.593-1.74,12.79,12.79,0,0,1,1.748,1.582,11.979,11.979,0,0,1,1.593,1.74Z" transform="translate(-379.684 -131.652)"/><path class="e" d="M417.847,129.153c-.06.026-1.031-2.273-2.173-5.118s-2.023-5.194-1.967-5.216,1.031,2.273,2.173,5.118S417.9,129.132,417.847,129.153Z" transform="translate(-389.351 -118.708)"/><path class="e" d="M440.115,132.7a15.873,15.873,0,0,1-.288-2.614,15.492,15.492,0,0,1-.064-2.627,15.88,15.88,0,0,1,.288,2.614A15.5,15.5,0,0,1,440.115,132.7Z" transform="translate(-404.201 -123.663)"/><path class="e" d="M454.447,122.1c.06,0-.584,2.269-1.439,5.024s-1.593,4.981-1.654,4.964.588-2.269,1.439-5.028S454.391,122.083,454.447,122.1Z" transform="translate(-410.829 -120.589)"/><path class="f" d="M487.177,206l-6.872,4.29,1.112,2.9-15.376,6.282-4.209.192-3.105-.571s-.271.358.249.908a4.451,4.451,0,0,0,1.636.763l-2.324,2.085,3.006,3.791,10.308-2.474c5.708-.964,19.3-3.668,19.353-7.608C491.013,213.007,487.177,206,487.177,206Z" transform="translate(-414.787 -168.708)"/><path class="f" d="M395.215,188.781c.159-.465.545-.8.966-.576h0a.734.734,0,0,1,.142.716l-1.349,4.354h0l1.288-3.079c.159-.465.584-.746.859-.495a.772.772,0,0,1,.1.708l-1.155,3.638.945-2.256c.2-.516.43-.657.7-.542s.271.495.206.7l-.8,2.67c.176.512.769,2.132.2,3.032-.03.047.056.2.056.247l.271.307-1.748,1.638c-.906-.8-1.739-4.15-2-5.42a4,4,0,0,1,.095-2.175Z" transform="translate(-377.984 -158.462)"/></g><g transform="translate(145.297 92.191)"><path class="o" d="M273.127,442.542v-.652l-7.172-.35-.034,2.691.43.03c1.967.124,10,.5,11.321.115C279.17,443.945,273.127,442.542,273.127,442.542Z" transform="translate(-256.085 -305.999)"/><g class="p" transform="translate(9.869 136.157)"><path class="g" d="M268.577,445.025a2.466,2.466,0,0,0-.9-1.518,2.417,2.417,0,0,0-1.679-.516v1.979Z" transform="translate(-266 -442.985)"/></g><path class="q" d="M276.1,445.74s2.117.627,1.851.972-8.405.269-11.991-.073v-.158l9.487.166S275.684,445.753,276.1,445.74Z" transform="translate(-256.108 -308.408)"/><path class="e" d="M265.73,447.46a.582.582,0,0,0,.125,0l.352.021,1.288.068c1.1.051,2.6.1,4.273.115s3.182,0,4.295-.03l1.288-.043h.352a.436.436,0,0,0,.12,0H271.79c-1.666,0-3.182-.055-4.295-.09l-1.288-.043Z" transform="translate(-255.977 -309.394)"/><path class="e" d="M288.066,446.64a2.787,2.787,0,0,1,.245-.61,3.355,3.355,0,0,1,.429-.49.978.978,0,0,0-.52.426A.946.946,0,0,0,288.066,446.64Z" transform="translate(-268.714 -308.293)"/><path class="e" d="M283.205,444.807a1.52,1.52,0,0,0,.223-.273c.1-.162.176-.3.155-.315s-.12.111-.223.269S283.184,444.795,283.205,444.807Z" transform="translate(-265.944 -307.535)"/><path class="e" d="M281.867,444.339a1.117,1.117,0,0,0,.253-.162c.125-.107.21-.213.193-.23s-.129.055-.253.166S281.85,444.322,281.867,444.339Z" transform="translate(-265.182 -307.378)"/><path class="e" d="M281,443.243a.9.9,0,0,0,.374.051.787.787,0,0,0,.374-.038.942.942,0,0,0-.374-.047A.821.821,0,0,0,281,443.243Z" transform="translate(-264.688 -306.952)"/><path class="e" d="M280.75,442.19a.7.7,0,0,0,.43.124.726.726,0,0,0,.43-.051,2.155,2.155,0,0,0-.43-.034,2.752,2.752,0,0,0-.43-.039Z" transform="translate(-264.546 -306.372)"/><path class="e" d="M283.78,443.313a1.238,1.238,0,0,0,.46,0,2.694,2.694,0,0,0,.485-.1,1.526,1.526,0,0,0,.283-.115.226.226,0,0,0,.112-.136.174.174,0,0,0-.064-.183.863.863,0,0,0-1.044.235.819.819,0,0,0-.15.3.177.177,0,0,0,0,.119,1.277,1.277,0,0,1,.21-.384.816.816,0,0,1,.4-.247.713.713,0,0,1,.546.038c.073.055.043.141-.039.188a1.367,1.367,0,0,1-.258.107,3.338,3.338,0,0,1-.472.119C283.956,443.3,283.78,443.3,283.78,443.313Z" transform="translate(-266.274 -306.659)"/><path class="e" d="M283.274,443.023a.479.479,0,0,0,.056-.316.743.743,0,0,0-.125-.333.429.429,0,0,0-.378-.234.179.179,0,0,0-.142.209.556.556,0,0,0,.073.2,1.419,1.419,0,0,0,.215.277.669.669,0,0,0,.262.188,2.677,2.677,0,0,1-.215-.226,1.313,1.313,0,0,1-.2-.281c-.064-.094-.1-.269,0-.29s.232.107.3.2a.77.77,0,0,1,.129.3,2.455,2.455,0,0,1,.026.311Z" transform="translate(-265.648 -306.343)"/><path class="e" d="M266.11,442.867s.206,0,.528.021a2.238,2.238,0,0,1,1.851,1.493,4.793,4.793,0,0,1,.129.508v-.141a2.289,2.289,0,0,0-.073-.384,2.161,2.161,0,0,0-1.907-1.535,2.271,2.271,0,0,0-.391,0C266.162,442.846,266.11,442.859,266.11,442.867Z" transform="translate(-256.193 -306.733)"/><path class="e" d="M274.08,446.18a5.96,5.96,0,0,0,2.083.021c0-.026-.468,0-1.044,0S274.084,446.154,274.08,446.18Z" transform="translate(-260.74 -308.656)"/><path class="e" d="M270.83,446.126s.039.1.082.2.073.2.1.2.039-.111,0-.235S270.847,446.109,270.83,446.126Z" transform="translate(-258.886 -308.628)"/><path class="e" d="M269.62,444.6a.449.449,0,0,0,.1.166c.073.077.146.119.163.1s-.026-.09-.1-.162S269.637,444.579,269.62,444.6Z" transform="translate(-258.196 -307.75)"/><path class="e" d="M267.87,443.831c0,.026.1.026.206.064s.176.094.2.077-.043-.115-.172-.158S267.866,443.81,267.87,443.831Z" transform="translate(-257.197 -307.292)"/><path class="e" d="M266.63,443.521c0,.026.03.06.09.085s.112.021.12,0-.03-.06-.09-.081S266.639,443.5,266.63,443.521Z" transform="translate(-256.49 -307.127)"/><path class="o" d="M292.994,443.049l.021-.653-7.147-.516-.1,2.691.429.038c1.958.175,9.986.734,11.313.38C299,444.6,292.994,443.049,292.994,443.049Z" transform="translate(-267.41 -306.194)"/><g class="p" transform="translate(18.369 136.298)"><path class="g" d="M288.363,445.42a2.455,2.455,0,0,0-2.508-2.1l-.064,1.975Z" transform="translate(-285.79 -443.316)"/></g><path class="q" d="M295.917,446.64s2.1.674,1.825,1.015-8.405.073-11.983-.354v-.158l9.483.388S295.505,446.644,295.917,446.64Z" transform="translate(-267.404 -308.924)"/><path class="e" d="M285.54,447.8h.12l.352.03,1.288.1c1.091.077,2.6.158,4.295.213s3.178.073,4.273.073h0c-1.091,0-2.6-.043-4.273-.1s-3.178-.128-4.269-.188l-1.289-.068h-.352Z" transform="translate(-267.278 -309.589)"/><path class="e" d="M307.856,447.543a3.2,3.2,0,0,1,.262-.606,3.058,3.058,0,0,1,.46-.478,1.143,1.143,0,0,0-.722,1.083Z" transform="translate(-280.008 -308.821)"/><path class="e" d="M303.05,445.564a.887.887,0,0,0,.236-.264c.112-.162.18-.3.159-.311s-.125.107-.232.264A.818.818,0,0,0,303.05,445.564Z" transform="translate(-277.268 -307.976)"/><path class="e" d="M301.728,445.069a1.158,1.158,0,0,0,.258-.158c.125-.1.215-.2.2-.226s-.133.055-.258.158S301.715,445.052,301.728,445.069Z" transform="translate(-276.513 -307.801)"/><path class="e" d="M300.94,443.956a.891.891,0,0,0,.369.055.835.835,0,0,0,.374-.026.89.89,0,0,0-.369-.06A.788.788,0,0,0,300.94,443.956Z" transform="translate(-276.064 -307.366)"/><path class="e" d="M300.68,442.88a.7.7,0,0,0,.43.132.669.669,0,0,0,.429-.043,43.352,43.352,0,0,1-.859-.09Z" transform="translate(-275.916 -306.768)"/><path class="e" d="M303.66,444.09a1.217,1.217,0,0,0,.46,0,2.673,2.673,0,0,0,.49-.09,1.463,1.463,0,0,0,.283-.107.222.222,0,0,0,.116-.136.178.178,0,0,0-.06-.183.863.863,0,0,0-1.048.209.783.783,0,0,0-.159.3.272.272,0,0,0,0,.124,1.279,1.279,0,0,1,.223-.38.827.827,0,0,1,.4-.243.7.7,0,0,1,.541.055c.073.055.043.141-.039.188a1.726,1.726,0,0,1-.262.1,3.182,3.182,0,0,1-.477.107C303.836,444.081,303.66,444.077,303.66,444.09Z" transform="translate(-277.616 -307.112)"/><path class="e" d="M303.173,443.8a.462.462,0,0,0,.06-.316.7.7,0,0,0-.112-.337.464.464,0,0,0-.374-.243.184.184,0,0,0-.15.2.551.551,0,0,0,.073.2,1.283,1.283,0,0,0,.206.281.714.714,0,0,0,.258.2,2.622,2.622,0,0,1-.21-.235,1.735,1.735,0,0,1-.185-.277c-.06-.1-.094-.273.022-.29s.228.111.292.2a.731.731,0,0,1,.12.3A1.991,1.991,0,0,1,303.173,443.8Z" transform="translate(-277.009 -306.779)"/><path class="e" d="M286,443.22s.2,0,.524.034a2.22,2.22,0,0,1,1.817,1.54c.1.307.1.512.12.508a.454.454,0,0,0,0-.141,1.8,1.8,0,0,0-.064-.384,2.165,2.165,0,0,0-1.868-1.582,1.674,1.674,0,0,0-.391,0A.392.392,0,0,0,286,443.22Z" transform="translate(-267.541 -306.941)"/><path class="e" d="M293.92,446.709a3.973,3.973,0,0,0,1.035.128,4.108,4.108,0,0,0,1.044-.055c0-.026-.468,0-1.039-.03A9.363,9.363,0,0,0,293.92,446.709Z" transform="translate(-272.059 -308.959)"/><path class="e" d="M290.67,446.587s.034.1.077.2.069.2.09.2.043-.111,0-.234S290.683,446.569,290.67,446.587Z" transform="translate(-270.205 -308.892)"/><path class="e" d="M289.49,445a.45.45,0,0,0,.1.171c.073.077.142.124.159.107s-.026-.09-.095-.166A.344.344,0,0,0,289.49,445Z" transform="translate(-269.532 -307.983)"/><path class="e" d="M287.76,444.223c0,.026.1.026.2.068s.18.1.2.081-.039-.115-.168-.162S287.756,444.2,287.76,444.223Z" transform="translate(-268.545 -307.518)"/><path class="e" d="M286.53,443.876c0,.021.03.06.086.085s.116.026.125,0-.03-.06-.09-.085S286.539,443.855,286.53,443.876Z" transform="translate(-267.843 -307.329)"/><path class="i" d="M275.252,251.726s5.772,38.088,4.935,39.93-5.845,39.832-5.845,39.832l-14.349-.166s7.954-43.627,7.774-44.331S256.9,248.66,256.9,248.66Z" transform="translate(-250.939 -195.376)"/><path class="i" d="M264.35,251.912l-16.342-5.442-.571,1.343a16.524,16.524,0,0,0-.206,12.4L258.4,289.27a21.4,21.4,0,0,1,1.417,6.423l1.718,34.48,11.167.776s-.79-28.185-.8-37.03c0-6.67-4.849-27.8-7.563-38.007" transform="translate(-244.791 -194.12)"/><path class="e" d="M263.34,317.88a.689.689,0,0,1,.064.128c.039.1.09.222.159.384.137.35.339.853.593,1.471.511,1.279,1.241,3.147,2.147,5.433s1.963,5.037,3.144,8.069a15.81,15.81,0,0,1,.43,2.482q.142,1.279.253,2.6c.146,1.766.266,3.6.374,5.471.43,7.51.606,14.312.739,19.238.047,2.452.09,4.44.116,5.83V371a.868.868,0,0,1,0,.141.714.714,0,0,1,0-.141v-.426c0-.375-.03-.908-.056-1.582-.047-1.395-.112-3.382-.189-5.83-.172-4.921-.391-11.724-.8-19.229-.107-1.872-.223-3.706-.369-5.467-.069-.883-.155-1.749-.249-2.593a15.981,15.981,0,0,0-.429-2.439c-1.164-3.041-2.216-5.779-3.1-8.1s-1.581-4.154-2.074-5.459l-.554-1.488c-.06-.162-.1-.29-.137-.388A.731.731,0,0,1,263.34,317.88Z" transform="translate(-254.613 -235.076)"/><path class="e" d="M297.511,311.319a.772.772,0,0,1,0-.128v-.375c0-.345,0-.827-.022-1.441,0-1.279,0-3.07-.034-5.3v-3.659a11.849,11.849,0,0,0-.1-2.017c-.129-.691-.258-1.4-.4-2.132-.545-2.908-1.142-6.1-1.77-9.459-1.233-6.708-2.354-12.794-3.165-17.2-.391-2.192-.709-3.966-.932-5.216-.107-.606-.185-1.079-.245-1.42-.026-.154-.043-.273-.056-.371a.473.473,0,0,1,0-.128.827.827,0,0,1,.034.124c.021.094.047.217.077.367.069.337.163.81.283,1.412.241,1.245.584,3.019,1.005,5.2.829,4.414,1.971,10.483,3.23,17.187.623,3.356,1.215,6.551,1.752,9.463.133.725.262,1.437.391,2.132a12.309,12.309,0,0,1,.086,2.047c0,1.314,0,2.537,0,3.659,0,2.226-.03,4.03-.039,5.3v1.817A.531.531,0,0,1,297.511,311.319Z" transform="translate(-270.274 -203.302)"/><path class="e" d="M292.708,256.46a1.633,1.633,0,0,1,.331.657,4.779,4.779,0,0,1-.193,3.48,1.7,1.7,0,0,1-.4.618,8.21,8.21,0,0,0,.6-2.354,7.942,7.942,0,0,0-.339-2.4Z" transform="translate(-271.221 -199.849)"/><path class="e" d="M262.913,254.34a.931.931,0,0,1,0,.371,3.248,3.248,0,0,1-.245.981,3.722,3.722,0,0,1-.859,1.245,3.506,3.506,0,0,1-3.479.861,3.722,3.722,0,0,1-1.34-.7,3.249,3.249,0,0,1-.683-.751,1.093,1.093,0,0,1-.167-.333,6.1,6.1,0,0,0,.945.96,3.542,3.542,0,0,0,5.437-1.352A5.689,5.689,0,0,0,262.913,254.34Z" transform="translate(-250.505 -198.633)"/><path class="e" d="M256.223,124.48c-4.724,0-6.146,4.265-6.412,5.233a9.216,9.216,0,0,0-.1,2.985,5.518,5.518,0,0,1-.429,2.921c-.992,1.783-3.685,2.405-4.1,4.4-.275,1.309.614,2.691.21,3.97-.344,1.092-1.516,1.706-2.023,2.746-.588,1.194-.159,2.61.275,3.864.12.337.279.721.623.832a1.184,1.184,0,0,0,.666-.051l9.243-2.537" transform="translate(-243.055 -124.154)"/><path class="f" d="M352.189,208.666h1.817c1.654-.162,2.577-.188,3.045-.623.618-.584-.232-1.16-.232-1.16s1.2-.426,1.082-1.134c-.073-.495-.644-.55-.644-.55s1.056-.426,1.267-.853c.283-.6-.46-.913-.46-.913,1.439-.883,1.31-1.757.975-1.842a4.3,4.3,0,0,0-1.456.426c-.949.269-3.539,1.053-2.577-.363a4.34,4.34,0,0,0,.936-3.3.538.538,0,0,0-.988.243,6.3,6.3,0,0,1-.679,1.595,4.22,4.22,0,0,1-.859,1.083c-.408.358-.764.644-1.078.883l-1.619,1.552Z" transform="translate(-304.465 -166.385)"/><path class="h" d="M363.643,209.057a4,4,0,0,1-.807.55,8.173,8.173,0,0,1-.953.478,5.164,5.164,0,0,1-.6.209,1.01,1.01,0,0,1-.365.038.516.516,0,0,1-.369-.213.632.632,0,0,1,.125-.746,3.115,3.115,0,0,1,.515-.392l.88-.58a4.067,4.067,0,0,1,.859-.49,4.2,4.2,0,0,1-.752.618l-.859.623a3.114,3.114,0,0,0-.468.367.425.425,0,0,0-.1.482c.082.132.3.136.494.085a4.783,4.783,0,0,0,.576-.192,10.05,10.05,0,0,0,.958-.426A4.81,4.81,0,0,1,363.643,209.057Z" transform="translate(-310.031 -172.004)"/><path class="h" d="M363,213.5a2.435,2.435,0,0,1-.623.362l-.709.341-.43.2a.9.9,0,0,1-.55.085.429.429,0,0,1-.266-.2.458.458,0,0,1-.039-.316.967.967,0,0,1,.283-.426,3.974,3.974,0,0,1,.618-.5,1.634,1.634,0,0,1,.661-.311,5.073,5.073,0,0,1-.571.426,4.935,4.935,0,0,0-.558.516.814.814,0,0,0-.219.333.186.186,0,0,0,.017.159.189.189,0,0,0,.134.089c.245.055.576-.158.833-.252l.722-.294A2.313,2.313,0,0,1,363,213.5Z" transform="translate(-309.971 -174.769)"/><path class="h" d="M362.224,216.137a1.608,1.608,0,0,1-.683.426,3.478,3.478,0,0,1-.859.239.769.769,0,0,1-.567-.132.5.5,0,0,1-.185-.29.462.462,0,0,1,.077-.345,1.48,1.48,0,0,1,.455-.38l.429-.269c.283-.166.55-.3.773-.426a2.481,2.481,0,0,1,.756-.29,3.441,3.441,0,0,1-.683.427c-.21.124-.464.273-.739.426l-.43.277a1.339,1.339,0,0,0-.391.32.242.242,0,0,0,.06.341.553.553,0,0,0,.408.1,3.685,3.685,0,0,0,.825-.183C361.945,216.274,362.207,216.09,362.224,216.137Z" transform="translate(-309.716 -175.881)"/><path class="h" d="M360.519,220.163a.143.143,0,0,1-.133,0,.394.394,0,0,1-.258-.256.593.593,0,0,1,.1-.529,1.286,1.286,0,0,1,.477-.392,4.243,4.243,0,0,1,1.387-.606,6.7,6.7,0,0,1-1.288.793,1.287,1.287,0,0,0-.43.324.492.492,0,0,0-.112.367C360.33,220.107,360.527,220.137,360.519,220.163Z" transform="translate(-309.818 -178.009)"/><path class="r" d="M289.186,186.78s1.6,4.721,1.718,5c.971,2.559,2.07,6.286,3.286,6.738s16.076-2.559,16.076-2.559l2.272,7.706s-11.914,4.29-18.356,4.213c-6.039-.072-7.765-.755-9.878-5.6s-4.535-10.406-5.042-13.609" transform="translate(-263.696 -159.885)"/><path class="e" d="M315.755,216.335a3.575,3.575,0,0,1-.352.154c-.228.1-.576.23-1.022.4-.893.324-2.2.759-3.835,1.233s-3.595.994-5.777,1.539a37.146,37.146,0,0,1-7.215,1.254,13.3,13.3,0,0,1-1.937-.051,8.075,8.075,0,0,1-1.847-.384,8.949,8.949,0,0,1-3.028-1.834,18.054,18.054,0,0,1-3.556-4.776c-.8-1.493-1.353-2.751-1.718-3.621-.185-.426-.326-.776-.429-1.006a1.579,1.579,0,0,1-.129-.358,1.936,1.936,0,0,1,.172.341l.451.989c.4.853.966,2.1,1.782,3.582a18.273,18.273,0,0,0,3.556,4.691,8.772,8.772,0,0,0,2.959,1.783,8.065,8.065,0,0,0,1.8.371,13.489,13.489,0,0,0,1.907.047,37.566,37.566,0,0,0,7.168-1.228c2.182-.533,4.144-1.032,5.781-1.488s2.951-.853,3.865-1.164l1.035-.354A1.893,1.893,0,0,1,315.755,216.335Z" transform="translate(-266.919 -172.561)"/><path class="f" d="M317.11,219.861v.026c.137-.162.283-.341.429-.542a3.283,3.283,0,0,0,.528-1,5.017,5.017,0,0,0,.3-1.373.426.426,0,0,1,.243-.464.432.432,0,0,1,.513.119,3.582,3.582,0,0,1-.253,2.789c-.554,1.284,1.4.264,2.147-.094a13.593,13.593,0,0,1,3.29-1.228c.429.2.283.678-.43,1.019s-2.839,1.514-2.633,1.881,3.865-1.505,3.865-1.505.713-.525.966-.107c.464.755-3.56,2.461-3.947,2.614-.271.107-.056.512.228.384s3.59-1.949,4.067-1.186c.365.584-3.294,1.433-3.771,2.188s2.71-.921,3.036-.35c.125.213.185.392-1.787,1.092a48.723,48.723,0,0,1-5.132,1.279Z" transform="translate(-285.29 -176.914)"/><path class="r" d="M250.945,172.21l12.116,1.023s4.6-.751,7.155,10.5l-1.379,4.239-1.018,6.508h0l-.481,13.4-22.462-1.642c.511-3.045,2.9-7.045,3.706-9.617-.816-2.026-5.558-10.286-5.553-14.538,0-9.088,7.915-9.873,7.915-9.873" transform="translate(-243.026 -151.529)"/><g class="s" transform="translate(18.927 25.807)"><path d="M287.09,188.4l4.166.644a5.06,5.06,0,0,0,1.34.094,1.757,1.757,0,0,0,1.181-.576,2.148,2.148,0,0,0,.026-2.2,7.692,7.692,0,0,1-.859-2.132Z" transform="translate(-287.09 -184.23)"/></g><path class="r" d="M274.42,193.191l2.272,7.7s-11.9,4.3-18.348,4.218c-6.039-.072-7.765-.755-9.878-5.6s-4.535-10.406-5.042-13.609c0,0-3.41-14.747,9.595-13.429l.352,11.515s1.439,4.725,1.542,5c.971,2.559,2.229,6.286,3.436,6.738S274.42,193.191,274.42,193.191Z" transform="translate(-243.02 -151.635)"/><path class="e" d="M249.65,198.8a1.6,1.6,0,0,1,.086.171c.056.119.133.29.228.507.2.426.494,1.1.893,1.949a32.616,32.616,0,0,0,1.589,2.985,17.573,17.573,0,0,0,2.719,3.591,9.557,9.557,0,0,0,2.079,1.6,4.932,4.932,0,0,0,.618.311,4.352,4.352,0,0,0,.653.264,7.184,7.184,0,0,0,1.413.333,19.465,19.465,0,0,0,6.318-.426c2.2-.426,4.505-1.058,6.872-1.676a71.657,71.657,0,0,0,7.3-2.282l-.064.132c-.335-1.117-.687-2.307-1.044-3.514l-1.241-4.188.125.077c-2.921.5-5.7,1.194-8.384,1.736a34.087,34.087,0,0,1-7.709.81h-.064l-.026-.06c-1.108-2.866-1.971-5.544-2.74-7.915s-1.434-4.435-1.984-6.141-1.022-3.028-1.349-3.928l-.378-1.032c-.039-.111-.069-.2-.09-.264s-.03-.09-.03-.09a.3.3,0,0,1,.043.085l.107.26c.09.23.232.567.4,1.019.344.9.82,2.218,1.4,3.911s1.25,3.761,2.027,6.133,1.654,5.041,2.77,7.894l-.086-.064a34.3,34.3,0,0,0,7.688-.793c2.671-.546,5.459-1.241,8.388-1.749h.1l.03.094q.606,2.06,1.241,4.192c.356,1.2.709,2.392,1.044,3.51l.026.1-.095.038a70.964,70.964,0,0,1-7.331,2.282c-2.4.618-4.69,1.224-6.91,1.667a19.111,19.111,0,0,1-6.386.4,7.742,7.742,0,0,1-1.443-.35,8.11,8.11,0,0,1-1.288-.6,9.662,9.662,0,0,1-2.1-1.629,17.609,17.609,0,0,1-2.714-3.638c-.67-1.156-1.168-2.183-1.559-3.032s-.67-1.514-.859-1.966l-.21-.516Z" transform="translate(-246.803 -157.001)"/><path class="t" d="M300.9,201s1.576,1.753,1.6,3.262c.043,2.388-.563,3.616.189,6.226l-2.147.516a3.274,3.274,0,0,1-.047-2c.279-1.365.825-3.024,1.065-4.508A5.032,5.032,0,0,0,300.9,201Z" transform="translate(-275.749 -168.041)"/><path class="e" d="M298.272,207.638a2.649,2.649,0,0,1-.129-.525,5.7,5.7,0,0,1,0-1.467,15.253,15.253,0,0,1,.46-2.132,18.885,18.885,0,0,0,.588-2.559,4.974,4.974,0,0,0-.271-2.559,6.449,6.449,0,0,0-1.151-1.783c-.812-.917-1.392-1.424-1.361-1.454a2.182,2.182,0,0,1,.43.333,13.251,13.251,0,0,1,1.057,1.015,6.51,6.51,0,0,1,1.224,1.813,5.084,5.084,0,0,1,.3,2.648,17.544,17.544,0,0,1-.614,2.589,16.569,16.569,0,0,0-.5,2.085,6.683,6.683,0,0,0-.077,1.437A2.238,2.238,0,0,1,298.272,207.638Z" transform="translate(-273.478 -164.692)"/><g class="n" transform="translate(12.124 35.223)"><path d="M284.216,213.854l-6.653.149a3.827,3.827,0,0,1-1.559-.179,3.663,3.663,0,0,1-1.542-1.616q-1.752-2.87-3.213-5.9s1.761,5.544,2.86,7.962a1.269,1.269,0,0,0,1.555.793A30.283,30.283,0,0,0,284.216,213.854Z" transform="translate(-271.25 -206.31)"/></g><path class="u" d="M254.66,233.25s2.251,8.5,8.023,8.329a33.788,33.788,0,0,0,11.244-2.627l-.258-.264s-9.81,2.1-12.537.776C255.957,236.982,254.66,233.25,254.66,233.25Z" transform="translate(-249.661 -186.538)"/><g class="s" transform="translate(4.23 20.954)"><path d="M254.884,172.85a5.049,5.049,0,0,0-1.915,5.186,11.737,11.737,0,0,0,2.757,5.118,1.385,1.385,0,0,0,.554.465,1.435,1.435,0,0,0,.979-.124l7.868-2.985a1.748,1.748,0,0,1-.945-1.07" transform="translate(-252.869 -172.85)"/></g><path class="e" d="M253.76,208.015a7.247,7.247,0,0,1,.309-1.74,7.123,7.123,0,0,1,.528-1.685,7,7,0,0,1-.309,1.74A7.126,7.126,0,0,1,253.76,208.015Z" transform="translate(-249.147 -170.1)"/><path class="e" d="M259.508,220.435a5.527,5.527,0,0,1-1.288-.9,5.337,5.337,0,0,1-1.13-1.075,11,11,0,0,1,2.405,1.975Z" transform="translate(-251.047 -178.055)"/><path class="e" d="M269.834,234.18a6.858,6.858,0,0,1,0-1.766,7.078,7.078,0,0,1,.228-1.744,6.816,6.816,0,0,1,0,1.761,7.138,7.138,0,0,1-.228,1.749Z" transform="translate(-258.286 -185.058)"/><path class="e" d="M281.754,237.83a10.953,10.953,0,0,1-2.293,2.094A10.674,10.674,0,0,1,281.754,237.83Z" transform="translate(-263.81 -189.164)"/><path class="e" d="M293.983,232.085a6.874,6.874,0,0,1-1.456-.947A6.565,6.565,0,0,1,291.2,230a7.064,7.064,0,0,1,1.46.947A6.949,6.949,0,0,1,293.983,232.085Z" transform="translate(-270.508 -184.674)"/><path class="e" d="M308.233,231.3a9.137,9.137,0,0,1-1.022,1.706A8.738,8.738,0,0,1,306,234.584a9.136,9.136,0,0,1,1.022-1.706A8.93,8.93,0,0,1,308.233,231.3Z" transform="translate(-278.951 -185.419)"/><path class="e" d="M285.549,213.68a6.887,6.887,0,0,1-1.288-1.2,7.15,7.15,0,0,1-1.121-1.352,6.794,6.794,0,0,1,1.288,1.2A7.076,7.076,0,0,1,285.549,213.68Z" transform="translate(-265.909 -173.851)"/><path class="e" d="M297,204.15a8.032,8.032,0,0,1-1.666,2.056A8.03,8.03,0,0,1,297,204.15Z" transform="translate(-272.864 -169.848)"/><path class="e" d="M280.606,201.166c-.047.047-.64-.512-1.464-1.066s-1.568-.9-1.542-.96a5.859,5.859,0,0,1,3.006,2.026Z" transform="translate(-262.748 -166.974)"/><path class="e" d="M248.77,189.741a4.26,4.26,0,0,1-.722-1.181,4.311,4.311,0,0,1-.528-1.279,8.639,8.639,0,0,1,1.25,2.465Z" transform="translate(-245.587 -160.172)"/><path class="e" d="M309.3,217.233a4.073,4.073,0,0,1-1.2-.516A3.937,3.937,0,0,1,307,216a7.645,7.645,0,0,1,2.3,1.228Z" transform="translate(-279.522 -176.644)"/><path class="e" d="M338.014,217.59A9.586,9.586,0,0,1,336,215.5a9.583,9.583,0,0,1,2.014,2.09Z" transform="translate(-296.067 -176.357)"/><path class="e" d="M347.264,219.53a11.079,11.079,0,0,1-1.19,1.906A11.358,11.358,0,0,1,344.7,223.2a11.077,11.077,0,0,1,1.19-1.889,11.354,11.354,0,0,1,1.374-1.778Z" transform="translate(-301.03 -178.669)"/><path class="e" d="M255.024,244.559A9.667,9.667,0,0,1,253.59,242,9.666,9.666,0,0,1,255.024,244.559Z" transform="translate(-249.051 -191.556)"/><path class="e" d="M293.043,251.6a11.562,11.562,0,0,1-3.152.38A11.56,11.56,0,0,1,293.043,251.6Z" transform="translate(-269.76 -197.059)"/><path class="e" d="M287.281,133.5a5.829,5.829,0,0,0,1.194,4.9c.709.853,1.718,1.6,1.843,2.7.172,1.424-1.241,2.725-.949,4.124.24,1.147,1.473,1.749,2.263,2.61a4.012,4.012,0,0,1,.481,4.631c-.661,1.117-1.928,2.085-1.752,3.369a6.754,6.754,0,0,0,.524,1.4,1.348,1.348,0,0,1-.146,1.412,1.643,1.643,0,0,1-.941.358,25.542,25.542,0,0,1-7.477,0l1.336-25.524Z" transform="translate(-265.441 -129.322)"/><path class="f" d="M265.087,145.941l-.687-15.63,6.249-4.691,5.682,2.755s.189,7.084,0,10.158a3.723,3.723,0,0,1-3.307,3.412s.073,1.8.142,3.689a4,4,0,0,1-1.14,2.95,4.056,4.056,0,0,1-2.936,1.217h0A4.033,4.033,0,0,1,265.087,145.941Z" transform="translate(-255.218 -124.808)"/><path class="e" d="M289.72,143.642a.4.4,0,1,1-.4-.392A.394.394,0,0,1,289.72,143.642Z" transform="translate(-269.212 -134.919)"/><path class="e" d="M289.573,142.525c-.052.047-.344-.2-.769-.222s-.747.183-.79.124.03-.115.172-.213a1.071,1.071,0,0,1,.636-.166,1.043,1.043,0,0,1,.61.243C289.56,142.4,289.6,142.5,289.573,142.525Z" transform="translate(-268.683 -134.229)"/><path class="e" d="M279.029,143.642a.4.4,0,0,1-.245.37.4.4,0,0,1-.437-.085.4.4,0,0,1-.086-.434.4.4,0,0,1,.372-.243A.394.394,0,0,1,279.029,143.642Z" transform="translate(-263.108 -134.919)"/><path class="e" d="M278.573,142.525c-.052.047-.344-.2-.769-.222s-.747.183-.79.124.03-.115.172-.213a1.071,1.071,0,0,1,.636-.166,1.056,1.056,0,0,1,.61.243C278.556,142.4,278.6,142.5,278.573,142.525Z" transform="translate(-262.407 -134.229)"/><path class="h" d="M279.067,162a7.767,7.767,0,0,1-4.1-1.377A4.2,4.2,0,0,0,279.1,162.8Z" transform="translate(-261.248 -144.882)"/><path class="e" d="M284.149,146.583a2.728,2.728,0,0,1,.7-.085c.107,0,.215,0,.236-.1a.6.6,0,0,0-.06-.341c-.095-.277-.189-.571-.292-.879-.2-.623-.378-1.19-.494-1.6a2.821,2.821,0,0,1-.159-.682,2.936,2.936,0,0,1,.275.644c.146.405.339.968.541,1.591.1.307.189.6.279.883a.657.657,0,0,1,.043.426.275.275,0,0,1-.18.154.762.762,0,0,1-.185,0A3.1,3.1,0,0,1,284.149,146.583Z" transform="translate(-266.445 -134.713)"/><path class="h" d="M282.762,152.39a1,1,0,0,0-.429.252.424.424,0,0,0-.107.456.465.465,0,0,0,.537.226.558.558,0,0,0,.391-.29.424.424,0,0,0-.052-.469.363.363,0,0,0-.455-.068" transform="translate(-265.372 -140.162)"/><path class="e" d="M283.237,152.967c0,.06-.348.158-.726-.06s-.485-.571-.43-.589.223.226.537.4S283.233,152.907,283.237,152.967Z" transform="translate(-265.298 -140.12)"/><path class="e" d="M265.973,124.277a7.336,7.336,0,0,0-6.424,1.892,7.219,7.219,0,0,0-2.165,6.3,8.1,8.1,0,0,1,.3,3.309c-.387,1.437-1.941,2.341-2.315,3.787-.46,1.774,1.039,3.506,1.005,5.344a12.492,12.492,0,0,1-.717,2.87,6.515,6.515,0,0,0,2.577,6.751,1.013,1.013,0,0,0,.5.213,1.088,1.088,0,0,0,.507-.136l6.825-3.092c-1.289-1.9-2.607-3.992-2.414-6.265.1-1.177.614-2.363.3-3.5a6.158,6.158,0,0,0-1.58-2.277,3.4,3.4,0,0,1-1.108-2.473c.112-1.053,1.091-1.9,1.078-2.985a6.591,6.591,0,0,0-.769-2.09,4.354,4.354,0,0,1,.515-3.6,12.934,12.934,0,0,1,2.487-2.81" transform="translate(-250.018 -123.964)"/><path class="e" d="M269.428,127.334a7.248,7.248,0,0,1-.6,1.9,1.556,1.556,0,0,0,.429,1.821,1.686,1.686,0,0,0,.511.213,5.522,5.522,0,0,0,2.345-.085l.1-1.744a2.335,2.335,0,0,0,.859,1.378,1.767,1.767,0,0,0,1.671.252,1.024,1.024,0,0,0,.587-.54,1.013,1.013,0,0,0,.018-.795,2.135,2.135,0,0,0,1.654,1.279,6.985,6.985,0,0,0,2.268-.047,2.258,2.258,0,0,1,.094-1.94,1.867,1.867,0,0,0-.1-1.915,6.636,6.636,0,0,0-.541-.426,5.607,5.607,0,0,1-.889-1.232,4.759,4.759,0,0,0-5.008-1.565,5.134,5.134,0,0,0-3.595,3.663" transform="translate(-257.682 -123.716)"/></g><g transform="translate(114.949 80.073)"><path class="e" d="M185.639,95.309a1.779,1.779,0,0,1-.24.026l-.7.051a8.107,8.107,0,0,0-1.134.154,6.191,6.191,0,0,0-.717.136l-.8.218a13.352,13.352,0,0,0-3.822,1.881,13.523,13.523,0,0,0-3.754,4.15,14.086,14.086,0,0,0-1.314,2.985,14.253,14.253,0,0,0-.576,3.484,15.072,15.072,0,0,0,.034,1.864,7.989,7.989,0,0,0,.125.942,6.532,6.532,0,0,0,.185.951,13.558,13.558,0,0,0,7.752,9.421,12.387,12.387,0,0,0,4.441.989,12.057,12.057,0,0,0,4.643-.665l.455-.162.06-.026.052.03,6.528,3.288-.193.166q-1.044-3.224-2.023-6.231v-.077l.056-.055a13.846,13.846,0,0,0,3.436-5.659,14.127,14.127,0,0,0,.494-6.022,13.827,13.827,0,0,0-4.66-8.687,12.771,12.771,0,0,0-5.94-2.862l-1.014-.171-.752-.051-.46-.034a.627.627,0,0,1-.155-.021h.618l.752.034,1.027.149a13.724,13.724,0,0,1,2.744.819,14.189,14.189,0,0,1,3.26,2.017,13.861,13.861,0,0,1,3.006,3.608,14.1,14.1,0,0,1,1.787,5.165,14.279,14.279,0,0,1-.485,6.128,14.054,14.054,0,0,1-3.475,5.77l.03-.136,2.031,6.226.1.316-.3-.149-6.528-3.288h.112l-.464.171a12.4,12.4,0,0,1-4.724.678,12.693,12.693,0,0,1-4.544-1.019,13.822,13.822,0,0,1-7.881-9.613,6.864,6.864,0,0,1-.185-.968c-.039-.324-.107-.64-.125-.964a15.519,15.519,0,0,1-.026-1.893,14.5,14.5,0,0,1,.6-3.535,14.135,14.135,0,0,1,1.349-3.019,13.648,13.648,0,0,1,3.835-4.179,13.165,13.165,0,0,1,3.865-1.855l.812-.209a6.169,6.169,0,0,1,.726-.124,7.171,7.171,0,0,1,1.142-.128l.709-.021Z" transform="translate(-172.359 -95.3)"/><path class="v" d="M199.467,117.02h-.953l-2.087-2.887v-1.894s-1.482-.09-1.288,2.392,0,1.847,0,1.847-3.14,0-3.4.286a31.976,31.976,0,0,0-.309,4.973,1.817,1.817,0,0,0,1.288,1.83,1.352,1.352,0,0,0,.339.047c.782,0,4.784-.635,4.784-.635h1.649Z" transform="translate(-183.236 -105.015)"/><path class="v" d="M213.569,122.23l-.588,6.5H211.34v-6.367Z" transform="translate(-194.598 -110.745)"/></g></g></svg>