<svg xmlns="http://www.w3.org/2000/svg" xmlns:xlink="http://www.w3.org/1999/xlink" width="259.003" height="245.252" viewBox="0 0 259.003 245.252"><defs><style>.a,.j{fill:#263238;}.a,.ac,.b,.c,.i,.t,.u,.v,.w,.x,.y,.z{stroke:#263238;}.a,.ac,.ad,.b,.c,.i,.m,.t,.u,.v,.w,.y,.z{stroke-linecap:round;stroke-linejoin:round;}.b,.e,.l,.n,.y{fill:#fff;}.c,.q{fill:#c6ff00;}.d,.u{fill:#f2ae40;}.e{opacity:0.7;}.f,.v{fill:#ef9d1a;}.g{opacity:0.5;}.h{fill:#eaa02a;}.ad,.i,.m,.w,.x,.z{fill:none;}.k{clip-path:url(#a);}.l,.p{opacity:0.2;}.m{stroke:#fff;}.o{clip-path:url(#b);}.p{fill:#f74e5a;}.r{clip-path:url(#c);}.s{opacity:0.37;}.t{fill:#d5890f;}.w{stroke-width:0.5px;}.x{stroke-miterlimit:10;}.y,.z{stroke-width:0.75px;}.aa{fill:#b20000;}.ab{clip-path:url(#d);}.ac{fill:#e72c3a;}.ad{stroke:#707070;}.ae{clip-path:url(#e);}</style><clipPath id="a"><rect class="a" width="113.411" height="221.32" rx="14.522"/></clipPath><clipPath id="b"><rect class="b" width="103.324" height="193.154"/></clipPath><clipPath id="c"><path class="c" d="M226.512,184.991s-1.91-3.686-4.232-5.051-7.371.955-7.371.955,3-3.139,5.46-3.822,6.006,2.184,6.006,2.184a34.468,34.468,0,0,0-1.365-5.6,37.18,37.18,0,0,0-3.822-7.507s4.914,3,6.006,5.051a35.573,35.573,0,0,1,2.048,5.187,29.377,29.377,0,0,1,1.5-5.051c.683-1.229,4.232-2.32,4.232-2.32s-2.32,3.14-2.593,4.5-.546,4.367-.546,4.367a11.907,11.907,0,0,1,3.549-1.911c1.638-.409,3.822,1.911,3.822,1.911a7.6,7.6,0,0,0-3.958.683c-1.911.956-3.958,8.327-3.958,8.327l-4.1-.41Z" transform="translate(-214.91 -166.154)"/></clipPath><clipPath id="d"><path class="c" d="M356.273,224.429l-7.46,1.4s-3.534,1.01-6.227,7.237-4.039,18.344-4.039,18.344l-1.515-2.02-3.2,3.534s5.217,10.266,7.573,10.6,6.563-6.563,6.563-6.563a76.292,76.292,0,0,1-2.356,10.6,64.847,64.847,0,0,0-3.859,21.542c0,11.287,6.72,26.421,8.4,31.975s1.515,10.434,2.861,15.988a134.774,134.774,0,0,1,2.188,15.315,62.821,62.821,0,0,1-4.544,4.376c-1.683,1.346-3.534,2.861-2.861,3.366s2.524.5,5.385-.337a39.6,39.6,0,0,0,7.237-2.693c1.01-.673,1.178-2.861,1.178-4.376s-.168-24.4-.168-24.4,11.612,19.185,11.612,21.71.841,11.107,2.861,11.78,3.2-3.2,3.2-6.9-2.693-8.246-2.693-8.246-1.851-14.136-3.2-19.522a87.744,87.744,0,0,0-3.871-11.275s10.434-18.68,11.444-30.293-4.88-26.927-4.88-26.927,5.385-12.958,5.554-21.541-2.861-10.1-6.4-11.612a19.562,19.562,0,0,0-5.76-1.661l-7.7-.7Z" transform="translate(-333.835 -223.135)"/></clipPath><clipPath id="e"><path class="c" d="M374.492,235.881l-3.7,16.661-23.51-7.245a24.462,24.462,0,0,0-2.911-7.4c-2.019-3.029-6.059-3.7-6.059-2.861s3.366,5.554,3.366,5.554-3.933-2.736-3.933-1.894,3.428,4.082,4.438,4.755,1.259,3.778,2.438,4.283,23.479,14.06,26,15.743,5.217-.5,5.554-1.178,6.295-10.427,9.088-17.334a13.231,13.231,0,0,0-3.534-15.146,18.388,18.388,0,0,0-3.871-2.188" transform="translate(-337.742 -227.635)"/></clipPath></defs><g transform="translate(350 -617)"><g transform="translate(-350 617)"><path class="d" d="M100.231,161.6s-9.693,42.76,18.332,80.256,76.546,52.314,115.553,65.357,75.37-1.48,88.83-34.26-14.279-50.67-20.651-93.643-1.591-55.306-30.218-88.181-86.926-32.482-126.126.821S100.231,161.6,100.231,161.6Z" transform="translate(-72.173 -66.724)"/><path class="e" d="M100.231,161.6s-9.693,42.76,18.332,80.256,76.546,52.314,115.553,65.357,75.37-1.48,88.83-34.26-14.279-50.67-20.651-93.643-1.591-55.306-30.218-88.181-86.926-32.482-126.126.821S100.231,161.6,100.231,161.6Z" transform="translate(-72.173 -66.724)"/><g transform="translate(0 131.923)"><path class="f" d="M125.431,297.915c.05,0-.974-3.718-1.062-3.943-1.012-2.6-4.269-6.871-6.977-6.394-1.951.345-3.067,2.683-2.66,4.86a7.188,7.188,0,0,0,3.966,4.693C120.64,298.118,125.428,297.915,125.431,297.915Z" transform="translate(-77.415 -270.817)"/><path class="f" d="M117.406,359.855c2.073,2.62,3.822,4.985,5.2,6.915l2.079-.466c-1.527-2.065-3.586-4.763-6.1-7.805-.9-1.1-1.89-2.251-2.912-3.422a45.53,45.53,0,0,0,2.2-4.228c1.989.553,5.956-.1,6.468-.19.232,1.505.446,2.973.628,4.362.59,4.417.959,8.174,1.2,10.952l1.8-.4c-.292-2.793-.73-6.534-1.4-10.927-.23-1.53-.5-3.159-.795-4.827.49-.239,4.489-2.213,5.9-3.96,1.281-1.584,2.555-4.013,2.283-6.273-.267-2.213-1.991-3.832-3.9-3.2-2.648.878-4.4,6.415-4.566,9.315-.01.171.057,2.035.115,3.21-.123-.681-.235-1.344-.368-2.042-.256-1.385-.546-2.756-.854-4.233q-.254-1.059-.514-2.14c-.158-.72-.4-1.453-.6-2.186-.5-1.69-1.069-3.371-1.678-5.048,1.024-.308,4.649-1.461,6.117-2.809s3.024-3.524,3.043-5.817c.02-2.246-1.471-4.166-3.428-3.882-2.716.394-5.142,5.577-5.676,8.426-.033.178-.224,2.267-.311,3.416-.372-1-.74-2.009-1.145-3.01-1.169-2.889-2.429-5.767-3.675-8.645-.382-.882-.753-1.765-1.129-2.648.366-.1,4.7-1.365,6.341-2.875,1.462-1.342,3.023-3.525,3.043-5.818.019-2.246-1.472-4.166-3.428-3.881-2.716.393-5.143,5.576-5.676,8.425-.04.215-.312,3.221-.349,3.989-.825-1.945-1.632-3.894-2.361-5.855a74.18,74.18,0,0,1-2.542-8.149c.17-.048,4.695-1.34,6.38-2.886,1.461-1.342,3.023-3.524,3.043-5.818.019-2.246-1.471-4.166-3.428-3.882-2.716.394-5.143,5.577-5.676,8.426-.035.187-.244,2.476-.322,3.568l-.156.022A57.331,57.331,0,0,1,109,294.9c-.129-1.612-.176-3.163-.193-4.675.861-.138,4.79-.822,6.43-2.018a8.311,8.311,0,0,0,3.551-5.4c.226-2.238-1.073-4.347-3.037-4.321-2.726.037-5.609,4.889-6.4,7.66-.043.151-.339,1.736-.542,2.893,0-.683-.008-1.387,0-2.041.04-2.458.2-4.709.361-6.7.1-1.133.205-2.155.314-3.112.8-.658,3.99-3.361,4.988-5.272.973-1.865,1.787-4.549,1.111-6.67-.662-2.079-2.649-3.208-4.409-2.1-2.444,1.53-3.166,7.35-2.807,10.207.032.247.891,4.026.932,3.993l.048-.04c-.12.918-.24,1.9-.352,2.983-.2,1.995-.4,4.25-.485,6.718s-.129,5.146.043,7.965a58.378,58.378,0,0,0,1.11,8.773c.007.033.019.067.026.1-.417-.8-1.647-2.974-1.758-3.128-1.561-2.169-5.675-5.228-8.2-3.918-1.821.944-2.388,3.532-1.509,5.486.9,2,3.1,2.955,4.9,3.239,2.024.32,6.316-1.223,6.658-1.347a75,75,0,0,0,2.465,8.5c.564,1.612,1.175,3.213,1.8,4.808-.38-.674-.724-1.273-.78-1.35-1.561-2.169-5.675-5.228-8.2-3.919-1.822.944-2.388,3.531-1.51,5.486.9,2,3.1,2.955,4.9,3.239,1.821.288,5.5-.94,6.47-1.281.247.609.488,1.22.737,1.827,1.194,2.915,2.4,5.819,3.5,8.711.39,1.019.742,2.041,1.1,3.062-.338-.6-.627-1.1-.677-1.169-1.561-2.17-5.675-5.228-8.2-3.918-1.821.943-2.388,3.531-1.509,5.486.9,1.995,3.1,2.955,4.9,3.239,1.737.275,5.142-.823,6.3-1.221.337,1.06.676,2.12.962,3.166.182.72.4,1.4.547,2.134s.318,1.443.475,2.153c.259,1.384.534,2.81.758,4.169.162.943.3,1.846.444,2.755-.378-1.021-1.153-3-1.234-3.154A12.942,12.942,0,0,0,118.321,342a4.372,4.372,0,0,0-.421-.673,2.894,2.894,0,0,0-4.8-.051c-1.846,2.458-.771,8.135.429,10.615.071.146.991,1.625,1.584,2.547-.419-.476-.822-.944-1.259-1.427-.859-.963-1.741-1.892-2.687-2.9l-1.428-1.41c-.468-.483-1.016-.921-1.527-1.389-1.2-1.054-2.471-2.051-3.766-3.021.729-.925,3.28-4.251,3.905-6.319s.94-4.869-.1-6.756c-1.023-1.848-3.18-2.437-4.714-.918-2.129,2.108-1.794,7.94-.928,10.619.054.167.858,2,1.317,3-.783-.576-1.561-1.155-2.369-1.706-2.333-1.592-4.738-3.115-7.131-4.647-.734-.469-1.458-.947-2.187-1.422.263-.326,3.364-4.2,4.065-6.52.623-2.058.94-4.869-.105-6.756-1.023-1.848-3.181-2.437-4.714-.918-2.129,2.108-1.794,7.94-.928,10.619.065.2,1.227,2.837,1.55,3.489-1.6-1.047-3.191-2.108-4.72-3.232a55.543,55.543,0,0,1-5.937-4.988c.123-.151,3.375-4.183,4.092-6.555.623-2.058.94-4.868-.105-6.756-1.024-1.848-3.181-2.437-4.714-.918-2.129,2.108-1.794,7.94-.928,10.619.057.176.94,2.186,1.379,3.128l-.121.12a44.61,44.61,0,0,1-5.081-6.244c-.856-1.232-1.615-2.469-2.329-3.693.668-.679,3.695-3.822,4.536-5.879.806-1.971,1.381-4.733.519-6.752-.843-1.977-2.926-2.847-4.585-1.533-2.3,1.824-2.509,7.684-1.9,10.469.033.151.515,1.641.878,2.721-.315-.559-.649-1.128-.942-1.671-1.1-2.034-2.008-3.982-2.8-5.715-.442-.99-.824-1.9-1.175-2.749.374-1.064,1.839-5.371,1.8-7.589-.035-2.164-.586-4.892-2.143-6.182a2.986,2.986,0,0,0-4.728,1.181c-1.371,2.858.711,8.089,2.339,10.187.141.181,2.623,2.7,2.643,2.649,0,0,.018-.052.023-.064.322.829.677,1.713,1.081,2.669.758,1.758,1.628,3.736,2.7,5.808a67.18,67.18,0,0,0,3.725,6.48,45.8,45.8,0,0,0,5.008,6.44c.022.023.047.043.069.066-.724-.376-2.779-1.347-2.944-1.4-2.333-.746-7.251-.539-8.8,2.194a4.158,4.158,0,0,0,1.256,5.476c1.688,1.041,4.008.374,5.667-.574,1.871-1.07,4.809-5.154,5.041-5.48a56.469,56.469,0,0,0,6.036,5.326c1.226.946,2.487,1.853,3.762,2.742-.635-.3-1.206-.565-1.288-.592-2.333-.746-7.251-.538-8.8,2.195a4.156,4.156,0,0,0,1.256,5.475c1.688,1.041,4.009.374,5.667-.574,1.684-.963,4.245-4.387,4.913-5.3.492.335.98.676,1.473,1.008,2.366,1.6,4.734,3.179,7.013,4.816.8.576,1.577,1.18,2.352,1.78-.564-.267-1.042-.486-1.118-.51-2.333-.746-7.25-.539-8.795,2.194a4.159,4.159,0,0,0,1.256,5.476c1.688,1.039,4.009.373,5.667-.575,1.606-.918,3.995-4.054,4.792-5.139.778.644,1.558,1.287,2.285,1.954.488.469.986.879,1.453,1.383l1.4,1.448c.862.961,1.756,1.945,2.576,2.908.575.664,1.112,1.311,1.655,1.96-.794-.586-2.37-1.691-2.511-1.766-2.2-1.162-7.065-1.845-8.932.59a4.3,4.3,0,0,0,.539,5.664c1.529,1.338,3.9,1.1,5.649.454,1.929-.707,5.218-4.077,5.627-4.5C115.746,357.781,116.608,358.84,117.406,359.855Z" transform="translate(-60.424 -262.698)"/><path class="f" d="M65.951,345.7c2.109-.469,6.089-3.785,6.092-3.787.041-.035-2.551-2.4-2.729-2.524-2.066-1.459-6.815-2.806-8.9-.635a4.356,4.356,0,0,0-.013,5.721C61.787,346.021,64.154,346.1,65.951,345.7Z" transform="translate(-59.338 -287.184)"/><g class="g"><path class="f" d="M125.431,297.915c.05,0-.974-3.718-1.062-3.943-1.012-2.6-4.269-6.871-6.977-6.394-1.951.345-3.067,2.683-2.66,4.86a7.188,7.188,0,0,0,3.966,4.693C120.64,298.118,125.428,297.915,125.431,297.915Z" transform="translate(-77.415 -270.817)"/><path class="f" d="M117.406,359.855c2.073,2.62,3.822,4.985,5.2,6.915l2.079-.466c-1.527-2.065-3.586-4.763-6.1-7.805-.9-1.1-1.89-2.251-2.912-3.422a45.53,45.53,0,0,0,2.2-4.228c1.989.553,5.956-.1,6.468-.19.232,1.505.446,2.973.628,4.362.59,4.417.959,8.174,1.2,10.952l1.8-.4c-.292-2.793-.73-6.534-1.4-10.927-.23-1.53-.5-3.159-.795-4.827.49-.239,4.489-2.213,5.9-3.96,1.281-1.584,2.555-4.013,2.283-6.273-.267-2.213-1.991-3.832-3.9-3.2-2.648.878-4.4,6.415-4.566,9.315-.01.171.057,2.035.115,3.21-.123-.681-.235-1.344-.368-2.042-.256-1.385-.546-2.756-.854-4.233q-.254-1.059-.514-2.14c-.158-.72-.4-1.453-.6-2.186-.5-1.69-1.069-3.371-1.678-5.048,1.024-.308,4.649-1.461,6.117-2.809s3.024-3.524,3.043-5.817c.02-2.246-1.471-4.166-3.428-3.882-2.716.394-5.142,5.577-5.676,8.426-.033.178-.224,2.267-.311,3.416-.372-1-.74-2.009-1.145-3.01-1.169-2.889-2.429-5.767-3.675-8.645-.382-.882-.753-1.765-1.129-2.648.366-.1,4.7-1.365,6.341-2.875,1.462-1.342,3.023-3.525,3.043-5.818.019-2.246-1.472-4.166-3.428-3.881-2.716.393-5.143,5.576-5.676,8.425-.04.215-.312,3.221-.349,3.989-.825-1.945-1.632-3.894-2.361-5.855a74.18,74.18,0,0,1-2.542-8.149c.17-.048,4.695-1.34,6.38-2.886,1.461-1.342,3.023-3.524,3.043-5.818.019-2.246-1.471-4.166-3.428-3.882-2.716.394-5.143,5.577-5.676,8.426-.035.187-.244,2.476-.322,3.568l-.156.022A57.331,57.331,0,0,1,109,294.9c-.129-1.612-.176-3.163-.193-4.675.861-.138,4.79-.822,6.43-2.018a8.311,8.311,0,0,0,3.551-5.4c.226-2.238-1.073-4.347-3.037-4.321-2.726.037-5.609,4.889-6.4,7.66-.043.151-.339,1.736-.542,2.893,0-.683-.008-1.387,0-2.041.04-2.458.2-4.709.361-6.7.1-1.133.205-2.155.314-3.112.8-.658,3.99-3.361,4.988-5.272.973-1.865,1.787-4.549,1.111-6.67-.662-2.079-2.649-3.208-4.409-2.1-2.444,1.53-3.166,7.35-2.807,10.207.032.247.891,4.026.932,3.993l.048-.04c-.12.918-.24,1.9-.352,2.983-.2,1.995-.4,4.25-.485,6.718s-.129,5.146.043,7.965a58.378,58.378,0,0,0,1.11,8.773c.007.033.019.067.026.1-.417-.8-1.647-2.974-1.758-3.128-1.561-2.169-5.675-5.228-8.2-3.918-1.821.944-2.388,3.532-1.509,5.486.9,2,3.1,2.955,4.9,3.239,2.024.32,6.316-1.223,6.658-1.347a75,75,0,0,0,2.465,8.5c.564,1.612,1.175,3.213,1.8,4.808-.38-.674-.724-1.273-.78-1.35-1.561-2.169-5.675-5.228-8.2-3.919-1.822.944-2.388,3.531-1.51,5.486.9,2,3.1,2.955,4.9,3.239,1.821.288,5.5-.94,6.47-1.281.247.609.488,1.22.737,1.827,1.194,2.915,2.4,5.819,3.5,8.711.39,1.019.742,2.041,1.1,3.062-.338-.6-.627-1.1-.677-1.169-1.561-2.17-5.675-5.228-8.2-3.918-1.821.943-2.388,3.531-1.509,5.486.9,1.995,3.1,2.955,4.9,3.239,1.737.275,5.142-.823,6.3-1.221.337,1.06.676,2.12.962,3.166.182.72.4,1.4.547,2.134s.318,1.443.475,2.153c.259,1.384.534,2.81.758,4.169.162.943.3,1.846.444,2.755-.378-1.021-1.153-3-1.234-3.154A12.942,12.942,0,0,0,118.321,342a4.372,4.372,0,0,0-.421-.673,2.894,2.894,0,0,0-4.8-.051c-1.846,2.458-.771,8.135.429,10.615.071.146.991,1.625,1.584,2.547-.419-.476-.822-.944-1.259-1.427-.859-.963-1.741-1.892-2.687-2.9l-1.428-1.41c-.468-.483-1.016-.921-1.527-1.389-1.2-1.054-2.471-2.051-3.766-3.021.729-.925,3.28-4.251,3.905-6.319s.94-4.869-.1-6.756c-1.023-1.848-3.18-2.437-4.714-.918-2.129,2.108-1.794,7.94-.928,10.619.054.167.858,2,1.317,3-.783-.576-1.561-1.155-2.369-1.706-2.333-1.592-4.738-3.115-7.131-4.647-.734-.469-1.458-.947-2.187-1.422.263-.326,3.364-4.2,4.065-6.52.623-2.058.94-4.869-.105-6.756-1.023-1.848-3.181-2.437-4.714-.918-2.129,2.108-1.794,7.94-.928,10.619.065.2,1.227,2.837,1.55,3.489-1.6-1.047-3.191-2.108-4.72-3.232a55.543,55.543,0,0,1-5.937-4.988c.123-.151,3.375-4.183,4.092-6.555.623-2.058.94-4.868-.105-6.756-1.024-1.848-3.181-2.437-4.714-.918-2.129,2.108-1.794,7.94-.928,10.619.057.176.94,2.186,1.379,3.128l-.121.12a44.61,44.61,0,0,1-5.081-6.244c-.856-1.232-1.615-2.469-2.329-3.693.668-.679,3.695-3.822,4.536-5.879.806-1.971,1.381-4.733.519-6.752-.843-1.977-2.926-2.847-4.585-1.533-2.3,1.824-2.509,7.684-1.9,10.469.033.151.515,1.641.878,2.721-.315-.559-.649-1.128-.942-1.671-1.1-2.034-2.008-3.982-2.8-5.715-.442-.99-.824-1.9-1.175-2.749.374-1.064,1.839-5.371,1.8-7.589-.035-2.164-.586-4.892-2.143-6.182a2.986,2.986,0,0,0-4.728,1.181c-1.371,2.858.711,8.089,2.339,10.187.141.181,2.623,2.7,2.643,2.649,0,0,.018-.052.023-.064.322.829.677,1.713,1.081,2.669.758,1.758,1.628,3.736,2.7,5.808a67.18,67.18,0,0,0,3.725,6.48,45.8,45.8,0,0,0,5.008,6.44c.022.023.047.043.069.066-.724-.376-2.779-1.347-2.944-1.4-2.333-.746-7.251-.539-8.8,2.194a4.158,4.158,0,0,0,1.256,5.476c1.688,1.041,4.008.374,5.667-.574,1.871-1.07,4.809-5.154,5.041-5.48a56.469,56.469,0,0,0,6.036,5.326c1.226.946,2.487,1.853,3.762,2.742-.635-.3-1.206-.565-1.288-.592-2.333-.746-7.251-.538-8.8,2.195a4.156,4.156,0,0,0,1.256,5.475c1.688,1.041,4.009.374,5.667-.574,1.684-.963,4.245-4.387,4.913-5.3.492.335.98.676,1.473,1.008,2.366,1.6,4.734,3.179,7.013,4.816.8.576,1.577,1.18,2.352,1.78-.564-.267-1.042-.486-1.118-.51-2.333-.746-7.25-.539-8.795,2.194a4.159,4.159,0,0,0,1.256,5.476c1.688,1.039,4.009.373,5.667-.575,1.606-.918,3.995-4.054,4.792-5.139.778.644,1.558,1.287,2.285,1.954.488.469.986.879,1.453,1.383l1.4,1.448c.862.961,1.756,1.945,2.576,2.908.575.664,1.112,1.311,1.655,1.96-.794-.586-2.37-1.691-2.511-1.766-2.2-1.162-7.065-1.845-8.932.59a4.3,4.3,0,0,0,.539,5.664c1.529,1.338,3.9,1.1,5.649.454,1.929-.707,5.218-4.077,5.627-4.5C115.746,357.781,116.608,358.84,117.406,359.855Z" transform="translate(-60.424 -262.698)"/><path class="f" d="M65.951,345.7c2.109-.469,6.089-3.785,6.092-3.787.041-.035-2.551-2.4-2.729-2.524-2.066-1.459-6.815-2.806-8.9-.635a4.356,4.356,0,0,0-.013,5.721C61.787,346.021,64.154,346.1,65.951,345.7Z" transform="translate(-59.338 -287.184)"/></g></g><g transform="translate(13.038 54.913)"><path class="f" d="M116.283,172.943c.032-.012-1.417-2.16-1.521-2.285-1.2-1.441-4.192-3.465-5.816-2.58-1.17.637-1.381,2.366-.654,3.667a4.834,4.834,0,0,0,3.533,2.141C113.273,174.1,116.281,172.944,116.283,172.943Z" transform="translate(-88.238 -154.692)"/><path class="f" d="M127.471,209.28c1.882,1.227,3.5,2.359,4.8,3.292l1.226-.742c-1.415-.989-3.306-2.267-5.562-3.667-.812-.507-1.687-1.03-2.589-1.558a30.356,30.356,0,0,0,.5-3.166,13.382,13.382,0,0,0,4.081-1.507c.47.91.921,1.8,1.335,2.646,1.322,2.689,2.361,5,3.107,6.724l1.06-.642c-.784-1.717-1.865-4.008-3.233-6.664-.475-.926-1-1.906-1.541-2.906a14.982,14.982,0,0,0,2.913-3.787,6.119,6.119,0,0,0,.111-4.487c-.644-1.353-2.089-2.016-3.169-1.205-1.5,1.126-1.429,5.031-.915,6.915.03.111.473,1.284.761,2.021-.224-.408-.438-.806-.672-1.223-.46-.827-.938-1.639-1.451-2.515l-.786-1.253c-.255-.425-.568-.839-.853-1.264-.679-.971-1.4-1.919-2.151-2.858a13.329,13.329,0,0,0,3.3-3.1,5.835,5.835,0,0,0,.693-4.359c-.469-1.436-1.83-2.34-3.016-1.74-1.647.832-2.083,4.656-1.813,6.586.017.12.343,1.493.533,2.244-.452-.561-.9-1.122-1.375-1.673-1.364-1.591-2.783-3.155-4.193-4.723-.433-.479-.858-.963-1.287-1.446a14.035,14.035,0,0,0,3.426-3.19,5.837,5.837,0,0,0,.693-4.36c-.469-1.435-1.83-2.34-3.016-1.739-1.647.832-2.083,4.656-1.813,6.586.02.145.491,2.119.631,2.617-.942-1.063-1.874-2.132-2.759-3.226a49.807,49.807,0,0,1-3.365-4.649c.1-.067,2.7-1.859,3.447-3.206a5.837,5.837,0,0,0,.693-4.36c-.469-1.435-1.83-2.34-3.016-1.74-1.647.833-2.083,4.656-1.813,6.586.017.127.375,1.63.559,2.342l-.094.048a38.617,38.617,0,0,1-2.657-5.246c-.427-1-.789-1.978-1.124-2.938a13.028,13.028,0,0,0,3.665-2.664,5.587,5.587,0,0,0,1.106-4.2c-.335-1.474-1.616-2.541-2.861-2.1-1.73.607-2.528,4.316-2.438,6.252,0,.106.155,1.179.274,1.96-.145-.436-.3-.882-.435-1.3-.5-1.575-.879-3.045-1.206-4.349-.18-.742-.331-1.418-.467-2.05a16.409,16.409,0,0,0,2.05-4.429,6.352,6.352,0,0,0-.721-4.489c-.867-1.183-2.376-1.477-3.261-.4-1.229,1.5-.443,5.363.4,7.106.073.151,1.43,2.376,1.449,2.345l.023-.036c.12.611.254,1.265.414,1.977.3,1.313.656,2.794,1.13,4.385s1.02,3.307,1.733,5.067a39.238,39.238,0,0,0,2.587,5.354c.011.02.026.039.038.059-.436-.419-1.687-1.543-1.79-1.618-1.459-1.048-4.737-2.116-6.068-.74a2.885,2.885,0,0,0,.213,3.819,4.26,4.26,0,0,0,3.815,1.016c1.358-.23,3.764-2.133,3.954-2.285a50.589,50.589,0,0,0,3.392,4.89c.7.907,1.437,1.8,2.18,2.678-.386-.348-.734-.656-.786-.693-1.46-1.048-4.737-2.116-6.068-.74a2.886,2.886,0,0,0,.213,3.82,4.26,4.26,0,0,0,3.815,1.015c1.222-.206,3.3-1.777,3.85-2.2.287.335.572.674.861,1.007,1.385,1.6,2.773,3.2,4.1,4.8.467.566.909,1.142,1.355,1.717-.343-.309-.635-.566-.682-.6-1.46-1.049-4.737-2.116-6.068-.74a2.886,2.886,0,0,0,.213,3.82,4.26,4.26,0,0,0,3.815,1.015,12,12,0,0,0,3.752-2.127c.441.6.885,1.206,1.291,1.812.27.42.553.8.806,1.243l.763,1.271c.462.827.942,1.676,1.376,2.495.306.566.588,1.112.874,1.661-.459-.57-1.377-1.664-1.462-1.746a8.7,8.7,0,0,0-4.035-2.1,2.926,2.926,0,0,0-.413-.339,1.945,1.945,0,0,0-3.069.995c-.65,1.962,1.251,5.35,2.547,6.673.076.078.979.824,1.555,1.284-.37-.213-.726-.425-1.109-.64-.753-.429-1.515-.833-2.333-1.272l-1.212-.593c-.4-.207-.845-.369-1.271-.558-.994-.414-2.014-.778-3.047-1.119a17.871,17.871,0,0,0,1.136-4.864,6.335,6.335,0,0,0-1.514-4.283,1.949,1.949,0,0,0-3.2.424c-.9,1.8.557,5.445,1.684,6.967.07.1.975,1.091,1.481,1.627-.622-.2-1.242-.4-1.875-.58-1.828-.514-3.687-.97-5.54-1.434-.568-.142-1.132-.291-1.7-.438a18.827,18.827,0,0,0,1.194-5.026,6.335,6.335,0,0,0-1.513-4.283,1.949,1.949,0,0,0-3.2.425c-.9,1.8.557,5.445,1.683,6.967.085.114,1.389,1.546,1.735,1.892-1.246-.324-2.486-.66-3.7-1.049a37.261,37.261,0,0,1-4.852-1.907,19.124,19.124,0,0,0,1.2-5.053,6.331,6.331,0,0,0-1.514-4.283,1.948,1.948,0,0,0-3.2.425c-.905,1.8.557,5.445,1.683,6.967.074.1,1.068,1.191,1.549,1.7l-.051.1a30.021,30.021,0,0,1-4.576-2.891c-.809-.6-1.558-1.228-2.275-1.855a17.386,17.386,0,0,0,1.632-4.718,6.378,6.378,0,0,0-1.115-4.415,1.975,1.975,0,0,0-3.251.005c-1.077,1.655.047,5.434,1.033,7.079.053.09.68.936,1.142,1.546-.32-.289-.655-.58-.958-.863-1.14-1.06-2.133-2.107-3.007-3.043-.493-.536-.932-1.032-1.338-1.5a20.356,20.356,0,0,0-.477-5.223c-.486-1.372-1.421-2.992-2.69-3.481a2.008,2.008,0,0,0-2.761,1.765c-.261,2.115,2.186,5,3.673,5.991.129.085,2.25,1.163,2.252,1.123V185.9c.383.459.8.946,1.261,1.47.86.958,1.838,2.032,2.965,3.124a45.161,45.161,0,0,0,3.762,3.332,30.888,30.888,0,0,0,4.571,3.031c.019.01.04.018.058.027-.542-.085-2.059-.263-2.176-.261-1.647.024-4.736,1.21-5.136,3.282a2.8,2.8,0,0,0,1.973,3.221c1.3.3,2.635-.621,3.489-1.58.964-1.082,1.961-4.315,2.04-4.573a38.017,38.017,0,0,0,4.987,2.1c.984.341,1.982.648,2.985.942-.469-.056-.889-.1-.948-.1-1.647.024-4.736,1.21-5.136,3.282a2.8,2.8,0,0,0,1.973,3.22c1.3.3,2.635-.621,3.49-1.58a16.429,16.429,0,0,0,2-4.432c.385.108.769.221,1.155.327,1.85.512,3.7,1.012,5.5,1.568.635.195,1.257.414,1.88.631-.417-.049-.768-.086-.821-.086-1.647.024-4.737,1.21-5.136,3.282a2.8,2.8,0,0,0,1.973,3.221c1.3.3,2.635-.621,3.489-1.58a15.751,15.751,0,0,0,1.954-4.3c.633.244,1.268.487,1.875.756.412.195.817.349,1.223.571l1.2.623c.755.427,1.535.864,2.265,1.3.509.3.99.6,1.474.894-.631-.2-1.873-.57-1.978-.587-1.651-.27-4.9.337-5.566,2.289a2.888,2.888,0,0,0,1.557,3.494,3.866,3.866,0,0,0,3.7-.921c1.078-.864,2.453-3.717,2.623-4.074C125.969,208.314,126.745,208.8,127.471,209.28Z" transform="translate(-78.705 -148.299)"/><path class="f" d="M88.615,215.915c1.244-.751,3.07-3.717,3.072-3.719.019-.031-2.139-.981-2.28-1.024-1.63-.488-4.944-.329-5.807,1.5a2.929,2.929,0,0,0,1.217,3.649A3.891,3.891,0,0,0,88.615,215.915Z" transform="translate(-80.227 -168.771)"/><g class="g"><path class="f" d="M116.283,172.943c.032-.012-1.417-2.16-1.521-2.285-1.2-1.441-4.192-3.465-5.816-2.58-1.17.637-1.381,2.366-.654,3.667a4.834,4.834,0,0,0,3.533,2.141C113.273,174.1,116.281,172.944,116.283,172.943Z" transform="translate(-88.238 -154.692)"/><path class="f" d="M127.471,209.28c1.882,1.227,3.5,2.359,4.8,3.292l1.226-.742c-1.415-.989-3.306-2.267-5.562-3.667-.812-.507-1.687-1.03-2.589-1.558a30.356,30.356,0,0,0,.5-3.166,13.382,13.382,0,0,0,4.081-1.507c.47.91.921,1.8,1.335,2.646,1.322,2.689,2.361,5,3.107,6.724l1.06-.642c-.784-1.717-1.865-4.008-3.233-6.664-.475-.926-1-1.906-1.541-2.906a14.982,14.982,0,0,0,2.913-3.787,6.119,6.119,0,0,0,.111-4.487c-.644-1.353-2.089-2.016-3.169-1.205-1.5,1.126-1.429,5.031-.915,6.915.03.111.473,1.284.761,2.021-.224-.408-.438-.806-.672-1.223-.46-.827-.938-1.639-1.451-2.515l-.786-1.253c-.255-.425-.568-.839-.853-1.264-.679-.971-1.4-1.919-2.151-2.858a13.329,13.329,0,0,0,3.3-3.1,5.835,5.835,0,0,0,.693-4.359c-.469-1.436-1.83-2.34-3.016-1.74-1.647.832-2.083,4.656-1.813,6.586.017.12.343,1.493.533,2.244-.452-.561-.9-1.122-1.375-1.673-1.364-1.591-2.783-3.155-4.193-4.723-.433-.479-.858-.963-1.287-1.446a14.035,14.035,0,0,0,3.426-3.19,5.837,5.837,0,0,0,.693-4.36c-.469-1.435-1.83-2.34-3.016-1.739-1.647.832-2.083,4.656-1.813,6.586.02.145.491,2.119.631,2.617-.942-1.063-1.874-2.132-2.759-3.226a49.807,49.807,0,0,1-3.365-4.649c.1-.067,2.7-1.859,3.447-3.206a5.837,5.837,0,0,0,.693-4.36c-.469-1.435-1.83-2.34-3.016-1.74-1.647.833-2.083,4.656-1.813,6.586.017.127.375,1.63.559,2.342l-.094.048a38.617,38.617,0,0,1-2.657-5.246c-.427-1-.789-1.978-1.124-2.938a13.028,13.028,0,0,0,3.665-2.664,5.587,5.587,0,0,0,1.106-4.2c-.335-1.474-1.616-2.541-2.861-2.1-1.73.607-2.528,4.316-2.438,6.252,0,.106.155,1.179.274,1.96-.145-.436-.3-.882-.435-1.3-.5-1.575-.879-3.045-1.206-4.349-.18-.742-.331-1.418-.467-2.05a16.409,16.409,0,0,0,2.05-4.429,6.352,6.352,0,0,0-.721-4.489c-.867-1.183-2.376-1.477-3.261-.4-1.229,1.5-.443,5.363.4,7.106.073.151,1.43,2.376,1.449,2.345l.023-.036c.12.611.254,1.265.414,1.977.3,1.313.656,2.794,1.13,4.385s1.02,3.307,1.733,5.067a39.238,39.238,0,0,0,2.587,5.354c.011.02.026.039.038.059-.436-.419-1.687-1.543-1.79-1.618-1.459-1.048-4.737-2.116-6.068-.74a2.885,2.885,0,0,0,.213,3.819,4.26,4.26,0,0,0,3.815,1.016c1.358-.23,3.764-2.133,3.954-2.285a50.589,50.589,0,0,0,3.392,4.89c.7.907,1.437,1.8,2.18,2.678-.386-.348-.734-.656-.786-.693-1.46-1.048-4.737-2.116-6.068-.74a2.886,2.886,0,0,0,.213,3.82,4.26,4.26,0,0,0,3.815,1.015c1.222-.206,3.3-1.777,3.85-2.2.287.335.572.674.861,1.007,1.385,1.6,2.773,3.2,4.1,4.8.467.566.909,1.142,1.355,1.717-.343-.309-.635-.566-.682-.6-1.46-1.049-4.737-2.116-6.068-.74a2.886,2.886,0,0,0,.213,3.82,4.26,4.26,0,0,0,3.815,1.015,12,12,0,0,0,3.752-2.127c.441.6.885,1.206,1.291,1.812.27.42.553.8.806,1.243l.763,1.271c.462.827.942,1.676,1.376,2.495.306.566.588,1.112.874,1.661-.459-.57-1.377-1.664-1.462-1.746a8.7,8.7,0,0,0-4.035-2.1,2.926,2.926,0,0,0-.413-.339,1.945,1.945,0,0,0-3.069.995c-.65,1.962,1.251,5.35,2.547,6.673.076.078.979.824,1.555,1.284-.37-.213-.726-.425-1.109-.64-.753-.429-1.515-.833-2.333-1.272l-1.212-.593c-.4-.207-.845-.369-1.271-.558-.994-.414-2.014-.778-3.047-1.119a17.871,17.871,0,0,0,1.136-4.864,6.335,6.335,0,0,0-1.514-4.283,1.949,1.949,0,0,0-3.2.424c-.9,1.8.557,5.445,1.684,6.967.07.1.975,1.091,1.481,1.627-.622-.2-1.242-.4-1.875-.58-1.828-.514-3.687-.97-5.54-1.434-.568-.142-1.132-.291-1.7-.438a18.827,18.827,0,0,0,1.194-5.026,6.335,6.335,0,0,0-1.513-4.283,1.949,1.949,0,0,0-3.2.425c-.9,1.8.557,5.445,1.683,6.967.085.114,1.389,1.546,1.735,1.892-1.246-.324-2.486-.66-3.7-1.049a37.261,37.261,0,0,1-4.852-1.907,19.124,19.124,0,0,0,1.2-5.053,6.331,6.331,0,0,0-1.514-4.283,1.948,1.948,0,0,0-3.2.425c-.905,1.8.557,5.445,1.683,6.967.074.1,1.068,1.191,1.549,1.7l-.051.1a30.021,30.021,0,0,1-4.576-2.891c-.809-.6-1.558-1.228-2.275-1.855a17.386,17.386,0,0,0,1.632-4.718,6.378,6.378,0,0,0-1.115-4.415,1.975,1.975,0,0,0-3.251.005c-1.077,1.655.047,5.434,1.033,7.079.053.09.68.936,1.142,1.546-.32-.289-.655-.58-.958-.863-1.14-1.06-2.133-2.107-3.007-3.043-.493-.536-.932-1.032-1.338-1.5a20.356,20.356,0,0,0-.477-5.223c-.486-1.372-1.421-2.992-2.69-3.481a2.008,2.008,0,0,0-2.761,1.765c-.261,2.115,2.186,5,3.673,5.991.129.085,2.25,1.163,2.252,1.123V185.9c.383.459.8.946,1.261,1.47.86.958,1.838,2.032,2.965,3.124a45.161,45.161,0,0,0,3.762,3.332,30.888,30.888,0,0,0,4.571,3.031c.019.01.04.018.058.027-.542-.085-2.059-.263-2.176-.261-1.647.024-4.736,1.21-5.136,3.282a2.8,2.8,0,0,0,1.973,3.221c1.3.3,2.635-.621,3.489-1.58.964-1.082,1.961-4.315,2.04-4.573a38.017,38.017,0,0,0,4.987,2.1c.984.341,1.982.648,2.985.942-.469-.056-.889-.1-.948-.1-1.647.024-4.736,1.21-5.136,3.282a2.8,2.8,0,0,0,1.973,3.22c1.3.3,2.635-.621,3.49-1.58a16.429,16.429,0,0,0,2-4.432c.385.108.769.221,1.155.327,1.85.512,3.7,1.012,5.5,1.568.635.195,1.257.414,1.88.631-.417-.049-.768-.086-.821-.086-1.647.024-4.737,1.21-5.136,3.282a2.8,2.8,0,0,0,1.973,3.221c1.3.3,2.635-.621,3.489-1.58a15.751,15.751,0,0,0,1.954-4.3c.633.244,1.268.487,1.875.756.412.195.817.349,1.223.571l1.2.623c.755.427,1.535.864,2.265,1.3.509.3.99.6,1.474.894-.631-.2-1.873-.57-1.978-.587-1.651-.27-4.9.337-5.566,2.289a2.888,2.888,0,0,0,1.557,3.494,3.866,3.866,0,0,0,3.7-.921c1.078-.864,2.453-3.717,2.623-4.074C125.969,208.314,126.745,208.8,127.471,209.28Z" transform="translate(-78.705 -148.299)"/><path class="f" d="M88.615,215.915c1.244-.751,3.07-3.717,3.072-3.719.019-.031-2.139-.981-2.28-1.024-1.63-.488-4.944-.329-5.807,1.5a2.929,2.929,0,0,0,1.217,3.649A3.891,3.891,0,0,0,88.615,215.915Z" transform="translate(-80.227 -168.771)"/></g></g><g transform="translate(140.648 4.249)"><path class="h" d="M358.858,117.814c.035.04,2.416-3.286,2.543-3.508,1.47-2.571,2.818-8.11.615-10.025-1.587-1.379-4.261-.738-5.785,1.051a7.628,7.628,0,0,0-1.223,6.4C355.49,114,358.855,117.812,358.858,117.814Z" transform="translate(-296.552 -83.004)"/><path class="h" d="M278.773,162.026c-.778,3.459-1.56,6.481-2.23,8.91l1.774,1.4c.683-2.638,1.534-6.139,2.363-10.247.3-1.48.594-3.062.879-4.687a48.354,48.354,0,0,0,4.959-1.005c.872,2.01,4.061,4.845,4.476,5.208-1.086,1.2-2.155,2.353-3.179,3.431-3.249,3.436-6.1,6.248-8.236,8.3l1.533,1.214c2.109-2.106,4.9-4.966,8.079-8.452,1.109-1.212,2.271-2.524,3.451-3.879.524.246,4.823,2.225,7.206,2.225,2.163,0,5.016-.574,6.7-2.307,1.648-1.7,1.832-4.2.038-5.352-2.491-1.6-8.229.656-10.732,2.454-.148.106-1.641,1.406-2.571,2.238.479-.555.951-1.091,1.439-1.668.971-1.136,1.909-2.291,2.922-3.53q.7-.918,1.422-1.853c.487-.611.929-1.3,1.4-1.958,1.062-1.538,2.067-3.133,3.044-4.755.937.64,4.309,2.86,6.4,3.171s4.926.141,6.831-1.375c1.865-1.484,2.454-4,.914-5.42-2.139-1.977-8.035-.519-10.742.944-.169.092-2.02,1.328-3.025,2.025.58-.979,1.164-1.953,1.719-2.955,1.6-2.893,3.135-5.855,4.677-8.8.472-.9.953-1.8,1.431-2.7.33.231,4.262,2.962,6.605,3.311,2.083.31,4.926.141,6.832-1.375,1.865-1.484,2.454-4,.914-5.42-2.138-1.977-8.035-.518-10.741.944-.2.11-2.865,1.894-3.523,2.375,1.054-1.98,2.122-3.946,3.253-5.857a78.879,78.879,0,0,1,5.025-7.538c.154.108,4.24,2.978,6.641,3.336,2.083.31,4.926.141,6.831-1.375,1.866-1.483,2.454-3.995.914-5.419-2.138-1.978-8.035-.519-10.741.944-.178.1-2.205,1.453-3.158,2.117l-.123-.113a60.936,60.936,0,0,1,6.3-6.818c1.243-1.182,2.492-2.256,3.727-3.28.689.618,3.877,3.4,5.959,3.956,2,.53,4.79.656,6.829-.679,2-1.308,2.87-3.789,1.536-5.391-1.851-2.225-7.778-1.362-10.592-.164-.153.065-1.658.879-2.748,1.485.563-.455,1.138-.933,1.686-1.36,2.054-1.608,4.02-2.977,5.77-4.178,1-.676,1.914-1.271,2.776-1.82,1.077.219,5.437,1.047,7.68.594,2.188-.442,4.945-1.563,6.244-3.537,1.273-1.934.877-4.327-1.208-5.043-2.894-.994-8.177,2.3-10.293,4.5-.183.191-2.727,3.423-2.671,3.435l.065.013c-.837.514-1.731,1.073-2.7,1.7-1.775,1.171-3.773,2.508-5.865,4.086s-4.331,3.329-6.542,5.354a61.877,61.877,0,0,0-6.5,6.774c-.023.028-.044.06-.067.089.378-.876,1.354-3.345,1.407-3.539.747-2.736.522-8.173-2.246-9.384-1.995-.872-4.509.388-5.533,2.418-1.047,2.073-.366,4.532.6,6.2,1.087,1.884,5.226,4.394,5.557,4.592a79.825,79.825,0,0,0-5.366,7.71c-.953,1.542-1.866,3.115-2.761,4.7.3-.763.567-1.447.593-1.544.747-2.736.523-8.173-2.246-9.384-1.995-.872-4.507.388-5.533,2.418-1.047,2.073-.366,4.532.6,6.2.978,1.7,4.449,3.91,5.378,4.483-.337.611-.681,1.218-1.016,1.828-1.608,2.932-3.2,5.862-4.848,8.7-.58,1-1.189,1.975-1.793,2.95.268-.678.488-1.251.512-1.34.747-2.736.522-8.172-2.246-9.383-1.994-.872-4.508.388-5.533,2.418-1.046,2.073-.366,4.532.6,6.2.934,1.617,4.112,3.692,5.212,4.379-.65.985-1.3,1.973-1.97,2.907-.473.63-.886,1.262-1.395,1.876l-1.459,1.83c-.969,1.138-1.962,2.316-2.933,3.409-.67.763-1.321,1.482-1.976,2.207.589-.993,1.7-2.954,1.777-3.124a13.741,13.741,0,0,0,.893-7.127,4.69,4.69,0,0,0,.274-.8,3.071,3.071,0,0,0-3.162-3.993c-3.26.118-7.226,4.8-8.47,7.442-.074.156-.679,1.9-1.043,3.008.112-.664.23-1.309.336-1.992.221-1.352.4-2.7.6-4.151q.1-1.048.209-2.12c.086-.709.081-1.453.127-2.187.065-1.7.042-3.408-.022-5.124,1.25-.016,5.7-.133,7.82-1s4.644-2.475,5.5-4.6c.841-2.079-.114-4.251-2.391-4.5-3.16-.349-7.747,3.822-9.379,6.326-.1.156-1.076,2.044-1.591,3.087-.048-1.03-.089-2.059-.174-3.093-.244-2.988-.594-5.988-.928-8.986-.1-.918-.193-1.835-.288-2.753.444,0,5.715-.032,8.092-1,2.113-.86,4.644-2.475,5.5-4.6.841-2.078-.114-4.251-2.39-4.5-3.161-.348-7.748,3.822-9.38,6.326-.123.188-1.521,2.906-1.843,3.608-.207-2.022-.392-4.041-.486-6.052a58.909,58.909,0,0,1,.15-8.228c.207,0,5.7-.009,8.139-1,2.114-.861,4.645-2.475,5.5-4.6.841-2.078-.114-4.251-2.39-4.5-3.16-.349-7.747,3.822-9.38,6.325-.107.165-1.175,2.236-1.659,3.227l-.18-.02a47.332,47.332,0,0,1,1.758-8.361c.445-1.529.959-2.981,1.492-4.387,1.006.1,5.62.5,7.878-.184,2.164-.651,4.826-2.021,5.916-4.08,1.067-2.016.394-4.315-1.8-4.806-3.042-.682-8.013,3.062-9.9,5.425-.1.129-1.01,1.521-1.658,2.542.251-.633.5-1.289.749-1.893.94-2.269,1.943-4.316,2.846-6.124.522-1.025,1.014-1.946,1.483-2.8,1.128-.4,5.659-2.069,7.465-3.581,1.762-1.474,3.644-3.75,3.668-5.9a3.169,3.169,0,0,0-4.131-3.111c-3.273.778-6.2,5.988-6.841,8.732-.056.237-.48,3.97-.421,3.949l.068-.024c-.469.82-.961,1.7-1.48,2.674-.944,1.8-1.995,3.838-2.989,6.1a71.456,71.456,0,0,0-2.858,7.4,48.639,48.639,0,0,0-1.968,8.431c0,.033,0,.068-.009.1-.172-.849-.745-3.192-.811-3.364-.942-2.423-4.4-6.341-7.683-5.791a4.412,4.412,0,0,0-3.678,4.692c.269,2.087,2.368,3.556,4.258,4.291,2.131.83,7.463.526,7.887.5a59.972,59.972,0,0,0-.363,8.534c.038,1.643.132,3.289.249,4.934-.176-.725-.339-1.371-.372-1.457-.943-2.423-4.4-6.341-7.683-5.791a4.412,4.412,0,0,0-3.678,4.693c.269,2.087,2.368,3.556,4.258,4.291,1.918.746,6.454.573,7.656.512.052.629.1,1.259.151,1.889.263,3.018.539,6.028.71,9,.061,1.048.079,2.089.1,3.129-.157-.644-.3-1.183-.326-1.262-.942-2.423-4.4-6.341-7.683-5.791a4.412,4.412,0,0,0-3.678,4.693c.269,2.087,2.368,3.556,4.258,4.291,1.83.712,6.011.588,7.439.522-.012,1.071-.022,2.144-.085,3.189-.062.716-.067,1.4-.171,2.123q-.131,1.072-.259,2.123c-.217,1.352-.433,2.747-.679,4.067-.164.918-.339,1.792-.512,2.673-.047-1.045-.188-3.084-.22-3.25-.511-2.591-3.2-7.059-6.452-6.974a4.558,4.558,0,0,0-4.312,4.227c-.083,2.155,1.7,3.945,3.4,4.963,1.871,1.12,6.847,1.583,7.47,1.637C279.375,159.272,279.077,160.69,278.773,162.026Z" transform="translate(-268.273 -73.036)"/><path class="h" d="M279.922,100.705c1.8,1.426,7.188,2.5,7.192,2.5.057.011.275-3.705.26-3.937-.176-2.679-2.236-7.5-5.418-7.765a4.622,4.622,0,0,0-4.728,3.81C276.879,97.483,278.392,99.49,279.922,100.705Z" transform="translate(-271.183 -79.066)"/><g class="g"><path class="h" d="M358.858,117.814c.035.04,2.416-3.286,2.543-3.508,1.47-2.571,2.818-8.11.615-10.025-1.587-1.379-4.261-.738-5.785,1.051a7.628,7.628,0,0,0-1.223,6.4C355.49,114,358.855,117.812,358.858,117.814Z" transform="translate(-296.552 -83.004)"/><path class="h" d="M278.773,162.026c-.778,3.459-1.56,6.481-2.23,8.91l1.774,1.4c.683-2.638,1.534-6.139,2.363-10.247.3-1.48.594-3.062.879-4.687a48.354,48.354,0,0,0,4.959-1.005c.872,2.01,4.061,4.845,4.476,5.208-1.086,1.2-2.155,2.353-3.179,3.431-3.249,3.436-6.1,6.248-8.236,8.3l1.533,1.214c2.109-2.106,4.9-4.966,8.079-8.452,1.109-1.212,2.271-2.524,3.451-3.879.524.246,4.823,2.225,7.206,2.225,2.163,0,5.016-.574,6.7-2.307,1.648-1.7,1.832-4.2.038-5.352-2.491-1.6-8.229.656-10.732,2.454-.148.106-1.641,1.406-2.571,2.238.479-.555.951-1.091,1.439-1.668.971-1.136,1.909-2.291,2.922-3.53q.7-.918,1.422-1.853c.487-.611.929-1.3,1.4-1.958,1.062-1.538,2.067-3.133,3.044-4.755.937.64,4.309,2.86,6.4,3.171s4.926.141,6.831-1.375c1.865-1.484,2.454-4,.914-5.42-2.139-1.977-8.035-.519-10.742.944-.169.092-2.02,1.328-3.025,2.025.58-.979,1.164-1.953,1.719-2.955,1.6-2.893,3.135-5.855,4.677-8.8.472-.9.953-1.8,1.431-2.7.33.231,4.262,2.962,6.605,3.311,2.083.31,4.926.141,6.832-1.375,1.865-1.484,2.454-4,.914-5.42-2.138-1.977-8.035-.518-10.741.944-.2.11-2.865,1.894-3.523,2.375,1.054-1.98,2.122-3.946,3.253-5.857a78.879,78.879,0,0,1,5.025-7.538c.154.108,4.24,2.978,6.641,3.336,2.083.31,4.926.141,6.831-1.375,1.866-1.483,2.454-3.995.914-5.419-2.138-1.978-8.035-.519-10.741.944-.178.1-2.205,1.453-3.158,2.117l-.123-.113a60.936,60.936,0,0,1,6.3-6.818c1.243-1.182,2.492-2.256,3.727-3.28.689.618,3.877,3.4,5.959,3.956,2,.53,4.79.656,6.829-.679,2-1.308,2.87-3.789,1.536-5.391-1.851-2.225-7.778-1.362-10.592-.164-.153.065-1.658.879-2.748,1.485.563-.455,1.138-.933,1.686-1.36,2.054-1.608,4.02-2.977,5.77-4.178,1-.676,1.914-1.271,2.776-1.82,1.077.219,5.437,1.047,7.68.594,2.188-.442,4.945-1.563,6.244-3.537,1.273-1.934.877-4.327-1.208-5.043-2.894-.994-8.177,2.3-10.293,4.5-.183.191-2.727,3.423-2.671,3.435l.065.013c-.837.514-1.731,1.073-2.7,1.7-1.775,1.171-3.773,2.508-5.865,4.086s-4.331,3.329-6.542,5.354a61.877,61.877,0,0,0-6.5,6.774c-.023.028-.044.06-.067.089.378-.876,1.354-3.345,1.407-3.539.747-2.736.522-8.173-2.246-9.384-1.995-.872-4.509.388-5.533,2.418-1.047,2.073-.366,4.532.6,6.2,1.087,1.884,5.226,4.394,5.557,4.592a79.825,79.825,0,0,0-5.366,7.71c-.953,1.542-1.866,3.115-2.761,4.7.3-.763.567-1.447.593-1.544.747-2.736.523-8.173-2.246-9.384-1.995-.872-4.507.388-5.533,2.418-1.047,2.073-.366,4.532.6,6.2.978,1.7,4.449,3.91,5.378,4.483-.337.611-.681,1.218-1.016,1.828-1.608,2.932-3.2,5.862-4.848,8.7-.58,1-1.189,1.975-1.793,2.95.268-.678.488-1.251.512-1.34.747-2.736.522-8.172-2.246-9.383-1.994-.872-4.508.388-5.533,2.418-1.046,2.073-.366,4.532.6,6.2.934,1.617,4.112,3.692,5.212,4.379-.65.985-1.3,1.973-1.97,2.907-.473.63-.886,1.262-1.395,1.876l-1.459,1.83c-.969,1.138-1.962,2.316-2.933,3.409-.67.763-1.321,1.482-1.976,2.207.589-.993,1.7-2.954,1.777-3.124a13.741,13.741,0,0,0,.893-7.127,4.69,4.69,0,0,0,.274-.8,3.071,3.071,0,0,0-3.162-3.993c-3.26.118-7.226,4.8-8.47,7.442-.074.156-.679,1.9-1.043,3.008.112-.664.23-1.309.336-1.992.221-1.352.4-2.7.6-4.151q.1-1.048.209-2.12c.086-.709.081-1.453.127-2.187.065-1.7.042-3.408-.022-5.124,1.25-.016,5.7-.133,7.82-1s4.644-2.475,5.5-4.6c.841-2.079-.114-4.251-2.391-4.5-3.16-.349-7.747,3.822-9.379,6.326-.1.156-1.076,2.044-1.591,3.087-.048-1.03-.089-2.059-.174-3.093-.244-2.988-.594-5.988-.928-8.986-.1-.918-.193-1.835-.288-2.753.444,0,5.715-.032,8.092-1,2.113-.86,4.644-2.475,5.5-4.6.841-2.078-.114-4.251-2.39-4.5-3.161-.348-7.748,3.822-9.38,6.326-.123.188-1.521,2.906-1.843,3.608-.207-2.022-.392-4.041-.486-6.052a58.909,58.909,0,0,1,.15-8.228c.207,0,5.7-.009,8.139-1,2.114-.861,4.645-2.475,5.5-4.6.841-2.078-.114-4.251-2.39-4.5-3.16-.349-7.747,3.822-9.38,6.325-.107.165-1.175,2.236-1.659,3.227l-.18-.02a47.332,47.332,0,0,1,1.758-8.361c.445-1.529.959-2.981,1.492-4.387,1.006.1,5.62.5,7.878-.184,2.164-.651,4.826-2.021,5.916-4.08,1.067-2.016.394-4.315-1.8-4.806-3.042-.682-8.013,3.062-9.9,5.425-.1.129-1.01,1.521-1.658,2.542.251-.633.5-1.289.749-1.893.94-2.269,1.943-4.316,2.846-6.124.522-1.025,1.014-1.946,1.483-2.8,1.128-.4,5.659-2.069,7.465-3.581,1.762-1.474,3.644-3.75,3.668-5.9a3.169,3.169,0,0,0-4.131-3.111c-3.273.778-6.2,5.988-6.841,8.732-.056.237-.48,3.97-.421,3.949l.068-.024c-.469.82-.961,1.7-1.48,2.674-.944,1.8-1.995,3.838-2.989,6.1a71.456,71.456,0,0,0-2.858,7.4,48.639,48.639,0,0,0-1.968,8.431c0,.033,0,.068-.009.1-.172-.849-.745-3.192-.811-3.364-.942-2.423-4.4-6.341-7.683-5.791a4.412,4.412,0,0,0-3.678,4.692c.269,2.087,2.368,3.556,4.258,4.291,2.131.83,7.463.526,7.887.5a59.972,59.972,0,0,0-.363,8.534c.038,1.643.132,3.289.249,4.934-.176-.725-.339-1.371-.372-1.457-.943-2.423-4.4-6.341-7.683-5.791a4.412,4.412,0,0,0-3.678,4.693c.269,2.087,2.368,3.556,4.258,4.291,1.918.746,6.454.573,7.656.512.052.629.1,1.259.151,1.889.263,3.018.539,6.028.71,9,.061,1.048.079,2.089.1,3.129-.157-.644-.3-1.183-.326-1.262-.942-2.423-4.4-6.341-7.683-5.791a4.412,4.412,0,0,0-3.678,4.693c.269,2.087,2.368,3.556,4.258,4.291,1.83.712,6.011.588,7.439.522-.012,1.071-.022,2.144-.085,3.189-.062.716-.067,1.4-.171,2.123q-.131,1.072-.259,2.123c-.217,1.352-.433,2.747-.679,4.067-.164.918-.339,1.792-.512,2.673-.047-1.045-.188-3.084-.22-3.25-.511-2.591-3.2-7.059-6.452-6.974a4.558,4.558,0,0,0-4.312,4.227c-.083,2.155,1.7,3.945,3.4,4.963,1.871,1.12,6.847,1.583,7.47,1.637C279.375,159.272,279.077,160.69,278.773,162.026Z" transform="translate(-268.273 -73.036)"/><path class="h" d="M279.922,100.705c1.8,1.426,7.188,2.5,7.192,2.5.057.011.275-3.705.26-3.937-.176-2.679-2.236-7.5-5.418-7.765a4.622,4.622,0,0,0-4.728,3.81C276.879,97.483,278.392,99.49,279.922,100.705Z" transform="translate(-271.183 -79.066)"/></g></g><line class="i" x2="230.046" transform="translate(28.458 240.703)"/><g transform="translate(57.303 19.383)"><rect class="j" width="113.411" height="221.32" rx="14.522"/><g class="k"><path class="l" d="M154.237,95.518a9.775,9.775,0,0,0-9.775,9.776V307.062a9.754,9.754,0,0,0,3.507,7.5L214.133,95.518Z" transform="translate(-144.462 -95.518)"/><path class="m" d="M230.681,412.914a3.854,3.854,0,1,0-3.853,3.854A3.854,3.854,0,0,0,230.681,412.914Z" transform="translate(-170.122 -197.994)"/></g><rect class="i" width="113.411" height="221.32" rx="14.522"/><g transform="translate(5.044 15.03)"><rect class="n" width="103.324" height="193.154"/><g class="o"><path class="p" d="M151.954,243.982c13.541-7.576,33.559-15.924,56.033-15.924a84.458,84.458,0,0,1,47.291,14.316V144.946H151.954Z" transform="translate(-151.954 -126.703)"/><g transform="translate(13.336 32.52)"><g transform="translate(29.044)"><path class="q" d="M226.512,184.991s-1.91-3.686-4.232-5.051-7.371.955-7.371.955,3-3.139,5.46-3.822,6.006,2.184,6.006,2.184a34.468,34.468,0,0,0-1.365-5.6,37.18,37.18,0,0,0-3.822-7.507s4.914,3,6.006,5.051a35.573,35.573,0,0,1,2.048,5.187,29.377,29.377,0,0,1,1.5-5.051c.683-1.229,4.232-2.32,4.232-2.32s-2.32,3.14-2.593,4.5-.546,4.367-.546,4.367a11.907,11.907,0,0,1,3.549-1.911c1.638-.409,3.822,1.911,3.822,1.911a7.6,7.6,0,0,0-3.958.683c-1.911.956-3.958,8.327-3.958,8.327l-4.1-.41Z" transform="translate(-214.91 -166.154)"/><g class="r"><path class="s" d="M226.512,184.991s-1.91-3.686-4.232-5.051-7.371.955-7.371.955,3-3.139,5.46-3.822,6.006,2.184,6.006,2.184a34.468,34.468,0,0,0-1.365-5.6,37.18,37.18,0,0,0-3.822-7.507s4.914,3,6.006,5.051a35.573,35.573,0,0,1,2.048,5.187,29.377,29.377,0,0,1,1.5-5.051c.683-1.229,4.232-2.32,4.232-2.32s-2.32,3.14-2.593,4.5-.546,4.367-.546,4.367a11.907,11.907,0,0,1,3.549-1.911c1.638-.409,3.822,1.911,3.822,1.911a7.6,7.6,0,0,0-3.958.683c-1.911.956-3.958,8.327-3.958,8.327l-4.1-.41Z" transform="translate(-214.91 -166.154)"/></g><path class="t" d="M226.512,184.991s-1.91-3.686-4.232-5.051-7.371.955-7.371.955,3-3.139,5.46-3.822,6.006,2.184,6.006,2.184a34.468,34.468,0,0,0-1.365-5.6,37.18,37.18,0,0,0-3.822-7.507s4.914,3,6.006,5.051a35.573,35.573,0,0,1,2.048,5.187,29.377,29.377,0,0,1,1.5-5.051c.683-1.229,4.232-2.32,4.232-2.32s-2.32,3.14-2.593,4.5-.546,4.367-.546,4.367a11.907,11.907,0,0,1,3.549-1.911c1.638-.409,3.822,1.911,3.822,1.911a7.6,7.6,0,0,0-3.958.683c-1.911.956-3.958,8.327-3.958,8.327l-4.1-.41Z" transform="translate(-214.91 -166.154)"/><path class="u" d="M227.7,188.4s-.682-4.232-2.184-6.416-6.961-4.232-6.961-4.232,4.913-.955,7.78,1.093,4.232,7.507,4.232,7.507.819-6.006,3.412-8.736,9.282.819,9.282.819-5.051-1.5-6.689.955a30.263,30.263,0,0,0-2.867,6.416s3.276-2.048,5.051-1.092,2.457,3.958,2.457,3.958-3.412-2.184-5.187-1.638-4.641,5.05-4.641,5.05l-2.866-.955Z" transform="translate(-216.103 -169.563)"/><path class="u" d="M227.433,196.3s-1.565-2.513-2.384-4.287-1.911-2.866-3.413-2.593a13.976,13.976,0,0,0-3.686,1.638s2.73-3.686,6.279-3.549,4.914,4.641,4.914,4.641a7.548,7.548,0,0,1,2.73-5.733c2.866-2.32,8.736-.955,9.419,0,0,0-4.777-.273-6.279,1.5A9.571,9.571,0,0,0,233.1,191.2s2.73-2.048,4.777-1.229,2.867,8.19,2.867,8.19-4.1-5.323-5.324-4.914-3.47,3.487-3.47,3.487Z" transform="translate(-215.904 -172.36)"/><path class="b" d="M228.2,234.212h0a11.056,11.056,0,0,1-11.057-11.056v-7.371c0-10.783,4.95-15.971,11.057-15.971h0c6.106,0,11.057,3.686,11.057,15.971v7.371A11.056,11.056,0,0,1,228.2,234.212Z" transform="translate(-215.639 -177.155)"/><path class="j" d="M238.36,226.436q-.415-1.632-.9-3.228c.6-.378,1.2-.72,1.789-1.043V221.4c-.658.348-1.323.72-2,1.135q-.462-1.5-.968-2.954a27.692,27.692,0,0,1,2.965-1.571V216.1c-.292-.729-.591-1.455-.9-2.174.28-.118.562-.219.843-.327-.013-.244-.031-.479-.049-.716-.357.132-.714.263-1.07.411-.467-1.06-.946-2.1-1.432-3.11.669-.323,1.34-.616,2.012-.893q-.071-.339-.149-.664c-.719.294-1.438.607-2.154.953-.476-.978-.953-1.925-1.422-2.831q1.218-.649,2.5-1.257-.147-.31-.3-.6-1.28.609-2.5,1.262c-.5-.959-.994-1.869-1.459-2.711q1.059-.506,2.175-.969c-.178-.175-.359-.343-.545-.5-.666.282-1.321.574-1.958.878-.507-.906-.978-1.727-1.4-2.441.081-.032.169-.058.251-.09a10.6,10.6,0,0,0-1.264-.3l.042.071q-1.295.554-2.5,1.195c-.289-.513-.553-.971-.8-1.392-.242.024-.479.067-.716.108.277.471.586,1.006.924,1.6-1.025.572-2,1.184-2.918,1.826-.434-.868-.825-1.632-1.159-2.275-.193.114-.384.232-.571.361.339.652.734,1.427,1.175,2.307-.971.7-1.881,1.436-2.734,2.183-.382-.717-.723-1.341-1.023-1.884-.143.2-.288.407-.423.625.277.5.588,1.078.927,1.715-.94.852-1.806,1.719-2.6,2.576l-.071-.15c-.144.53-.269,1.088-.378,1.666.09-.105.17-.207.263-.312.355.764.761,1.649,1.2,2.628-.687.712-1.313,1.406-1.9,2.085-.007.285-.025.558-.025.852v.2c.668-.8,1.407-1.629,2.219-2.479.376.844.773,1.749,1.18,2.7-.876.8-1.672,1.572-2.381,2.284-.368-.906-.712-1.725-1.019-2.442v1.733q.244.588.5,1.231c-.178.182-.339.352-.5.526v.972q.365-.39.777-.817c.318.8.648,1.654.981,2.544-.619.58-1.194,1.133-1.721,1.65q.028.433.09.856c.568-.562,1.2-1.172,1.884-1.821.441,1.2.88,2.462,1.3,3.748-.671.72-1.279,1.4-1.817,2.013.121.21.242.42.377.621.5-.57,1.063-1.2,1.685-1.867.35,1.113.679,2.238.973,3.354q-.368.372-.7.716c.173.151.353.293.535.433.12-.124.237-.244.364-.373.065.261.122.519.183.778.259.174.528.335.8.487-.133-.6-.275-1.21-.433-1.824.827-.829,1.768-1.746,2.787-2.7.32.976.615,1.935.881,2.871-.833.751-1.6,1.466-2.295,2.118.232.1.471.188.712.273.553-.518,1.15-1.07,1.791-1.649.206.759.382,1.49.539,2.2.231.028.464.045.7.059-.19-.891-.408-1.81-.673-2.771.992-.887,2.067-1.819,3.188-2.751.351,1.195.674,2.39.952,3.577-.822.691-1.591,1.349-2.291,1.954a11.026,11.026,0,0,0,1.173-.116c.411-.352.835-.714,1.282-1.091.057.261.105.518.158.778.218-.065.429-.14.642-.217-.073-.349-.139-.7-.218-1.049.858-.72,1.759-1.463,2.671-2.2.152.565.289,1.126.426,1.687.2-.148.39-.3.576-.46-.141-.561-.278-1.122-.432-1.686,1-.8,2-1.576,2.961-2.291.045.188.084.377.128.565a10.924,10.924,0,0,0,.783-2.049C238.691,226.2,238.528,226.315,238.36,226.436Zm-1.694-3.537c-1.041.664-2.09,1.395-3.13,2.16q-.485-1.478-1.006-2.938c1.051-.783,2.114-1.518,3.172-2.182Q236.2,221.4,236.666,222.9Zm-7.41-9.111c-.406-.953-.811-1.879-1.209-2.772q1.49-1.057,3.127-2.085.635,1.335,1.28,2.782C231.368,212.371,230.3,213.065,229.256,213.788Zm3.468-1.457q.64,1.465,1.268,3.027c-1.1.65-2.175,1.362-3.22,2.108q-.62-1.559-1.249-3.048C230.566,213.691,231.637,212.991,232.724,212.331Zm-4.03,1.853q-1.337.946-2.61,1.929-.613-1.394-1.223-2.7,1.247-.994,2.628-2Q228.084,212.756,228.694,214.184Zm-.928-3.793c-.469-1.039-.926-2.029-1.367-2.962q1.443-1.026,3.045-1.987.7,1.349,1.438,2.878Q229.256,209.338,227.766,210.392Zm-.557.4c-.923.665-1.805,1.334-2.641,2-.473-1-.936-1.96-1.383-2.858.836-.709,1.722-1.411,2.66-2.1Q226.5,209.232,227.209,210.791Zm-1.671,5.749c-1.069.839-2.094,1.684-3.064,2.514-.376-.915-.749-1.8-1.117-2.663.905-.821,1.9-1.676,2.965-2.544C224.725,214.714,225.132,215.615,225.538,216.54Zm.275.635q.66,1.528,1.3,3.132c-1.078.907-2.1,1.831-3.062,2.741-.429-1.13-.87-2.248-1.314-3.34C223.712,218.872,224.739,218.022,225.812,217.175Zm.546-.429c.843-.654,1.713-1.3,2.6-1.931q.627,1.492,1.249,3.056c-.876.643-1.726,1.309-2.55,1.989Q227.019,218.266,226.358,216.746Zm4.12,1.812q.635,1.627,1.243,3.307c-.861.65-1.709,1.325-2.538,2.011q-.6-1.681-1.245-3.319C228.76,219.875,229.606,219.2,230.479,218.558Zm.562-.409c1.045-.754,2.118-1.472,3.216-2.129.417,1.06.823,2.15,1.216,3.262-1.065.658-2.132,1.387-3.187,2.164Q231.678,219.774,231.041,218.149Zm8-.779a28.221,28.221,0,0,0-2.977,1.552q-.589-1.658-1.214-3.241c.951-.547,1.916-1.049,2.891-1.488C238.189,215.241,238.626,216.3,239.036,217.37Zm-1.575-3.809c-.973.434-1.934.926-2.88,1.463q-.631-1.568-1.278-3.044c.9-.534,1.819-1.036,2.739-1.5C236.522,211.483,237,212.513,237.462,213.562Zm-1.711-3.684q-1.37.691-2.718,1.486-.646-1.453-1.286-2.791,1.257-.77,2.592-1.5C234.8,207.968,235.278,208.907,235.75,209.877Zm-1.723-3.4q-1.324.725-2.573,1.49-.736-1.523-1.433-2.866c.813-.471,1.66-.923,2.533-1.356C233.024,204.587,233.519,205.5,234.028,206.472Zm-3.216-5.794c.421.718.9,1.552,1.416,2.473-.866.431-1.707.88-2.515,1.348-.5-.959-.977-1.836-1.416-2.625Q229.506,201.233,230.811,200.679Zm-3.107,1.516c.443.8.923,1.681,1.43,2.65q-1.589.951-3.027,1.971c-.477-1-.93-1.933-1.348-2.775A34.209,34.209,0,0,1,227.7,202.195Zm-3.5,2.24c.419.845.872,1.776,1.348,2.779-.944.688-1.834,1.391-2.677,2.1-.492-.979-.958-1.882-1.387-2.7C222.336,205.871,223.24,205.138,224.2,204.435Zm-5.846,5.264c.794-.87,1.664-1.752,2.613-2.62.427.812.89,1.711,1.377,2.682-1,.863-1.919,1.731-2.771,2.588C219.127,211.352,218.715,210.461,218.358,209.7Zm1.514,3.3c.853-.866,1.782-1.747,2.786-2.622.443.893.9,1.846,1.371,2.841-1.06.859-2.047,1.7-2.951,2.518C220.66,214.773,220.255,213.857,219.872,213Zm-1.441,6.188c.706-.715,1.5-1.491,2.388-2.308.363.854.734,1.738,1.1,2.645-.886.77-1.718,1.52-2.493,2.238C219.091,220.863,218.755,220,218.432,219.191Zm1.252,3.255c.776-.724,1.612-1.482,2.506-2.262.448,1.109.893,2.242,1.324,3.385-.914.883-1.764,1.746-2.542,2.566C220.556,224.867,220.119,223.627,219.684,222.446Zm2.528,7.818c-.3-1.124-.638-2.252-.994-3.366.781-.825,1.641-1.7,2.568-2.6.411,1.107.8,2.215,1.173,3.311C223.961,228.542,223.035,229.442,222.212,230.264Zm2.115-6.49c.961-.916,1.988-1.846,3.067-2.764q.642,1.638,1.24,3.325c-1.089.918-2.137,1.849-3.121,2.756C225.14,225.99,224.74,224.88,224.327,223.774Zm2.321,6.919c-.272-.941-.574-1.9-.9-2.88.983-.911,2.035-1.849,3.128-2.778q.5,1.455.95,2.924C228.713,228.884,227.642,229.808,226.648,230.694Zm2.782-6.123c.829-.692,1.678-1.372,2.538-2.027q.518,1.457,1,2.936c-.874.657-1.735,1.336-2.576,2.02Q229.938,226.029,229.431,224.571Zm2.139,7.208c-.284-1.182-.607-2.372-.961-3.56.842-.69,1.706-1.376,2.583-2.041q.546,1.715,1.025,3.433C233.314,230.334,232.422,231.066,231.569,231.779Zm3.217-2.625q-.479-1.7-1.025-3.4c1.035-.769,2.079-1.5,3.113-2.172q.482,1.622.9,3.283C236.8,227.576,235.793,228.354,234.786,229.154Z" transform="translate(-215.639 -177.182)"/></g><path class="b" d="M241.789,226.025a8.395,8.395,0,1,1-16.789,0c0-4.636,3.485-7.613,8.42-7.383C238.547,218.88,241.789,221.389,241.789,226.025Z" transform="translate(-189.164 -183.305)"/><g transform="translate(17.994 9.898)"><path class="b" d="M211.323,198.024l-1.989-4.586a15.055,15.055,0,0,1-1.217-5.1l-.225-7.475H203.17l-.226,7.475a15.038,15.038,0,0,1-1.216,5.1l-1.989,4.586a15.049,15.049,0,0,0-1.243,5.988v16.849a1.728,1.728,0,0,0,1.729,1.729h10.612a1.729,1.729,0,0,0,1.729-1.729V204.012A15.049,15.049,0,0,0,211.323,198.024Z" transform="translate(-198.496 -180.858)"/><path class="u" d="M205.437,180.858l0,2.385h4.746l-.02-2.385h-4.722Z" transform="translate(-200.763 -180.858)"/></g><g transform="translate(0 23.647)"><path class="v" d="M196.326,205.857s-4.174-3.816-5.485-4.173-4.889-.477-9.539-.358-4.292.716-2.384,1.431a8.244,8.244,0,0,0,4.53-.119s-2.861-.119-6.8,2.981-4.889,4.889-4.173,5.008,4.054-2.5,4.889-3.1a6.519,6.519,0,0,1,1.55-.835,32.207,32.207,0,0,0-4.293,6.438c-1.311,2.981-3.935,7.87-2.384,8.824s3.816-5.842,3.816-5.842a56.005,56.005,0,0,0-.954,8.7c.119,2.862,1.789,7.63,2.384,5.008s1.669-14.427,1.669-14.785,1.073,2.5,1.669.716.238-8.7.6-8.942,1.193,1.431,2.147.6,4.65-3.935,4.65-3.935-2.146,2.5-.6,2.5,3.219-2.146,3.7-2.384S196.326,205.857,196.326,205.857Z" transform="translate(-171.765 -201.282)"/><path class="b" d="M216.26,223.775s-1.789-6.32-2.981-10.374-3.219-6.319-4.531-6.8-5.782.489-6.2,3.458,1.073,5.962,2.146,7.988a71.617,71.617,0,0,1,3.338,6.8,30.916,30.916,0,0,1,1.908,5.246c.477,2.146,2.742,5.962,3.7,7.274s1.431,2.862,2.385,3.338,1.43-.954,1.669-2.862a41.849,41.849,0,0,0-.119-6.915C217.452,230.094,216.26,223.775,216.26,223.775Z" transform="translate(-181.803 -202.984)"/></g><g transform="translate(14.136 32.411)"><path class="b" d="M207.855,219.556a8.395,8.395,0,1,1-13.59,9.859c-2.722-3.752-1.65-8.209,2.48-10.921C201.035,215.677,205.133,215.8,207.855,219.556Z" transform="translate(-192.765 -215.033)"/><path class="b" d="M200.293,218l-1.258-3.359,1.079-.341.942,3.735Z" transform="translate(-194.814 -214.301)"/><path class="w" d="M196.142,225.538a.536.536,0,1,1-.749-.119A.536.536,0,0,1,196.142,225.538Z" transform="translate(-193.551 -217.902)"/><path class="w" d="M199.678,224.833a.537.537,0,1,1-.75-.119A.536.536,0,0,1,199.678,224.833Z" transform="translate(-194.707 -217.671)"/><path class="w" d="M201.389,227.372a.268.268,0,1,1-.375-.06A.268.268,0,0,1,201.389,227.372Z" transform="translate(-195.425 -218.537)"/><path class="w" d="M197.942,228.171a.537.537,0,1,1-.75-.119A.537.537,0,0,1,197.942,228.171Z" transform="translate(-194.14 -218.762)"/></g><g transform="translate(26.156 34.423)"><path class="b" d="M227.41,228.209a8.395,8.395,0,1,1-16.789,0c0-4.636,3.485-7.613,8.42-7.383C224.168,221.064,227.41,223.573,227.41,228.209Z" transform="translate(-210.621 -218.441)"/><path class="b" d="M224.723,220.747l.954-3.458,1.073.358-1.431,3.577Z" transform="translate(-215.23 -217.289)"/><path class="w" d="M217.294,224.379a.537.537,0,1,1-.537-.536A.536.536,0,0,1,217.294,224.379Z" transform="translate(-212.451 -219.431)"/><path class="w" d="M220.571,225.885a.537.537,0,1,1-.536-.536A.537.537,0,0,1,220.571,225.885Z" transform="translate(-213.522 -219.924)"/><path class="w" d="M220.566,228.894a.268.268,0,1,1-.268-.269A.268.268,0,0,1,220.566,228.894Z" transform="translate(-213.696 -220.994)"/><path class="w" d="M217.206,227.568a.537.537,0,1,1-.537-.536A.537.537,0,0,1,217.206,227.568Z" transform="translate(-212.423 -220.473)"/></g><g transform="translate(48.286 36.172)"><path class="b" d="M260.285,230.808a8.4,8.4,0,0,1-16.79,0c0-4.636,3.485-7.613,8.421-7.383C257.042,223.663,260.285,226.172,260.285,230.808Z" transform="translate(-243.495 -221.04)"/><path class="i" d="M257.6,223.346l.954-3.458,1.073.358-1.431,3.577Z" transform="translate(-248.104 -219.888)"/><path class="w" d="M250.169,226.979a.537.537,0,1,1-.536-.537A.537.537,0,0,1,250.169,226.979Z" transform="translate(-245.326 -222.03)"/><path class="w" d="M253.446,228.484a.537.537,0,1,1-.536-.536A.537.537,0,0,1,253.446,228.484Z" transform="translate(-246.397 -222.523)"/><path class="w" d="M253.441,231.493a.268.268,0,1,1-.269-.269A.268.268,0,0,1,253.441,231.493Z" transform="translate(-246.57 -223.593)"/><path class="w" d="M250.08,230.167a.536.536,0,1,1-.536-.537A.536.536,0,0,1,250.08,230.167Z" transform="translate(-245.296 -223.072)"/></g><g transform="translate(36.971 10.301)"><path class="b" d="M230.613,219.851s14.128-32.556,22.728-37.47,4.095,10.851.614,21.7-11.466,27.642-18.633,34.4S222.628,241.145,230.613,219.851Z" transform="translate(-226.686 -181.457)"/><path class="i" d="M257.158,195.612l7.985,3.276S261.458,193.155,257.158,195.612Z" transform="translate(-236.645 -185.883)"/><path class="i" d="M251.683,205.649l7.985,3.276S255.983,203.192,251.683,205.649Z" transform="translate(-234.856 -189.164)"/><path class="i" d="M245.6,217.207l7.986,3.276S249.9,214.75,245.6,217.207Z" transform="translate(-232.867 -192.941)"/><path class="i" d="M239.82,231.2l7.986,3.276S244.12,228.742,239.82,231.2Z" transform="translate(-230.978 -197.514)"/><path class="i" d="M233.433,243.366l7.985,3.276S237.733,240.908,233.433,243.366Z" transform="translate(-228.891 -201.491)"/><path class="i" d="M229.175,254.619l7.985,3.276S233.474,252.163,229.175,254.619Z" transform="translate(-227.499 -205.169)"/></g><g transform="translate(8.922 41.529)"><path class="u" d="M189.149,227.846l38.494,8.4,13.923-5.529s2.662,23.547,4.5,32.351,1.229,14.538-.819,17.4-12.285,6.757-16.175,7.78-14.538.41-19.656-1.842-16.585-6.552-20.27-9.009a8.651,8.651,0,0,1-4.095-7.781c.2-1.638,3.89-31.532,4.095-34.4S189.149,227.846,189.149,227.846Z" transform="translate(-185.019 -227.846)"/><path class="u" d="M250.007,258.019c.154,4.67.309,10.384.309,14.5,0,8.19,2.866,18.223,1.024,21.908" transform="translate(-206.259 -237.708)"/><path class="u" d="M249.554,245.792s.076,1.812.176,4.518" transform="translate(-206.111 -233.711)"/></g></g><g transform="translate(24.846 144.81)"><rect class="j" width="53.631" height="19.596" rx="3.19"/><g transform="translate(5.493 6.777)"><path class="d" d="M197.615,347.306a3.089,3.089,0,0,1,0-3.634,2.588,2.588,0,0,1,3.41,0,3.089,3.089,0,0,1,0,3.634,2.588,2.588,0,0,1-3.41,0Zm2.616-.555a2.9,2.9,0,0,0,0-2.524,1.206,1.206,0,0,0-1.825,0,2.9,2.9,0,0,0,0,2.524,1.2,1.2,0,0,0,1.822,0Z" transform="translate(-197.024 -343.031)"/><path class="d" d="M205.267,347.761a.534.534,0,0,1-.149-.4v-3.62a.478.478,0,0,1,.171-.386.627.627,0,0,1,.42-.143h1.379a4.507,4.507,0,0,1,.538.029,2.316,2.316,0,0,1,.476.11,1.271,1.271,0,0,1,.392.211.935.935,0,0,1,.256.343,1.175,1.175,0,0,1,.1.5,1.027,1.027,0,0,1-.258.711,1.313,1.313,0,0,1-.794.377v.013a1.085,1.085,0,0,1,.681.328,1.4,1.4,0,0,1,.268.74l.081.656c0,.047.007.094.007.139a.575.575,0,0,1-.127.406.472.472,0,0,1-.364.136.507.507,0,0,1-.377-.144.693.693,0,0,1-.169-.44l-.067-.643a.94.94,0,0,0-.209-.581.818.818,0,0,0-.588-.169h-.773v1.432a.5.5,0,0,1-.522.545A.514.514,0,0,1,205.267,347.761Zm1.488-2.548c.119,0,.221,0,.306-.009a1.574,1.574,0,0,0,.281-.048.774.774,0,0,0,.248-.106.522.522,0,0,0,.161-.192.644.644,0,0,0,.065-.3.79.79,0,0,0-.032-.236.677.677,0,0,0-.077-.168.339.339,0,0,0-.129-.112,1.062,1.062,0,0,0-.155-.068.917.917,0,0,0-.188-.036c-.08-.009-.145-.013-.193-.015l-.21,0h-.681v1.293Z" transform="translate(-199.669 -343.09)"/><path class="d" d="M212.142,347.716a.825.825,0,0,1-.131-.473v-3.36q0-.668.636-.668h.9a2.779,2.779,0,0,1,1.944.605,2.28,2.28,0,0,1,.66,1.768,2.224,2.224,0,0,1-.651,1.728,2.686,2.686,0,0,1-1.872.594h-1.1A.437.437,0,0,1,212.142,347.716Zm1.48-.557a1.436,1.436,0,0,0,1.117-.366,1.841,1.841,0,0,0,.324-1.229,2.345,2.345,0,0,0-.157-.942.985.985,0,0,0-.474-.5,1.953,1.953,0,0,0-.839-.152h-.549v3.191Z" transform="translate(-201.922 -343.091)"/><path class="d" d="M219.569,347.722a.736.736,0,0,1-.135-.438V343.9a.83.83,0,0,1,.133-.5.534.534,0,0,1,.458-.18h2.218a.367.367,0,0,1,.281.115.393.393,0,0,1,.109.277.381.381,0,0,1-.11.271.37.37,0,0,1-.279.115h-1.789v1.136h1.653a.383.383,0,0,1,.393.387.372.372,0,0,1-.11.271.38.38,0,0,1-.283.112h-1.653v1.231h1.863a.352.352,0,0,1,.272.116.4.4,0,0,1,.1.276.386.386,0,0,1-.1.273.355.355,0,0,1-.272.114h-2.373A.436.436,0,0,1,219.569,347.722Z" transform="translate(-204.348 -343.091)"/><path class="d" d="M225.628,347.761a.532.532,0,0,1-.149-.4v-3.62a.478.478,0,0,1,.171-.386.629.629,0,0,1,.42-.143h1.38a4.515,4.515,0,0,1,.538.029,2.326,2.326,0,0,1,.476.11,1.287,1.287,0,0,1,.392.211.927.927,0,0,1,.256.343,1.175,1.175,0,0,1,.1.5,1.027,1.027,0,0,1-.259.711,1.311,1.311,0,0,1-.794.377v.013a1.085,1.085,0,0,1,.681.328,1.409,1.409,0,0,1,.269.74l.081.656c0,.047.006.094.006.139a.575.575,0,0,1-.127.406.472.472,0,0,1-.364.136.508.508,0,0,1-.377-.144.7.7,0,0,1-.169-.44l-.067-.643a.936.936,0,0,0-.209-.581.819.819,0,0,0-.588-.169h-.772v1.432a.5.5,0,0,1-.523.545A.512.512,0,0,1,225.628,347.761Zm1.488-2.548c.118,0,.221,0,.306-.009a1.585,1.585,0,0,0,.281-.048.786.786,0,0,0,.248-.106.52.52,0,0,0,.16-.192.635.635,0,0,0,.065-.3.789.789,0,0,0-.033-.236.654.654,0,0,0-.076-.168.342.342,0,0,0-.13-.112,1.09,1.09,0,0,0-.154-.068.925.925,0,0,0-.188-.036c-.08-.009-.144-.013-.193-.015l-.209,0h-.682v1.293Z" transform="translate(-206.324 -343.09)"/><path class="d" d="M235.239,347.78a.43.43,0,0,1-.133-.324v-3.643a.62.62,0,0,1,.151-.441.493.493,0,0,1,.378-.162.628.628,0,0,1,.335.114,1.1,1.1,0,0,1,.3.291l2.048,2.8v-2.754a.448.448,0,0,1,.451-.454.449.449,0,0,1,.32.128.431.431,0,0,1,.135.326v3.5a1.007,1.007,0,0,1-.129.543.439.439,0,0,1-.4.2.572.572,0,0,1-.326-.115,1.249,1.249,0,0,1-.3-.3l-2.046-2.8v2.769a.425.425,0,0,1-.136.324.452.452,0,0,1-.321.128A.442.442,0,0,1,235.239,347.78Z" transform="translate(-209.47 -343.09)"/><path class="d" d="M243.073,347.306a3.089,3.089,0,0,1,0-3.634,2.587,2.587,0,0,1,3.409,0,3.089,3.089,0,0,1,0,3.634,2.587,2.587,0,0,1-3.409,0Zm2.615-.555a2.891,2.891,0,0,0,0-2.524,1.205,1.205,0,0,0-1.824,0,2.891,2.891,0,0,0,0,2.524,1.2,1.2,0,0,0,1.822,0Z" transform="translate(-211.881 -343.031)"/><path class="d" d="M255.451,347.785a.76.76,0,0,1-.45.14.768.768,0,0,1-.753-.585l-.916-3.1-.915,3.1a.765.765,0,0,1-.751.585.766.766,0,0,1-.45-.14.64.64,0,0,1-.261-.383l-.909-3.62a.562.562,0,0,1-.016-.13.437.437,0,0,1,.145-.339.493.493,0,0,1,.338-.131.437.437,0,0,1,.289.106.542.542,0,0,1,.172.313l.76,3.266.883-2.977a1.2,1.2,0,0,1,.261-.519.695.695,0,0,1,.908,0,1.184,1.184,0,0,1,.263.519l.88,2.977.759-3.266a.541.541,0,0,1,.174-.313.437.437,0,0,1,.287-.106.491.491,0,0,1,.338.131.435.435,0,0,1,.146.339.562.562,0,0,1-.016.13l-.906,3.62A.639.639,0,0,1,255.451,347.785Z" transform="translate(-214.348 -343.08)"/></g></g><g transform="translate(-1.253 10.265)"><path class="j" d="M0,0H28.1A6.408,6.408,0,0,1,34.51,6.408V8.052a0,0,0,0,1,0,0H0a0,0,0,0,1,0,0V0A0,0,0,0,1,0,0Z" transform="translate(58.79)"/><path class="d" d="M0,0H28.1A6.408,6.408,0,0,1,34.51,6.408V8.052a0,0,0,0,1,0,0H0a0,0,0,0,1,0,0V0A0,0,0,0,1,0,0Z" transform="translate(28.183)"/><path class="j" d="M0,0H28.1A6.408,6.408,0,0,1,34.51,6.408V8.052a0,0,0,0,1,0,0H0a0,0,0,0,1,0,0V0A0,0,0,0,1,0,0Z"/><line class="x" x2="105.829" transform="translate(0 8.052)"/></g><g transform="translate(1.833 2.214)"><rect class="b" width="80.762" height="4.026"/><rect class="b" width="17.47" height="4.026" transform="translate(82.187)"/><g transform="translate(95.089 0.641)"><circle class="y" cx="1.163" cy="1.163" r="1.163"/><line class="z" x2="1.642" y2="0.821" transform="translate(2.257 1.847)"/></g></g></g><rect class="i" width="103.324" height="193.154"/></g></g><g transform="translate(176.265 69.101)"><path class="a" d="M346.538,174.226a22.318,22.318,0,0,0-8.415,8.919c-2.861,5.89-1.178,9.761,2.02,12.285s6.563,7.573,6.9,9.088-1.178,3.7-1.178,3.7,6.563,3.2,11.78,1.346,7.068-10.771,5.385-14.3-11.949-11.107-13.127-15.988-.5-5.89-.5-5.89Z" transform="translate(-326.24 -170.685)"/><g transform="translate(8.518 36.19)"><path class="aa" d="M356.273,224.429l-7.46,1.4s-3.534,1.01-6.227,7.237-4.039,18.344-4.039,18.344l-1.515-2.02-3.2,3.534s5.217,10.266,7.573,10.6,6.563-6.563,6.563-6.563a76.292,76.292,0,0,1-2.356,10.6,64.847,64.847,0,0,0-3.859,21.542c0,11.287,6.72,26.421,8.4,31.975s1.515,10.434,2.861,15.988a134.774,134.774,0,0,1,2.188,15.315,62.821,62.821,0,0,1-4.544,4.376c-1.683,1.346-3.534,2.861-2.861,3.366s2.524.5,5.385-.337a39.6,39.6,0,0,0,7.237-2.693c1.01-.673,1.178-2.861,1.178-4.376s-.168-24.4-.168-24.4,11.612,19.185,11.612,21.71.841,11.107,2.861,11.78,3.2-3.2,3.2-6.9-2.693-8.246-2.693-8.246-1.851-14.136-3.2-19.522a87.744,87.744,0,0,0-3.871-11.275s10.434-18.68,11.444-30.293-4.88-26.927-4.88-26.927,5.385-12.958,5.554-21.541-2.861-10.1-6.4-11.612a19.562,19.562,0,0,0-5.76-1.661l-7.7-.7Z" transform="translate(-333.835 -223.135)"/><g class="ab"><g transform="translate(2.679 0.153)"><path class="n" d="M396.152,233.342a17.234,17.234,0,0,1,4.144-1.3,7.124,7.124,0,0,0-.388-.619,18.941,18.941,0,0,0-4.038,1.311.337.337,0,1,0,.283.611Z" transform="translate(-356.725 -225.996)"/><path class="n" d="M390.961,247.69v.683a7.416,7.416,0,0,1,2.657,1.223.336.336,0,0,0,.388-.55A7.96,7.96,0,0,0,390.961,247.69Z" transform="translate(-355.185 -231.314)"/><path class="n" d="M402.762,250.9a.638.638,0,0,1,.382-.545.762.762,0,0,1,.092-.017q.06-.353.112-.7a1.508,1.508,0,0,0-.452.095,1.306,1.306,0,0,0-.794,1.037,18.077,18.077,0,0,0-.056,4.952c.187-.7.367-1.417.534-2.133A12.822,12.822,0,0,1,402.762,250.9Z" transform="translate(-358.76 -231.95)"/><path class="n" d="M402.6,239.583a.336.336,0,0,0,.508.441c.038-.044.347-.4.721-.941-.031-.37-.072-.718-.118-1.053A11.881,11.881,0,0,1,402.6,239.583Z" transform="translate(-358.962 -228.157)"/><path class="n" d="M395.7,271.278a.337.337,0,0,0,.446.165c.274-.126.673-.3,1.138-.471.1-.263.195-.534.3-.823-.939.329-1.648.65-1.718.683A.337.337,0,0,0,395.7,271.278Z" transform="translate(-356.725 -238.654)"/><path class="n" d="M394.086,287.312a.335.335,0,0,0-.081-.469,8.006,8.006,0,0,0-3.045-1.355v.681a7.389,7.389,0,0,1,2.657,1.224A.334.334,0,0,0,394.086,287.312Z" transform="translate(-355.185 -243.668)"/><path class="n" d="M402.224,297.054c-.032-.169-.065-.335-.1-.5.024.213.043.346.046.371A.337.337,0,0,0,402.224,297.054Z" transform="translate(-358.834 -247.284)"/><path class="n" d="M382.071,228.866a.337.337,0,0,0,.509.441c.115-.133,2.637-3.077,2.161-5.212l-.726-.065C384.578,225.5,382.814,228.008,382.071,228.866Z" transform="translate(-352.253 -223.581)"/><path class="n" d="M375.624,224.567a19.885,19.885,0,0,1,2.912-1.048l-1.73-.156c-.811.3-1.4.564-1.464.593a.337.337,0,0,0,.282.611Z" transform="translate(-350.016 -223.363)"/><path class="n" d="M365.111,234.3a3.059,3.059,0,0,0-.008-2.111,1.446,1.446,0,0,0-.854-.773c-1.873-.7-6,1.181-6.176,1.262a.337.337,0,1,0,.283.611c1.118-.516,4.319-1.746,5.655-1.243a.785.785,0,0,1,.476.416,2.57,2.57,0,0,1-.083,1.838Z" transform="translate(-344.372 -225.944)"/><path class="n" d="M353.165,247.69v.683a7.412,7.412,0,0,1,2.657,1.224.336.336,0,1,0,.388-.55A7.954,7.954,0,0,0,353.165,247.69Z" transform="translate(-342.832 -231.314)"/><path class="n" d="M389.21,247.772a1.308,1.308,0,0,0-.792,1.037,19.167,19.167,0,0,0,0,5.378.337.337,0,0,0,.333.289.286.286,0,0,0,.048,0,.337.337,0,0,0,.286-.381,18.85,18.85,0,0,1,0-5.15.637.637,0,0,1,.382-.545,1.219,1.219,0,0,1,.6-.031v-.683A1.784,1.784,0,0,0,389.21,247.772Z" transform="translate(-354.287 -231.307)"/><path class="n" d="M365.1,249.727a1.308,1.308,0,0,0-.793,1.037,19.22,19.22,0,0,0,0,5.378.337.337,0,0,0,.333.289.291.291,0,0,0,.048,0,.337.337,0,0,0,.286-.381,18.849,18.849,0,0,1,0-5.15.637.637,0,0,1,.382-.545c.736-.291,2.388.577,3.261,1.192a.337.337,0,0,0,.388-.551C368.736,250.809,366.407,249.206,365.1,249.727Z" transform="translate(-346.407 -231.946)"/><path class="n" d="M379.869,266.517a.336.336,0,0,0,.475-.034c.123-.141,2.981-3.476,2.028-5.621a1.443,1.443,0,0,0-.854-.773c-1.871-.708-6,1.181-6.175,1.262a.337.337,0,0,0,.282.611c1.12-.517,4.319-1.748,5.657-1.243a.785.785,0,0,1,.475.416c.648,1.457-1.167,4.036-1.921,4.907A.337.337,0,0,0,379.869,266.517Z" transform="translate(-350.016 -235.314)"/><path class="n" d="M364.8,238.847a.337.337,0,0,0,.509.441,11.27,11.27,0,0,0,2.035-3.511h-.706A10.668,10.668,0,0,1,364.8,238.847Z" transform="translate(-346.609 -227.42)"/><path class="n" d="M357.909,270.921a.337.337,0,0,0,.446.165c1.12-.516,4.321-1.747,5.657-1.242a.782.782,0,0,1,.475.415,2.57,2.57,0,0,1-.083,1.838h.706a3.057,3.057,0,0,0-.008-2.112,1.445,1.445,0,0,0-.854-.772c-1.871-.7-6,1.181-6.176,1.261A.337.337,0,0,0,357.909,270.921Z" transform="translate(-344.372 -238.297)"/><path class="n" d="M376.262,238.273a.337.337,0,0,0-.47.075c-.2.275-1.93,2.736-1.476,4.3a1.565,1.565,0,0,0,.965,1.031,4.2,4.2,0,0,0,1.57.3,6.023,6.023,0,0,0,3.135-.992.337.337,0,0,0-.386-.552,4.8,4.8,0,0,1-4.069.621.877.877,0,0,1-.568-.594c-.308-1.062.888-3.047,1.374-3.722A.335.335,0,0,0,376.262,238.273Z" transform="translate(-349.72 -228.215)"/><path class="n" d="M353.165,285.488v.681a7.389,7.389,0,0,1,2.657,1.224.336.336,0,1,0,.388-.549A8.016,8.016,0,0,0,353.165,285.488Z" transform="translate(-342.832 -243.668)"/><path class="n" d="M389.21,285.568a1.307,1.307,0,0,0-.793,1.038,19.156,19.156,0,0,0,0,5.377.337.337,0,0,0,.333.289.375.375,0,0,0,.048,0,.336.336,0,0,0,.286-.38,18.856,18.856,0,0,1,0-5.151.637.637,0,0,1,.382-.544,1.215,1.215,0,0,1,.6-.032v-.681A1.789,1.789,0,0,0,389.21,285.568Z" transform="translate(-354.287 -243.66)"/><path class="n" d="M365.1,287.523a1.308,1.308,0,0,0-.794,1.038,19.216,19.216,0,0,0,0,5.377.337.337,0,0,0,.333.289.39.39,0,0,0,.048,0,.337.337,0,0,0,.286-.38,18.856,18.856,0,0,1,0-5.151.637.637,0,0,1,.382-.544c.73-.293,2.388.576,3.261,1.192a.336.336,0,1,0,.388-.549C368.736,288.606,366.4,287,365.1,287.523Z" transform="translate(-346.407 -244.299)"/><path class="n" d="M379.869,304.313a.336.336,0,0,0,.475-.034c.123-.141,2.981-3.476,2.028-5.621a1.442,1.442,0,0,0-.854-.772c-1.871-.708-6,1.181-6.175,1.262a.337.337,0,1,0,.283.611c1.119-.517,4.32-1.748,5.655-1.243a.787.787,0,0,1,.476.417c.648,1.456-1.167,4.036-1.921,4.907A.337.337,0,0,0,379.869,304.313Z" transform="translate(-350.016 -247.668)"/><path class="n" d="M366.641,273.573a10.227,10.227,0,0,1-1.513,2.668c-.121.157-.231.292-.325.4a.336.336,0,1,0,.509.44c.03-.035.232-.27.5-.636a10.06,10.06,0,0,0,1.533-2.874Z" transform="translate(-346.609 -239.773)"/><path class="n" d="M376.262,276.069a.336.336,0,0,0-.47.075c-.2.275-1.93,2.736-1.475,4.3a1.561,1.561,0,0,0,.965,1.031,4.2,4.2,0,0,0,1.57.3,6.008,6.008,0,0,0,3.135-.992.336.336,0,0,0-.386-.551,4.813,4.813,0,0,1-4.069.622.879.879,0,0,1-.568-.594c-.309-1.063.888-3.047,1.374-3.723A.335.335,0,0,0,376.262,276.069Z" transform="translate(-349.72 -240.568)"/><path class="n" d="M375.151,413.693l0-.035A.305.305,0,0,0,375.151,413.693Z" transform="translate(-350.018 -285.558)"/><path class="n" d="M351.414,247.772a1.308,1.308,0,0,0-.792,1.037,19.191,19.191,0,0,0,0,5.378.336.336,0,0,0,.333.289.286.286,0,0,0,.048,0,.337.337,0,0,0,.286-.381,18.851,18.851,0,0,1,0-5.15.636.636,0,0,1,.382-.545,1.223,1.223,0,0,1,.6-.032v-.683A1.784,1.784,0,0,0,351.414,247.772Z" transform="translate(-341.934 -231.307)"/><path class="n" d="M337.98,262.682c.155-.071.353-.158.577-.25l-.224-.3-.518.573A.327.327,0,0,0,337.98,262.682Z" transform="translate(-337.815 -236.035)"/><path class="n" d="M345,260.089a6.462,6.462,0,0,0-3.625.307c-.038.26-.072.5-.1.737a6.451,6.451,0,0,1,3.492-.414.784.784,0,0,1,.476.416c.648,1.457-1.167,4.036-1.921,4.907a.336.336,0,1,0,.509.44c.123-.141,2.98-3.476,2.028-5.621A1.444,1.444,0,0,0,345,260.089Z" transform="translate(-338.945 -235.315)"/><path class="n" d="M344.756,245.015a.336.336,0,0,0,.082-.469.331.331,0,0,0-.312-.137c-.079.291-.156.583-.232.878C344.56,245.145,344.733,245.031,344.756,245.015Z" transform="translate(-339.933 -230.241)"/><path class="n" d="M350.959,293.265a.381.381,0,0,0,.048,0,.336.336,0,0,0,.286-.38,20.954,20.954,0,0,1-.118-4.378c-.044.141-.086.285-.131.425-.189.589-.392,1.212-.6,1.871.045,1.183.173,2.107.183,2.176A.337.337,0,0,0,350.959,293.265Z" transform="translate(-341.942 -244.653)"/><path class="n" d="M352.2,286.194a1.212,1.212,0,0,1,.6-.032v-.681a2.141,2.141,0,0,0-.526.006q-.1.395-.211.787A.558.558,0,0,1,352.2,286.194Z" transform="translate(-342.474 -243.661)"/><path class="n" d="M347.9,299.6c-.252,1.016-.495,2.085-.714,3.222A4.715,4.715,0,0,0,347.9,299.6Z" transform="translate(-340.877 -248.28)"/><path class="n" d="M344.25,282.257s-.124.084-.324.193a1.929,1.929,0,0,0,.708.359h0a.336.336,0,0,0-.386-.551Z" transform="translate(-339.812 -242.592)"/><path class="n" d="M338.819,276.1q.192.3.387.6c.038-.055.079-.119.112-.164a.336.336,0,0,0-.076-.47A.331.331,0,0,0,338.819,276.1Z" transform="translate(-338.143 -240.569)"/></g></g><path class="i" d="M356.273,224.429l-7.46,1.4s-3.534,1.01-6.227,7.237-4.039,18.344-4.039,18.344l-1.515-2.02-3.2,3.534s5.217,10.266,7.573,10.6,6.563-6.563,6.563-6.563a76.292,76.292,0,0,1-2.356,10.6,64.847,64.847,0,0,0-3.859,21.542c0,11.287,6.72,26.421,8.4,31.975s1.515,10.434,2.861,15.988a134.774,134.774,0,0,1,2.188,15.315,62.821,62.821,0,0,1-4.544,4.376c-1.683,1.346-3.534,2.861-2.861,3.366s2.524.5,5.385-.337a39.6,39.6,0,0,0,7.237-2.693c1.01-.673,1.178-2.861,1.178-4.376s-.168-24.4-.168-24.4,11.612,19.185,11.612,21.71.841,11.107,2.861,11.78,3.2-3.2,3.2-6.9-2.693-8.246-2.693-8.246-1.851-14.136-3.2-19.522a87.744,87.744,0,0,0-3.871-11.275s10.434-18.68,11.444-30.293-4.88-26.927-4.88-26.927,5.385-12.958,5.554-21.541-2.861-10.1-6.4-11.612a19.562,19.562,0,0,0-5.76-1.661l-7.7-.7Z" transform="translate(-333.835 -223.135)"/></g><g transform="translate(22.344 148.407)"><path class="b" d="M367.138,411.579c1.01-.673,1.178-2.861,1.178-4.376s-.044-17.367-.044-17.367h-8.911c.111.566.232,1.136.372,1.716a134.776,134.776,0,0,1,2.188,15.315,62.814,62.814,0,0,1-4.544,4.376c-1.683,1.346-3.534,2.861-2.861,3.366s2.524.5,5.385-.337A39.6,39.6,0,0,0,367.138,411.579Z" transform="translate(-354.374 -389.836)"/><path class="b" d="M388.466,404.51c0,2.524.841,11.107,2.861,11.78s3.2-3.2,3.2-6.9-2.693-8.246-2.693-8.246-.753-5.747-1.647-11.309h-9.173C384.343,395.588,388.466,403.007,388.466,404.51Z" transform="translate(-363.08 -389.836)"/></g><path class="ac" d="M395.023,422.557c2.02.673,3.2-3.2,3.2-6.9a16.972,16.972,0,0,0-1.857-6.647l.152,3.8s-1.419-1.064-2.306-.887-1.6,1.6-1.6,1.6l-.293.025C392.65,417.056,393.5,422.051,395.023,422.557Z" transform="translate(-344.432 -247.695)"/><path class="ac" d="M368.307,415.836a7.651,7.651,0,0,1-3.878,1.415,15.336,15.336,0,0,0-.532-2.3c-.355-1.064-1.976-.03-1.976-.03a62.811,62.811,0,0,1-4.544,4.376c-1.683,1.346-3.534,2.861-2.861,3.366s2.524.5,5.385-.337a39.6,39.6,0,0,0,7.237-2.693C368.024,419.038,368.262,417.282,368.307,415.836Z" transform="translate(-332.03 -249.478)"/><path class="a" d="M346.954,302.1a59.1,59.1,0,0,0-1.352,12.683c0,11.287,6.72,26.421,8.4,31.975s1.515,10.434,2.861,15.988c.247,1.02.477,2.181.688,3.4a15.341,15.341,0,0,0,7.869.029l-.142-12.178s3.743,6.185,6.979,11.993a14.485,14.485,0,0,0,6.911-1.352c-.632-4.216-1.434-9.118-2.11-11.819a87.749,87.749,0,0,0-3.871-11.275s10.434-18.68,11.444-30.293a42.968,42.968,0,0,0-.4-9.554c-3.653,1.447-10.279,3.335-20.012,3.335C355.984,305.028,350.408,303.53,346.954,302.1Z" transform="translate(-329.163 -212.621)"/><path class="m" d="M371.376,314.023s-4.788,23.585-4.965,28.2,4.611,13.655,4.611,13.655" transform="translate(-335.962 -216.65)"/><path class="i" d="M352.545,262.6s-4.544-5.049-4.712-8.751,3.7-13.463,3.7-13.463" transform="translate(-329.89 -192.583)"/><path class="b" d="M365.472,213.852s2.356,2.861,2.524,4.039-1.628,1.8-1.628,1.8-3.421,6.615-.392,9.476,7.237.168,8.751-2.188,2.524-7.91,2.524-7.91a31,31,0,0,1-5.217-5.385,41.216,41.216,0,0,0-4.207-5.049S366.482,213.011,365.472,213.852Z" transform="translate(-335.413 -182.206)"/><g transform="translate(16.844 12.616)"><path class="b" d="M347.282,188.115s-1.8,5.243-.749,8.09,2.847,3,3,3.895-.911,3.6-.761,4.054,2.547.9,2.547.9,3.309,4.635,4.657,4.635,3.745-1.5,4.644-2.846a22.575,22.575,0,0,0,1.8-3.9s-1.048-2.547-5.842-5.093S347.432,191.111,347.282,188.115Z" transform="translate(-346.204 -188.115)"/><path class="j" d="M354.16,204.08c.293.521.331,1.055.085,1.194s-.683-.172-.975-.693-.331-1.056-.085-1.194S353.867,203.559,354.16,204.08Z" transform="translate(-348.432 -193.096)"/><path class="i" d="M351.347,203.039s0-1.941,2.034-1.2" transform="translate(-347.885 -192.545)"/><path class="i" d="M356.565,211.962s2.126.647,2.773-1.941" transform="translate(-349.59 -195.275)"/></g><g transform="translate(17.592)"><path class="a" d="M350.021,172.916s-3.534,5.89-2.524,10.1,5.385,7.91,8.583,9.593,8.583,6.563,8.751,9.761-3.2,5.217-2.524,5.554,6.058,1.515,9.256-1.683,7.642-6.65,7.474-13.045-6.039-11.991-8.4-15.357-5.979-8.285-11.7-8.454S350.863,172.074,350.021,172.916Z" transform="translate(-347.315 -169.374)"/><path class="ad" d="M350.686,185.043a9.424,9.424,0,0,0,7.279,8.552c7.1,1.82,17.832,6.915,16.74,14.739" transform="translate(-348.417 -174.495)"/><path class="ad" d="M359.336,178.015s.364,5.459,6.732,7.642,15.467,6.186,16.559,13.1" transform="translate(-351.244 -172.198)"/><path class="ad" d="M349.442,177.2s-2.537,5.637-1.906,8.368" transform="translate(-347.354 -171.933)"/></g><g transform="translate(8.358 39.219)"><g transform="translate(2.789)"><path class="aa" d="M374.492,235.881l-3.7,16.661-23.51-7.245a24.462,24.462,0,0,0-2.911-7.4c-2.019-3.029-6.059-3.7-6.059-2.861s3.366,5.554,3.366,5.554-3.933-2.736-3.933-1.894,3.428,4.082,4.438,4.755,1.259,3.778,2.438,4.283,23.479,14.06,26,15.743,5.217-.5,5.554-1.178,6.295-10.427,9.088-17.334a13.231,13.231,0,0,0-3.534-15.146,18.388,18.388,0,0,0-3.871-2.188" transform="translate(-337.742 -227.635)"/><g class="ae"><g transform="translate(0.497 2.445)"><path class="n" d="M396.152,233.292c1.08-.5,4.094-1.657,5.505-1.284q-.358-.394-.725-.741a16.03,16.03,0,0,0-5.063,1.414.337.337,0,0,0,.283.611Z" transform="translate(-357.174 -231.267)"/><path class="n" d="M406.075,235.085a4.711,4.711,0,0,0,.124-.53c-.205-.31-.417-.611-.637-.9a3.1,3.1,0,0,1-.193,1.426Z" transform="translate(-360.342 -232.049)"/><path class="n" d="M390.961,248.373a7.416,7.416,0,0,1,2.657,1.223.336.336,0,0,0,.388-.55,7.96,7.96,0,0,0-3.045-1.356Z" transform="translate(-355.633 -236.635)"/><path class="n" d="M402.9,249.726a1.306,1.306,0,0,0-.794,1.037,19.219,19.219,0,0,0,0,5.378.336.336,0,0,0,.333.289.294.294,0,0,0,.048,0,.336.336,0,0,0,.285-.381,18.889,18.889,0,0,1,0-5.15.637.637,0,0,1,.382-.545c.726-.29,2.388.576,3.262,1.192a.318.318,0,0,0,.038.016c.077-.216.165-.435.231-.648C406.127,250.541,404.087,249.249,402.9,249.726Z" transform="translate(-359.208 -237.266)"/><path class="n" d="M402.6,238.847a.336.336,0,0,0,.508.441,11.252,11.252,0,0,0,2.036-3.511h-.706A10.668,10.668,0,0,1,402.6,238.847Z" transform="translate(-359.41 -232.741)"/><path class="n" d="M396.151,271.26a20.241,20.241,0,0,1,2.164-.828q.231-.412.469-.841a21.1,21.1,0,0,0-2.915,1.058.337.337,0,0,0,.282.611Z" transform="translate(-357.174 -243.793)"/><path class="n" d="M388.836,256.495a.282.282,0,0,0,.048,0,.337.337,0,0,0,.286-.381c0-.017-.142-1.017-.18-2.265l-.5,2.252c.007.055.013.1.015.108A.337.337,0,0,0,388.836,256.495Z" transform="translate(-354.825 -238.647)"/><path class="n" d="M390.77,248.367v-.683c-.081-.009-.161-.011-.24-.012l-.153.687A1.492,1.492,0,0,1,390.77,248.367Z" transform="translate(-355.443 -236.629)"/><path class="n" d="M364.342,258.771a.337.337,0,0,0,.333.289.291.291,0,0,0,.048,0,.337.337,0,0,0,.286-.381c0-.009-.044-.314-.089-.794l-.7-.215C364.276,258.3,364.335,258.725,364.342,258.771Z" transform="translate(-346.895 -239.895)"/><path class="n" d="M375.178,262.313a.336.336,0,0,0,.446.165c.364-.168.947-.411,1.613-.645l-1.051-.324c-.477.19-.8.337-.844.357A.337.337,0,0,0,375.178,262.313Z" transform="translate(-350.465 -241.151)"/><path class="n" d="M382.326,267.949a.335.335,0,0,0,.254-.116,11.138,11.138,0,0,0,2.053-3.576l-.639-.2a10.2,10.2,0,0,1-1.923,3.333.337.337,0,0,0,.254.557Z" transform="translate(-352.701 -241.985)"/><path class="n" d="M350.619,254.794a.336.336,0,0,0,.333.289.283.283,0,0,0,.048,0,.337.337,0,0,0,.286-.381,22.59,22.59,0,0,1-.178-3.525c-.127-.466-.295-1.029-.5-1.648A19.493,19.493,0,0,0,350.619,254.794Z" transform="translate(-342.383 -237.235)"/><path class="n" d="M339.242,238.743a.337.337,0,0,0-.546-.394l-.109.156a2.357,2.357,0,0,0,.3.788C339.017,239.072,339.145,238.876,339.242,238.743Z" transform="translate(-338.516 -233.536)"/><path class="n" d="M343.8,244.461a5.556,5.556,0,0,1-1.257.6c.15.219.287.416.4.573a6.226,6.226,0,0,0,1.246-.625.337.337,0,0,0-.386-.552Z" transform="translate(-339.807 -235.559)"/><path class="n" d="M338.481,245.453c.2.264.45.556.728.862a4.422,4.422,0,0,0,.512.034,5.31,5.31,0,0,0,1.67-.287c-.214-.142-.475-.312-.761-.492A3.825,3.825,0,0,1,338.481,245.453Z" transform="translate(-338.481 -235.903)"/></g></g><path class="i" d="M374.492,235.881l-3.7,16.661-23.51-7.245a24.462,24.462,0,0,0-2.911-7.4c-2.019-3.029-6.059-3.7-6.059-2.861s3.366,5.554,3.366,5.554-3.933-2.736-3.933-1.894,3.428,4.082,4.438,4.755,1.259,3.778,2.438,4.283,23.479,14.06,26,15.743,5.217-.5,5.554-1.178,6.295-10.427,9.088-17.334a13.231,13.231,0,0,0-3.534-15.146,18.388,18.388,0,0,0-3.871-2.188" transform="translate(-337.742 -227.635)"/></g><path class="b" d="M366.385,254.743l-19.106-6.013a24.462,24.462,0,0,0-2.911-7.4c-2.019-3.029-6.059-3.7-6.059-2.861s3.366,5.554,3.366,5.554-3.933-2.736-3.933-1.894,3.428,4.082,4.438,4.755,1.259,3.778,2.438,4.283c.8.343,12.209,6.847,19.21,11.346Z" transform="translate(-334.952 -231.068)"/><path class="b" d="M336.609,237.975s-3.272.388-2.994,1.053,2.994.166,3.161.166,1.22,0,1.5.277,2,3.161,2,3.161" transform="translate(-333.598 -231.014)"/><path class="b" d="M343.561,240.47a23.928,23.928,0,0,0-3.105-2.938,4.915,4.915,0,0,0-3.6.277c-.5.388.5.666.942.555a6.719,6.719,0,0,1,1.83,0,36.779,36.779,0,0,1,2.328,3.327" transform="translate(-334.617 -230.792)"/><path class="b" d="M346.057,243.323a24.759,24.759,0,0,0-1.83-3.438c-.666-.831-3.771-.721-3.937-.444s1.775.61,2.274.721,1.275,1.774,1.441,2.273.666,1.5.666,1.5a27.152,27.152,0,0,1,.055,2.828A4.859,4.859,0,0,0,346,250.254" transform="translate(-335.782 -231.427)"/></g><g transform="translate(0 37.189)"><rect class="a" width="8.657" height="17.638" rx="1.688" transform="translate(0 1.962) rotate(-13.103)"/><path class="b" d="M329.9,254.9s-4.683-8.559-5.008-9.425-2.813-12.119-2.922-13.526-.433-3.138.217-2.705,2.489,7.467,2.489,7.467.866-2.056,1.515-3.463,2.056-3.463,2.273-2.922-.324,1.731-.433,2.272-1.515,4.761-1.515,4.761l-.108,1.948s1.731-2.164,2.38-2.922,2.814-1.948,2.705-1.191-1.84,1.515-1.84,2.056-2.056,3.571-2.056,3.571,2.489-2.6,3.03-3.03,1.515-.757.866.217-2.273,3.246-2.273,3.246.65,2.813.65,3.354a3.82,3.82,0,0,1-.758,1.515l3.986,5.241Z" transform="translate(-321.381 -226.107)"/></g></g></g></g></svg>