<svg xmlns="http://www.w3.org/2000/svg" width="201.519" height="202.122" viewBox="0 0 201.519 202.122"><defs><style>.a{fill:#ef9d1a;}.b{fill:#f2ae40;}.c{fill:#263238;}.d{fill:#fff;}.e{fill:#dc1826;}.f{fill:#b20000;}.g{fill:#ccc;}.h{fill:#3f3d56;}.i{fill:#f5ecec;}.j{fill:#ffb8b8;}.k{fill:#2f2e41;}</style></defs><g transform="translate(-70 -43)"><path class="a" d="M246.955,672.206l-1.775-7a90.947,90.947,0,0,0-9.643-3.46L235.313,665l-.909-3.584c-4.064-1.162-6.829-1.673-6.829-1.673s3.734,14.2,11.567,25.058l9.127,1.6-7.09,1.022a36.786,36.786,0,0,0,3.171,3.361c11.394,10.576,24.085,15.429,28.346,10.838s-1.522-16.886-12.916-27.461a48.423,48.423,0,0,0-12.412-7.981Z" transform="translate(-157.576 -458.935)"/><path class="b" d="M325.513,621.936l2.1-6.909a90.882,90.882,0,0,0-6.466-7.946l-1.873,2.669,1.075-3.538c-2.879-3.094-4.981-4.961-4.981-4.961s-4.143,14.087-3.05,27.43l6.984,6.09-6.6-2.79a36.788,36.788,0,0,0,.978,4.516c4.287,14.943,12.643,25.658,18.663,23.931s7.426-15.242,3.138-30.185A48.423,48.423,0,0,0,328.98,617Z" transform="translate(-219.255 -416.269)"/><path class="c" d="M476.435,124.344h-1.107V94.016a17.554,17.554,0,0,0-17.554-17.554H393.516a17.554,17.554,0,0,0-17.554,17.554V260.4a17.554,17.554,0,0,0,17.554,17.554h64.258A17.554,17.554,0,0,0,475.328,260.4V145.933h1.107Z" transform="translate(-265.816 -33.462)"/><path class="d" d="M471.541,93.335h-8.387a6.228,6.228,0,0,1-5.767,8.58H420.575a6.228,6.228,0,0,1-5.767-8.58h-7.834a13.109,13.109,0,0,0-13.109,13.109V272.592A13.109,13.109,0,0,0,406.974,285.7h64.567a13.109,13.109,0,0,0,13.109-13.109h0V106.444a13.109,13.109,0,0,0-13.109-13.109Z" transform="translate(-278.875 -45.77)"/><path class="e" d="M513.4,320.126a6.612,6.612,0,0,1,3.31-5.729,6.615,6.615,0,1,0,0,11.457A6.611,6.611,0,0,1,513.4,320.126Z" transform="translate(-361.248 -206.376)"/><path class="e" d="M544.14,320.126a6.612,6.612,0,0,1,3.31-5.729,6.615,6.615,0,1,0,0,11.457A6.61,6.61,0,0,1,544.14,320.126Z" transform="translate(-383.67 -206.376)"/><circle class="f" cx="6.615" cy="6.615" r="6.615" transform="translate(161.983 107.135)"/><path class="g" d="M525.193,302.919H486.639a1.386,1.386,0,0,1-1.384-1.384V262.981a1.386,1.386,0,0,1,1.384-1.384h38.553a1.386,1.386,0,0,1,1.384,1.384v38.553A1.386,1.386,0,0,1,525.193,302.919Zm-38.553-40.768a.831.831,0,0,0-.831.831v38.553a.831.831,0,0,0,.831.831h38.553a.832.832,0,0,0,.831-.831V262.981a.831.831,0,0,0-.831-.831Z" transform="translate(-345.54 -168.508)"/><rect class="g" width="59.129" height="0.554" transform="translate(129.132 163.964)"/><circle class="c" cx="1.867" cy="1.867" r="1.867" transform="translate(129.132 156.771)"/><rect class="g" width="59.129" height="0.554" transform="translate(129.132 182.636)"/><circle class="c" cx="1.867" cy="1.867" r="1.867" transform="translate(129.132 175.444)"/><circle class="c" cx="1.867" cy="1.867" r="1.867" transform="translate(135.223 156.771)"/><circle class="c" cx="1.867" cy="1.867" r="1.867" transform="translate(141.314 156.771)"/><circle class="c" cx="1.867" cy="1.867" r="1.867" transform="translate(135.223 175.444)"/><circle class="c" cx="1.867" cy="1.867" r="1.867" transform="translate(141.314 175.444)"/><path class="h" d="M443.878,821.761H249.627c-.416,0-.753-.148-.753-.329s.337-.33.753-.33H443.878c.416,0,.753.148.753.33S444.294,821.761,443.878,821.761Z" transform="translate(-173.112 -576.639)"/><path class="i" d="M781.73,543.835a2.746,2.746,0,0,1,.382.213l12.135-5.179.433-3.2,4.849-.03-.287,7.331-16.017,4.236a2.818,2.818,0,0,1-.121.327,2.769,2.769,0,1,1-1.374-3.7Z" transform="translate(-558.957 -368.411)"/><path class="j" d="M623.783,700.527h-3.317l-1.578-12.794h4.9Z" transform="translate(-381.448 -458.666)"/><path class="k" d="M605.1,731.518h6.4v4.028H601.076A4.028,4.028,0,0,1,605.1,731.518Z" transform="translate(-368.455 -490.605)"/><path class="j" d="M668.144,697.229l-3.3.325-2.825-12.577,4.872-.48Z" transform="translate(-412.909 -456.306)"/><path class="k" d="M4.028,0h6.4V4.028H0A4.028,4.028,0,0,1,4.028,0Z" transform="translate(245.474 240.932) rotate(-5.625)"/><circle class="i" cx="6.645" cy="6.645" r="6.645" transform="translate(236.614 140.402)"/><path class="k" d="M826.2,675.836a1.21,1.21,0,0,1-1.194-1c-1.717-9.53-7.329-40.692-7.463-41.555a.4.4,0,0,1,0-.06V630.9a.4.4,0,0,1,.076-.236l.741-1.038a.4.4,0,0,1,.31-.169c4.226-.2,18.068-.779,18.737.056h0c.672.84.435,3.384.38,3.885l0,.052,6.219,39.77a1.221,1.221,0,0,1-1,1.389l-3.884.64a1.223,1.223,0,0,1-1.36-.837c-1.2-3.839-5.229-16.752-6.626-21.749a.135.135,0,0,0-.265.038c.07,4.763.238,16.916.3,21.113l.006.452a1.223,1.223,0,0,1-1.107,1.227l-3.745.34C826.279,675.834,826.241,675.836,826.2,675.836Z" transform="translate(-587.926 -436.563)"/><path class="b" d="M827.567,493.587a5.556,5.556,0,0,0-2.252,3.245,30.76,30.76,0,0,0-1.321,7.348l-.421,7.467-5.209,19.8c4.515,3.82,7.12,2.952,13.2-.173s6.773,1.042,6.773,1.042l1.215-16.844,1.737-18.406a8.164,8.164,0,0,0-1.315-1.265,13.435,13.435,0,0,0-11.483-2.434Z" transform="translate(-588.525 -337.282)"/><path class="i" d="M835.824,555.33a2.866,2.866,0,0,1,.406.19l12-6.005.2-3.254,4.949-.341.265,7.417-16.034,5.3a2.84,2.84,0,1,1-1.784-3.309Z" transform="translate(-598.474 -375.908)"/><path class="b" d="M885.655,507.445c2.952,1.042,3.472,12.33,3.472,12.33-3.473-1.91-7.641,1.216-7.641,1.216s-.868-2.952-1.91-6.773a6.636,6.636,0,0,1,1.389-6.251A4.728,4.728,0,0,1,885.655,507.445Z" transform="translate(-632.982 -347.581)"/><path class="k" d="M856.017,437.785c-.828-.662-1.957.542-1.957.542l-.662-5.961a23.667,23.667,0,0,1-6.789-.166c-2.649-.661-3.063,2.4-3.063,2.4a21.27,21.27,0,0,1-.083-3.726c.166-1.49,2.318-2.981,6.127-3.974s5.8,3.312,5.8,3.312C858.034,431.537,856.846,438.447,856.017,437.785Z" transform="translate(-606.801 -288.981)"/></g></svg>