<svg xmlns="http://www.w3.org/2000/svg" xmlns:xlink="http://www.w3.org/1999/xlink" width="228.487" height="122.76" viewBox="0 0 228.487 122.76"><defs><style>.a{fill:url(#a);}.b{fill:url(#b);}.c{fill:#fff;}.d{fill:#ed1c24;}.e{fill:#cb1b2b;}.f,.g,.m{stroke:#707070;stroke-miterlimit:10;}.f{fill:url(#c);}.g{fill:url(#d);}.h{fill:#d72229;}.i{fill:#d52229;}.j{fill:#d0232a;}.k{fill:#ce242b;}.l{fill:#cd242b;}.m{fill:url(#e);}</style><linearGradient id="a" x1="-0.004" y1="0.516" x2="0.958" y2="0.485" gradientUnits="objectBoundingBox"><stop offset="0.23" stop-color="#e72c3a"/><stop offset="0.29" stop-color="#e42b38"/><stop offset="0.87" stop-color="#cd242b"/></linearGradient><linearGradient id="b" y1="0.5" x2="1" y2="0.5" gradientUnits="objectBoundingBox"><stop offset="0.01" stop-color="#fbc926"/><stop offset="0.25" stop-color="#fffbcc"/><stop offset="0.3" stop-color="#f8f0bb"/><stop offset="0.41" stop-color="#e7d28e"/><stop offset="0.55" stop-color="#cca246"/><stop offset="0.6" stop-color="#c3922e"/><stop offset="0.87" stop-color="#eed688"/><stop offset="1" stop-color="#fffbcc"/></linearGradient><linearGradient id="c" x1="1.704" y1="9.439" x2="2.892" y2="9.439" gradientUnits="objectBoundingBox"><stop offset="0" stop-color="#2a8841"/><stop offset="1" stop-color="#48a447"/></linearGradient><linearGradient id="d" x1="1.379" y1="11.635" x2="2.184" y2="11.635" xlink:href="#c"/><linearGradient id="e" x1="9.858" y1="-55.247" x2="10.653" y2="-55.247" xlink:href="#c"/></defs><g transform="translate(0.002 0.05)"><g transform="translate(-0.002 -0.05)"><path class="a" d="M303.5,135.491c-8.5,8.539-16.306,5-48.793,2.927-69.412-4.437-110.312,6.819-122.859,10.61-10.332,3.122-18.559,6.36-23.514,8.415-7.642-54.894,1.7-78.292,11.732-89.5,23.57-26.308,62.758,1.517,138.965-11.675A272.847,272.847,0,0,0,309.965,42.2C316.653,77.06,320.432,118.474,303.5,135.491Z" transform="translate(-96.334 -38.519)"/><path class="b" d="M281.668,3.63c6.688,34.861,10.463,76.274-6.467,93.292-4.128,4.15-8.1,5.448-14.812,5.448-7.1,0-17.281-1.453-33.981-2.522-11.13-.711-21.529-1.019-31.193-1.019-50.609,0-81.133,8.446-91.669,11.629-10.332,3.122-18.559,6.36-23.514,8.415-7.64-54.894,1.7-78.292,11.734-89.495,8.29-9.252,18.513-11.81,31.6-11.81,16.16,0,36.693,3.9,63.343,3.9A255.782,255.782,0,0,0,230.734,17.7,272.847,272.847,0,0,0,281.67,3.63m2.043-3.676L280.7,1.108A270.33,270.33,0,0,1,230.273,15.04a252.542,252.542,0,0,1-43.565,3.728c-14.855,0-27.794-1.22-39.2-2.3-9.088-.859-16.937-1.6-24.135-1.6-7.476,0-13.347.821-18.472,2.582A35.229,35.229,0,0,0,89.756,27.575a47.9,47.9,0,0,0-7.58,11.647,75.105,75.105,0,0,0-5.563,18.023,140.846,140.846,0,0,0-2.08,26.074,272.507,272.507,0,0,0,2.827,35.928l.483,3.464,3.229-1.343a246.854,246.854,0,0,1,23.264-8.323c24.928-7.532,56.356-11.514,90.887-11.514,10.058,0,20.5.342,31.018,1.014,7.541.482,13.868,1.054,18.953,1.514,6.258.565,11.2,1.012,15.2,1.012a26.779,26.779,0,0,0,9.286-1.327,19.706,19.706,0,0,0,7.437-4.918,34.2,34.2,0,0,0,5.883-8.1A50.286,50.286,0,0,0,286.9,80.8a95.821,95.821,0,0,0,3.1-23.78,204.2,204.2,0,0,0-1.448-26.806c-.944-8.29-2.364-17.405-4.223-27.1l-.61-3.166Z" transform="translate(-68.037 0.05)"/><path class="c" d="M89.048,128.4a12.553,12.553,0,0,1-10.877-5.634,41.665,41.665,0,0,1-2.644-5.539c-.137-.33-.271-.653-.405-.969a13.794,13.794,0,0,1-2.285,7.175,11.093,11.093,0,0,1-6.36,4.289,16.628,16.628,0,0,1-4.4.651,8.879,8.879,0,0,1-6.995-2.932c-2.075-2.38-2.806-5.913-2.178-10.5A3.79,3.79,0,0,1,58.222,112c.2.092.4.184.6.275l.111.051c.017-2.527.023-5.072.024-7.606L54.4,108.854a3.792,3.792,0,0,1-4.71.307c-3.687-2.561-5.876-7.352-6.162-13.491a27.224,27.224,0,0,1,2.788-13.7A23.759,23.759,0,0,1,62.136,70.035,36.511,36.511,0,0,1,70.555,69a28.994,28.994,0,0,1,15.634,4.48,21.485,21.485,0,0,1,7.6,7.783A19.354,19.354,0,0,1,96.041,92.3,18.184,18.184,0,0,1,92,102.67a19.072,19.072,0,0,1-4.386,3.871,31,31,0,0,1,2.034,3.126c.452.811,1.163,2.086,1.592,2.658a24.072,24.072,0,0,0,2.551-.527,3.789,3.789,0,0,1,4.626,3c.008.031.017.063.025.094a5.172,5.172,0,0,1,.095,2.764,9.149,9.149,0,0,0,.126,1.126,10,10,0,0,1,.008,3.977,6.488,6.488,0,0,1-4.055,4.531,14.527,14.527,0,0,1-5.572,1.107ZM74.8,85.861a3.79,3.79,0,0,1,.33,1.551v9.833a6.675,6.675,0,0,0,4.028-2.527,4.7,4.7,0,0,0,.871-3.811,5.9,5.9,0,0,0-2.869-3.9,16.281,16.281,0,0,0-2.36-1.151Z" transform="translate(-39.711 -62.984)"/><path class="d" d="M30.842,33.05a25.132,25.132,0,0,1,13.62,3.9c5.46,3.422,8.618,8.539,8.087,15.313-.523,6.709-4.514,10.9-10.35,13.211a70.565,70.565,0,0,1,4.428,6.3c1.909,3.423,2.664,4.618,4.642,4.618a17.33,17.33,0,0,0,3.71-.651,3.2,3.2,0,0,1,.181,1.213c-.669,2.353,1.767,5.636-1.722,7.1a10.618,10.618,0,0,1-4.1.815c-3.149,0-6.167-1.364-7.628-3.8A75.578,75.578,0,0,1,38.227,73.5c-1.092-2.383-2.557-4.153-5.285-4.153a7.478,7.478,0,0,0-1.274.116c0,2.142.087,4.294-.018,6.434-.242,4.763-2.13,7.4-5.89,8.426a12.928,12.928,0,0,1-3.4.516c-4.305,0-6.239-3.132-5.414-9.124.582.261,1.12.531,1.674.756a5.766,5.766,0,0,0,2.091.495c1.523,0,2.272-1.141,2.291-3.524.056-7.37.018-14.741.019-22.112V47.672h8.6V61.63h.32c4.307,0,7.9-.945,10.506-4.346C45.682,53.07,44.31,46.909,39.367,44a17.343,17.343,0,0,0-8.852-2.562A17.2,17.2,0,0,0,22.5,43.518c-6.57,3.432-8.324,10.315-4.454,17.435l-5.9,5.358C6.161,62.155,6.766,49.73,9.921,44.079A20.005,20.005,0,0,1,23.3,33.984a32.27,32.27,0,0,1,7.538-.934m0-7.58h0a40.245,40.245,0,0,0-9.3,1.141A28.475,28.475,0,0,0,11.082,31.4a28.181,28.181,0,0,0-7.78,8.98A30.736,30.736,0,0,0,.034,56.109c.343,7.344,3.108,13.178,7.787,16.427a7.6,7.6,0,0,0,1.88.951,7.61,7.61,0,0,0-.261,1.2,22.362,22.362,0,0,0,.01,6.814,13.472,13.472,0,0,0,3.063,6.692,11.974,11.974,0,0,0,4.674,3.291,14.02,14.02,0,0,0,5.177.941,20.488,20.488,0,0,0,5.4-.784,16.19,16.19,0,0,0,4.63-2.057,14.163,14.163,0,0,0,3.617-3.412,15.208,15.208,0,0,0,5.572,4.537,17.868,17.868,0,0,0,7.755,1.743,18.079,18.079,0,0,0,7.032-1.4,10.311,10.311,0,0,0,6.273-7.132,13.565,13.565,0,0,0,.057-5.432c-.016-.105-.034-.228-.05-.342a9.062,9.062,0,0,0-.252-3.944,7.58,7.58,0,0,0-9.014-5.865l-.139-.249c-.08-.144-.162-.287-.243-.427a21.633,21.633,0,0,0,7.1-14.8A23.057,23.057,0,0,0,57.393,39.7a25.259,25.259,0,0,0-8.9-9.166A32.7,32.7,0,0,0,30.842,25.47Z" transform="translate(0.002 -23.246)"/><path class="c" d="M2137.007,374.151a11.525,11.525,0,0,1-7.55-2.82,16.469,16.469,0,0,1-8.863,2.731,13.988,13.988,0,0,1-9.967-4.172c-6.385-6.263-7.314-17.77-2.024-25.124a15.614,15.614,0,0,1,5.46-4.792,14.662,14.662,0,0,1,6.836-1.655,16.886,16.886,0,0,1,6.9,1.531,7.961,7.961,0,0,1,4.4-1.213c.679,0,1.319.062,1.884.116.449.043.871.087,1.22.087a1.865,1.865,0,0,0,.533-.057,3.791,3.791,0,0,1,4.966,3.6v15.368c0,.284,0,.534.007.755q.23-.057.5-.13a3.789,3.789,0,0,1,4.618,2.62c0,.01.008.021.011.03a4.781,4.781,0,0,1,.268,2.643,7.887,7.887,0,0,0,.087,1.081,10.015,10.015,0,0,1-.092,3.8,6.537,6.537,0,0,1-3.83,4.389,12.9,12.9,0,0,1-5.365,1.21ZM2123.081,352.8a2.655,2.655,0,0,0-1.417.943,3.9,3.9,0,0,0-1.061,2.3v.01a3.74,3.74,0,0,0,1.1,2.5,2.342,2.342,0,0,0,1.394.814h.028a1.633,1.633,0,0,0,1.371-.58,5.155,5.155,0,0,0-.032-5.366,1.653,1.653,0,0,0-1.365-.614Z" transform="translate(-1921.744 -308.836)"/><path class="e" d="M2081.143,302.437a13.9,13.9,0,0,1,7.554,2.4,4.02,4.02,0,0,1,3.746-2.086c1.007,0,2.057.2,3.1.2a5.47,5.47,0,0,0,1.711-.244v15.371c0,3.549.348,4.839,2.227,4.839a12.963,12.963,0,0,0,3.045-.551c.077.3.268.63.2.9-.446,2.224,1.413,5.133-1.694,6.553a9.15,9.15,0,0,1-3.789.871,7.929,7.929,0,0,1-6.094-2.917c-.348-.4-.624-.844-.943-1.273a14.129,14.129,0,0,1-9.376,4.1,10.262,10.262,0,0,1-7.308-3.084c-5.069-4.972-5.808-14.366-1.605-20.209a11.19,11.19,0,0,1,9.219-4.871m2.216,21.046c3.537,0,5.9-2.818,5.9-7.036,0-4.2-2.421-7.1-5.925-7.1h-.025c-2.993.014-6.164,3.525-6.253,6.929-.1,3.565,3.018,7.17,6.228,7.21h.075m-2.216-28.627h0a18.412,18.412,0,0,0-8.588,2.091,19.315,19.315,0,0,0-6.783,5.932v.005a21.817,21.817,0,0,0-3.438,7.52,24.746,24.746,0,0,0-.639,7.935,24.5,24.5,0,0,0,1.889,7.734,21.3,21.3,0,0,0,4.633,6.852,18.429,18.429,0,0,0,5.833,3.906,17.552,17.552,0,0,0,6.79,1.352,19.416,19.416,0,0,0,7.74-1.651q.435-.19.871-.4a15.16,15.16,0,0,0,7.8,2.139,16.683,16.683,0,0,0,6.929-1.547l.012-.006a10.392,10.392,0,0,0,5.925-6.889,13.558,13.558,0,0,0,.187-5.183c-.015-.13-.033-.289-.046-.416a8.615,8.615,0,0,0-.481-4.087,7.58,7.58,0,0,0-4.937-4.99V302.714a7.58,7.58,0,0,0-9.463-7.343c-.188-.011-.45-.037-.688-.059-.616-.059-1.384-.133-2.243-.133a12.022,12.022,0,0,0-4.59.849,20.283,20.283,0,0,0-6.709-1.168Z" transform="translate(-1881.988 -269.164)"/><path class="c" d="M1389.479,402.592a2.987,2.987,0,0,0-.229-1.14c-4.394,1.247-5.222.577-5.235-4.167-.012-4.973,0-9.933,0-15.734-2.98,1.541-6.33-1.621-8.418,2.426a11.972,11.972,0,0,0-16.85,2.373c-4.152,5.869-3.516,15.248,1.554,20.25,4.483,4.423,11.132,4.1,16.748-.911.383.483.739,1,1.159,1.46a8.034,8.034,0,0,0,9.68,1.756C1390.854,407.5,1389,404.71,1389.479,402.592Zm-19.256,0c-3.273.04-6.292-3.364-6.266-7.077.012-3.524,2.954-6.956,6.037-7.063,3.5-.107,6.088,2.855,6.1,6.983.012,4.261-2.318,7.117-5.872,7.157Z" transform="translate(-1237.866 -348.274)"/><path class="c" d="M1037.334,412.7c-1.532-1.757-2.788-3.187-4.031-4.633a8.759,8.759,0,0,1-.6-.859l11.646-13.227c-3.193,0-6.248-.183-9.276.048-3.59.274-2.637-2.327-2.737-4.311-.1-2.008-.323-3.828,2.686-3.7,5.654.237,11.327.227,16.983-.005,2.431-.1,2.9,1.434,3.528,3.158.647,1.782,1.6,3.369-.411,5.163-3.039,2.709-5.774,5.8-9.085,9.181,5.223.969,8.552,3.563,9.916,8.329a14.668,14.668,0,0,1-1.68,12.13c-1.816,2.948-4.381,5.751-7.6,5.148-1.648-.309-2.726-3.985-4.189-6.348,3.524-1.156,6.1-2.646,6.424-6.36a5.92,5.92,0,0,0-3.144-5.872c-3.122-1.876-5.718-.391-8.427,2.163Z" transform="translate(-942.342 -352.37)"/><path class="c" d="M1820.083,402.3a5.114,5.114,0,0,1,.19,1.192c-.311,2.415,1.317,5.576-2.642,6.525-4.461,1.067-8.016.125-9.534-3.6-.932-2.285-1-5-1.237-7.549-.194-2.04.184-4.165-.179-6.153-.215-1.179-1.235-2.853-2.15-3.063a4.22,4.22,0,0,0-3.673,1.354,9.168,9.168,0,0,0-1.394,4.792c-.191,4.327-.078,8.668-.1,13a4.707,4.707,0,0,1-.192.845h-7.616V382.787c2.813.362,5.653-1.058,8.246,1.157a26.525,26.525,0,0,1,5.18-1.533c5.042-.491,8.784,2.62,9.553,7.949a58.787,58.787,0,0,1,.274,7.779c.048,4.71.688,5.264,5.27,4.167Z" transform="translate(-1635.461 -349.04)"/><path class="c" d="M674.563,380.8c-7.693.017-13.552,6.084-13.563,14.045,0,7.894,5.731,14.166,13.069,14.273,7.641.107,13.627-5.977,13.692-13.911C687.809,387.1,682.027,380.787,674.563,380.8Zm-.1,21.121c-3.07.027-6.152-2.948-6.458-6.259a6.9,6.9,0,0,1,5.108-7.3c.866,5.9,1.618,6.622,7.629,7.319C680.205,399.335,677.642,401.881,674.462,401.921Z" transform="translate(-603.407 -347.616)"/><path class="f" d="M557.065,779.1a14.473,14.473,0,0,1,4.775-8.626,25.765,25.765,0,0,1,8.688-4.957c1.012,3.951,2.029,8.068,1.211,12.064-.712,3.474-4.9,10.288-8.7,11.184-.117.028-.232.048-.349.065a27.918,27.918,0,0,1,3.524-11.17,1,1,0,1,0-1.743-.992,29.948,29.948,0,0,0-3.766,11.85C557.88,787.092,556.732,781.693,557.065,779.1Z" transform="translate(-508.477 -698.816)"/><path class="g" d="M344.56,870.776c3.129,1.859,8.364,8.016,8.01,11.744a3.149,3.149,0,0,1-.326,1.148,28.263,28.263,0,0,1-11.042-9.156,1,1,0,0,0-1.632,1.161,30.287,30.287,0,0,0,11.086,9.452c-2.624,1.242-7.232.441-9.347-.626a15.3,15.3,0,0,1-6.8-7.319,24.4,24.4,0,0,1-2-9.549C336.655,868.108,340.962,868.638,344.56,870.776Z" transform="translate(-303.538 -792.029)"/><path class="c" d="M1627.859,930.989a2.217,2.217,0,0,1-1.76-.958,2.923,2.923,0,0,0-.5-.515c-.617-.333-1.232-.667-1.83-1a1.635,1.635,0,0,1-.2-.129,4.815,4.815,0,0,1-1.86-3.412h-1.152a2.242,2.242,0,0,1-2.205-1.122c-.014-.028-.027-.056-.04-.087a2.852,2.852,0,0,1-.2-1.164v-1.964a2.621,2.621,0,0,1,.279-1.3,2.245,2.245,0,0,1,2.17-1.075h5.715a3.531,3.531,0,0,1,.722.07,1.632,1.632,0,0,0-.206-.821.9.9,0,0,0-.253-.087l-.044-.011a1.952,1.952,0,0,1-1.688-1.885c0-.976.831-1.547,1.794-2.207,1.279-.867,1.864-1.313,2.13-1.536l.01-.008a12.317,12.317,0,0,0,1.432-1.455l.014-.016c.727-.823,1.211-1.326,1.991-1.326a1.808,1.808,0,0,1,1.743,1.442,5.22,5.22,0,0,1,.145,1.378V924.3a4.963,4.963,0,0,1-1.9,4.1,1.492,1.492,0,0,1-.208.135c-.61.328-1.22.661-1.817.987a3.1,3.1,0,0,0-.531.527A2.234,2.234,0,0,1,1627.859,930.989Zm0-21.232a3.559,3.559,0,0,1-2.445-.936,3.252,3.252,0,0,1,0-4.839,3.659,3.659,0,0,1,4.889,0,3.252,3.252,0,0,1,0,4.839A3.558,3.558,0,0,1,1627.859,909.757Z" transform="translate(-1477.124 -824.359)"/><path class="h" d="M1611.92,888.607a2.022,2.022,0,0,1,1.414.535,1.726,1.726,0,0,1,0,2.59,2.135,2.135,0,0,1-2.829,0,1.726,1.726,0,0,1,0-2.59,2.022,2.022,0,0,1,1.415-.535m4.319,5.939q.358,0,.358,1.295v12.5a3.419,3.419,0,0,1-1.3,2.882q-.958.518-1.906,1.036a4.451,4.451,0,0,0-.905.864.611.611,0,0,1-1.131,0,4.147,4.147,0,0,0-.887-.864q-.959-.517-1.9-1.036a3.4,3.4,0,0,1-1.3-2.882v-.846h-2.641q-.7,0-.849-.294a1.488,1.488,0,0,1-.076-.552v-1.967a1.271,1.271,0,0,1,.095-.57c.1-.183.377-.276.829-.276h5.715q.68,0,.849.294a1.483,1.483,0,0,1,.075.552V908.2q0,.6.661.6.679,0,.679-.6v-5.368a3.517,3.517,0,0,0-.584-2.265,1.9,1.9,0,0,0-1.056-.587q-.567-.154-.566-.414,0-.174,1.133-.95,1.6-1.087,2.245-1.622a13.648,13.648,0,0,0,1.621-1.638q.716-.81.849-.811m-4.318-8.986a5.059,5.059,0,0,0-3.474,1.335,4.774,4.774,0,0,0,0,7.089,5,5,0,0,0,2.589,1.263c-.3.216-.7.494-1.22.851l-.014.009c-.463.318-.817.581-1.085.805a3.454,3.454,0,0,0-1.372,2.659,3.317,3.317,0,0,0,.234,1.214h-2.955a3.721,3.721,0,0,0-3.506,1.864l-.005.01a4.146,4.146,0,0,0-.463,2.021v1.968a4.3,4.3,0,0,0,.332,1.776c.025.057.052.113.08.169a3.693,3.693,0,0,0,3.473,1.95,6.218,6.218,0,0,0,2.171,3.1,3.064,3.064,0,0,0,.393.261c.555.3,1.126.615,1.7.924a2.032,2.032,0,0,1,.161.184l.01.013a3.612,3.612,0,0,0,5.889.024,2.134,2.134,0,0,1,.2-.22c.552-.3,1.118-.61,1.682-.914a3.049,3.049,0,0,0,.417-.27,6.4,6.4,0,0,0,2.489-5.3v-12.5a6.653,6.653,0,0,0-.2-1.784,3.657,3.657,0,0,0-.7-1.377,3.255,3.255,0,0,0-1.9-1.128,4.792,4.792,0,0,0-1.445-4.659A5.059,5.059,0,0,0,1611.92,885.557Z" transform="translate(-1461.185 -808.394)"/><path class="c" d="M1836.6,762.951a1.525,1.525,0,0,1-1.525-1.525V728.37a5.21,5.21,0,0,1,.145-1.378,1.8,1.8,0,0,1,1.743-1.442c.784,0,1.268.507,1.98,1.336a13.3,13.3,0,0,0,1.424,1.439c.415.343,1.144.871,2.167,1.562.924.619,1.8,1.209,1.8,2.211a1.953,1.953,0,0,1-1.687,1.885l-.056.014a1.008,1.008,0,0,0-.261.087,2.559,2.559,0,0,0-.206,1.274v26.067a1.525,1.525,0,0,1-1.525,1.525Z" transform="translate(-1675.189 -662.328)"/><path class="i" d="M1821.015,711.1q.131,0,.83.811a14.788,14.788,0,0,0,1.6,1.615q.679.56,2.282,1.649,1.133.76,1.133.949c0,.174-.189.311-.566.415a1.913,1.913,0,0,0-1.074.587,3.565,3.565,0,0,0-.566,2.26v26.067h-4V712.394q0-1.295.358-1.295m0-3.05a3.246,3.246,0,0,0-2.5,1.182,3.673,3.673,0,0,0-.706,1.378,6.665,6.665,0,0,0-.2,1.784v33.057a3.05,3.05,0,0,0,3.05,3.05h4a3.05,3.05,0,0,0,3.05-3.05V719.271a3.392,3.392,0,0,0,2.205-3.148,3.454,3.454,0,0,0-1.373-2.669,13.053,13.053,0,0,0-1.1-.808c-1.22-.829-1.786-1.257-2.045-1.472a11.547,11.547,0,0,1-1.244-1.264,4.124,4.124,0,0,0-3.137-1.86Z" transform="translate(-1659.241 -646.353)"/><path class="c" d="M1900.538,949.631a13.43,13.43,0,0,1-4.294-.734c-1.317-.436-1.985-1.143-1.985-2.1,0-.316.119-1.893,2.478-1.893.1,0,.208,0,.32.007.174.009.349.012.515.012a5.278,5.278,0,0,0,3.564-1.068,2.817,2.817,0,0,0,1.008-2.254,2.863,2.863,0,0,0-.282-1.271.016.016,0,0,0-.007-.015c-.061-.13-.1-.142-.145-.157a2.4,2.4,0,0,1-1.764-1.533l-.01-.045c-.241-1.094.66-1.822,1.455-2.464.848-.687,1.447-1.205,1.778-1.534a7.546,7.546,0,0,0,1-1.334.036.036,0,0,0,.006-.01c.481-.754.978-1.534,1.946-1.534,1.371,0,1.846,1.464,2.129,2.345a20.052,20.052,0,0,1,1.133,6.223,11.083,11.083,0,0,1-1.147,5.1C1907.226,947.314,1905.078,949.631,1900.538,949.631Zm3.413-19.851a3.555,3.555,0,0,1-2.44-.936,3.249,3.249,0,0,1,0-4.838,3.659,3.659,0,0,1,4.888,0,3.252,3.252,0,0,1,0,4.839A3.558,3.558,0,0,1,1903.951,929.78Z" transform="translate(-1729.213 -842.639)"/><path class="j" d="M1887.949,908.608a2.019,2.019,0,0,1,1.415.536,1.726,1.726,0,0,1,0,2.589,2.137,2.137,0,0,1-2.829,0,1.726,1.726,0,0,1,0-2.589,2.017,2.017,0,0,1,1.414-.536m2.17,8.632q.261,0,.679,1.294a18.419,18.419,0,0,1,1.056,5.751,9.532,9.532,0,0,1-.98,4.4q-1.773,3.435-6.337,3.435a11.866,11.866,0,0,1-3.81-.656q-.944-.311-.943-.655,0-.369.953-.369c.08,0,.165,0,.254.006.2.009.392.013.581.013a6.7,6.7,0,0,0,4.568-1.446,4.334,4.334,0,0,0,1.528-3.4,4.386,4.386,0,0,0-.436-1.933,1.723,1.723,0,0,0-1.046-.958c-.47-.155-.726-.308-.763-.458q-.037-.174.924-.95,1.338-1.087,1.9-1.64a9.225,9.225,0,0,0,1.22-1.6q.528-.829.66-.829m-2.17-11.682a5.054,5.054,0,0,0-3.473,1.336,4.775,4.775,0,0,0,0,7.089,5.039,5.039,0,0,0,3.224,1.329c-.067.074-.134.152-.2.234a10.37,10.37,0,0,0-.617.884l-.012.019a5.876,5.876,0,0,1-.784,1.06c-.2.2-.658.615-1.665,1.434a10.868,10.868,0,0,0-.979.871,3.29,3.29,0,0,0-1,3.107l.021.087a3.384,3.384,0,0,0,1.609,2.1,4.945,4.945,0,0,0,.523.27,1.545,1.545,0,0,1,.016.235,1.308,1.308,0,0,1-.492,1.111,3.871,3.871,0,0,1-2.555.687c-.141,0-.289,0-.436-.01h-.011c-.133-.006-.261-.009-.384-.009a4.9,4.9,0,0,0-1.813.3,3.352,3.352,0,0,0-2.19,3.121,3.446,3.446,0,0,0,1.546,2.84,5.69,5.69,0,0,0,1.481.708,14.974,14.974,0,0,0,4.776.813,11.023,11.023,0,0,0,5.315-1.227,8.959,8.959,0,0,0,3.727-3.859l.006-.01a12.622,12.622,0,0,0,1.314-5.79,21.491,21.491,0,0,0-1.207-6.7,9.029,9.029,0,0,0-.575-1.439,3.488,3.488,0,0,0-2.108-1.83,4.988,4.988,0,0,0,.409-.339,4.774,4.774,0,0,0,0-7.088,5.053,5.053,0,0,0-3.474-1.336Z" transform="translate(-1713.21 -826.651)"/><path class="c" d="M2098.361,1013.516a9.251,9.251,0,0,1-1.784-.2,4.983,4.983,0,0,1-1.251-.381,1.851,1.851,0,0,1-1.149-1.685,1.657,1.657,0,0,1,1.331-1.6c.241-.087.575-.179,1.02-.293l.027-.007a3.546,3.546,0,0,0,1.568-.713l.018-.015a1.866,1.866,0,0,0,.365-.442h-2.767a2.339,2.339,0,0,1-2.449-2.492v-1.967a6.841,6.841,0,0,1,2.151-5.141l.013-.012a8.531,8.531,0,0,1,2.842-1.728l.054-.019,2.325-.777a5.977,5.977,0,0,0,1.362-.856c.852-.7,1.307-1,1.907-1a1.869,1.869,0,0,1,1.738,1.22,3.6,3.6,0,0,1,.22,1.375v9.874a6.422,6.422,0,0,1-2.178,4.934A7.689,7.689,0,0,1,2098.361,1013.516Z" transform="translate(-1910.901 -907.562)"/><path class="k" d="M2087.969,979.731q.436,0,.436,1.07v9.874a4.94,4.94,0,0,1-1.678,3.807,6.184,6.184,0,0,1-4.338,1.527,7.745,7.745,0,0,1-1.49-.174q-1.169-.22-1.169-.569,0-.1,1.207-.415a5.027,5.027,0,0,0,2.244-1.07,3.934,3.934,0,0,0,1.226-3.107h-4.642q-.925,0-.925-.967V987.74a5.354,5.354,0,0,1,1.679-4.039,6.968,6.968,0,0,1,2.339-1.417l2.377-.794a7.352,7.352,0,0,0,1.791-1.1,3.264,3.264,0,0,1,.944-.656m-5.357,7.284h1.792v-1.76a2.415,2.415,0,0,0-1.273.639,1.5,1.5,0,0,0-.519,1.121m5.357-10.334a4.458,4.458,0,0,0-2.87,1.342,4.606,4.606,0,0,1-.946.61l-.281.094-1.98.661c-.036.012-.073.024-.108.038a10.055,10.055,0,0,0-3.346,2.041l-.025.024a8.427,8.427,0,0,0-2.622,6.245V989.7a3.93,3.93,0,0,0,1.772,3.4,3.082,3.082,0,0,0-.883,2.161,3.385,3.385,0,0,0,2,3.057,6.429,6.429,0,0,0,1.627.505,10.639,10.639,0,0,0,2.076.23,9.193,9.193,0,0,0,6.39-2.321,8,8,0,0,0,2.676-6.063V980.8a5.052,5.052,0,0,0-.332-1.947,3.368,3.368,0,0,0-3.151-2.172Z" transform="translate(-1894.926 -891.578)"/><path class="c" d="M2247.038,1040.069a13.436,13.436,0,0,1-4.293-.735c-1.317-.436-1.986-1.143-1.986-2.1a1.812,1.812,0,0,1,1.215-1.7,3.46,3.46,0,0,1,1.264-.194c.1,0,.208,0,.319.007.178.009.348.012.516.012a5.276,5.276,0,0,0,3.563-1.068,2.817,2.817,0,0,0,1.008-2.254,2.862,2.862,0,0,0-.282-1.271l-.007-.014c-.061-.131-.1-.143-.145-.158a2.4,2.4,0,0,1-1.763-1.532c0-.015-.008-.031-.011-.046-.24-1.094.66-1.822,1.456-2.464.848-.688,1.447-1.206,1.777-1.534a7.574,7.574,0,0,0,1-1.334l.006-.01c.48-.754.978-1.533,1.946-1.533,1.372,0,1.846,1.465,2.128,2.346a20,20,0,0,1,1.133,6.222,11.083,11.083,0,0,1-1.147,5.1C2253.727,1037.752,2251.578,1040.069,2247.038,1040.069Z" transform="translate(-2045.522 -933.077)"/><path class="l" d="M2236.627,1007.708q.261,0,.679,1.294a18.417,18.417,0,0,1,1.056,5.751,9.525,9.525,0,0,1-.981,4.4q-1.772,3.435-6.337,3.435a11.866,11.866,0,0,1-3.81-.656q-.943-.311-.944-.655,0-.369.954-.369c.079,0,.164,0,.253.006q.3.013.581.013a6.7,6.7,0,0,0,4.568-1.446,4.339,4.339,0,0,0,1.527-3.4,4.4,4.4,0,0,0-.436-1.933,1.725,1.725,0,0,0-1.046-.958q-.708-.233-.764-.457-.037-.174.925-.95,1.338-1.087,1.9-1.64a9.22,9.22,0,0,0,1.22-1.6q.528-.829.66-.829m0-3.049a3.275,3.275,0,0,0-2.614,1.356,10.218,10.218,0,0,0-.616.883.127.127,0,0,0-.012.019,5.932,5.932,0,0,1-.784,1.06c-.2.2-.658.615-1.667,1.434a11.178,11.178,0,0,0-.978.871,3.289,3.289,0,0,0-1.006,3.107c.007.03.014.061.022.087a3.383,3.383,0,0,0,1.609,2.1,5.017,5.017,0,0,0,.523.27,1.549,1.549,0,0,1,.016.235,1.309,1.309,0,0,1-.491,1.11,3.867,3.867,0,0,1-2.555.688c-.142,0-.29,0-.44-.011h-.01c-.132-.006-.261-.009-.384-.009a4.9,4.9,0,0,0-1.814.3,3.353,3.353,0,0,0-2.19,3.121,3.449,3.449,0,0,0,1.546,2.84,5.739,5.739,0,0,0,1.481.708,14.983,14.983,0,0,0,4.778.813,11.023,11.023,0,0,0,5.315-1.227,8.956,8.956,0,0,0,3.728-3.859.05.05,0,0,0,.006-.01,12.6,12.6,0,0,0,1.315-5.79,21.484,21.484,0,0,0-1.207-6.7,9.1,9.1,0,0,0-.576-1.44,3.35,3.35,0,0,0-3-1.956Z" transform="translate(-2029.529 -917.12)"/><path class="c" d="M1467.441,864.577a2.339,2.339,0,0,1-2.449-2.492v-1.967a6.843,6.843,0,0,1,2.15-5.141l.015-.013a10.3,10.3,0,0,1,3.4-1.882,2.293,2.293,0,0,0-.211-1.133,1.054,1.054,0,0,0-.284-.111,1.956,1.956,0,0,1-1.71-1.892c0-.976.831-1.546,1.793-2.206,1.28-.871,1.865-1.314,2.13-1.536l.029-.024a11.107,11.107,0,0,0,1.415-1.422c.682-.79,1.174-1.36,1.986-1.36a1.81,1.81,0,0,1,1.743,1.422,5.027,5.027,0,0,1,.155,1.394v11.652h1.116a1.523,1.523,0,0,1,1,.375,1.868,1.868,0,0,0,.208.087h.009a1.978,1.978,0,0,1,1.23,1.9V862.2a1.978,1.978,0,0,1-1.206,1.892,2.579,2.579,0,0,0-.271.128,1.524,1.524,0,0,1-.972.349Zm6.244-20.991a3.559,3.559,0,0,1-2.445-.935c-.075-.069-.147-.14-.215-.214q-.1.111-.215.214a3.66,3.66,0,0,1-4.888,0,3.252,3.252,0,0,1,0-4.839,3.66,3.66,0,0,1,4.888,0q.114.1.215.214c.068-.073.14-.145.215-.214a3.659,3.659,0,0,1,4.889,0,3.252,3.252,0,0,1,0,4.839A3.556,3.556,0,0,1,1473.685,843.586Z" transform="translate(-1337.21 -763.954)"/><path class="h" d="M1457.714,822.42a2.022,2.022,0,0,1,1.414.535,1.726,1.726,0,0,1,0,2.589,2.137,2.137,0,0,1-2.829,0,1.726,1.726,0,0,1,0-2.589,2.021,2.021,0,0,1,1.415-.535m-5.315,0a2.022,2.022,0,0,1,1.414.535,1.724,1.724,0,0,1,0,2.589,2.137,2.137,0,0,1-2.828,0,1.726,1.726,0,0,1,0-2.589,2.02,2.02,0,0,1,1.414-.535m7.337,6.525q.378,0,.377,1.295V843.41h2.641a1.951,1.951,0,0,0,.66.363.458.458,0,0,1,.261.483v1.968a.458.458,0,0,1-.261.484,2.561,2.561,0,0,0-.66.362h-11.284q-.925,0-.925-.967v-1.967a5.354,5.354,0,0,1,1.679-4.039,10.9,10.9,0,0,1,3.886-1.917v-.931a3.526,3.526,0,0,0-.585-2.278,2.043,2.043,0,0,0-1.057-.587c-.377-.092-.565-.23-.565-.415q0-.174,1.133-.949,1.6-1.087,2.245-1.622a12.568,12.568,0,0,0,1.623-1.623q.715-.829.829-.829m-5.413,14.464h1.792v-1.76a2.416,2.416,0,0,0-1.274.639,1.521,1.521,0,0,0-.523,1.121m3.4-24.04a5.1,5.1,0,0,0-2.66.725,5.209,5.209,0,0,0-6.133.61,4.777,4.777,0,0,0,0,7.089,5.208,5.208,0,0,0,6.132.61,4.936,4.936,0,0,0,.646.328c-.129.121-.234.211-.316.276l-.057.046c-.2.164-.719.569-2,1.44l-.014.01c-.462.317-.816.58-1.084.8a3.453,3.453,0,0,0-1.371,2.659,3.317,3.317,0,0,0,1.22,2.571,8.848,8.848,0,0,0-1.927,1.325l-.029.027a8.431,8.431,0,0,0-2.622,6.245V846.1a3.864,3.864,0,0,0,3.974,4.017h11.28a3.049,3.049,0,0,0,1.781-.575l.047-.021a3.473,3.473,0,0,0,2.144-3.3v-1.967a3.474,3.474,0,0,0-2.187-3.317,3.044,3.044,0,0,0-1.377-.551V830.24a6.46,6.46,0,0,0-.216-1.824,3.639,3.639,0,0,0-.934-1.593,4.774,4.774,0,0,0-.822-6.118,5.054,5.054,0,0,0-3.473-1.335Z" transform="translate(-1321.24 -747.972)"/><path class="m" d="M690.273,944.277a13.392,13.392,0,0,1,8.452-3.441,23.786,23.786,0,0,1,9.136,1.481c-1.568,3.433-3.224,6.989-6.136,9.391-2.527,2.091-9.507,4.561-12.762,3-.1-.048-.2-.1-.286-.154a25.835,25.835,0,0,1,9.027-6,.927.927,0,0,0-.677-1.725,27.7,27.7,0,0,0-9.6,6.342C686.211,950.5,688.528,945.949,690.273,944.277Z" transform="translate(-627.224 -858.827)"/><rect class="c" width="5.747" height="3.659" transform="translate(140.891 95.438)"/></g></g></svg>