<svg xmlns="http://www.w3.org/2000/svg" xmlns:xlink="http://www.w3.org/1999/xlink" width="209.023" height="161.797" viewBox="0 0 209.023 161.797"><defs><style>.a,.e{opacity:0.8;}.b{fill:url(#a);}.c{fill:#fff;}.d{fill:#f5f5f5;}.e,.j{fill:#e0e0e0;}.f{fill:#ff5252;}.g{fill:#ff0;}.h{fill:#69f0ae;}.i{fill:url(#b);}.k{fill:#e72c3a;}.l{fill:#333;}.m{opacity:0.1;}.n{fill:#ffbe9d;}.o{fill:#fdb797;}.p{fill:none;stroke:#000;stroke-miterlimit:10;stroke-width:4px;opacity:0.05;}.q{fill:#ff9e02;}</style><linearGradient id="a" x1="0.5" y1="1" x2="0.5" gradientUnits="objectBoundingBox"><stop offset="0" stop-color="gray" stop-opacity="0.251"/><stop offset="0.54" stop-color="gray" stop-opacity="0.122"/><stop offset="1" stop-color="gray" stop-opacity="0.102"/></linearGradient><linearGradient id="b" y2="0" xlink:href="#a"/></defs><g transform="translate(-0.049)"><g class="a" transform="translate(10.853 33.597)"><path class="b" d="M376.409,366.349H196.52V250a3.669,3.669,0,0,1,3.669-3.669H372.74A3.669,3.669,0,0,1,376.409,250Z" transform="translate(-196.52 -246.33)"/></g><path class="c" d="M60.9,153.77H228.5a3.669,3.669,0,0,1,3.669,3.669V271.676H57.24V157.442A3.669,3.669,0,0,1,60.9,153.77Z" transform="translate(-43.909 -118.059)"/><rect class="d" width="163.668" height="107.351" transform="translate(18.963 42.571)"/><rect class="e" width="162.973" height="96.582" transform="translate(19.59 47.782)"/><rect class="d" width="162.973" height="5.132" transform="translate(19.59 42.65)"/><circle class="f" cx="1.245" cy="1.245" r="1.245" transform="translate(21.84 43.895)"/><circle class="g" cx="1.245" cy="1.245" r="1.245" transform="translate(25.261 43.895)"/><circle class="h" cx="1.245" cy="1.245" r="1.245" transform="translate(28.684 43.895)"/><g class="a" transform="translate(0.049 142.274)"><path class="i" d="M345.725,733.347c-10.014.759-181.984.464-187.992,0-7.877-3.8-7.733-18.53-7.733-18.53l78.867-.527.265,4.484H262.88l1.319-3.948h87.4S353.335,728.333,345.725,733.347Z" transform="translate(-149.999 -714.29)"/></g><path class="d" d="M354.2,721.67H268.509a2.631,2.631,0,0,1-2,4.352H233.794a2.631,2.631,0,0,1-2-4.352H155.06s-.132,12.794,7.65,16.1c5.934.395,175.8.66,185.693,0C355.929,733.407,354.2,721.67,354.2,721.67Z" transform="translate(-153.835 -577.682)"/><circle class="j" cx="1.054" cy="1.054" r="1.054" transform="translate(17.976 145.704)"/><circle class="j" cx="1.054" cy="1.054" r="1.054" transform="translate(21.141 145.704)"/><circle class="j" cx="1.054" cy="1.054" r="1.054" transform="translate(24.304 145.704)"/><path class="k" d="M312.777,375.85h7.476a32.4,32.4,0,0,1,32.4,32.4V431.8H280.38V408.247A32.4,32.4,0,0,1,312.777,375.85Z" transform="translate(-215.228 -288.564)"/><circle class="l" cx="33.028" cy="33.028" r="33.028" transform="translate(68.329 8.632)"/><path class="m" d="M393.044,334.43H402.6a6.735,6.735,0,0,1,6.735,6.735v6.563a10.3,10.3,0,0,1-10.3,10.3H396.6a10.3,10.3,0,0,1-10.3-10.3v-6.554a6.735,6.735,0,0,1,6.735-6.735Z" transform="translate(-296.55 -256.764)"/><path class="n" d="M386.3,331.53h23.042v13.307a10.3,10.3,0,0,1-10.3,10.3H396.6a10.3,10.3,0,0,1-10.3-10.3V331.53Z" transform="translate(-296.55 -254.537)"/><path class="m" d="M536.43,438.356a33.163,33.163,0,0,0,23.042.063V435.59H536.43Z" transform="translate(-446.638 -358.04)"/><circle class="n" cx="33.028" cy="33.028" r="33.028" transform="translate(68.329 15.801)"/><path class="m" d="M450.26,182.58h62.982s-5.376-25.432-29.187-23.823S450.26,182.58,450.26,182.58Z" transform="translate(-380.48 -145.441)"/><path class="l" d="M450.26,178.935h62.982s-5.376-25.432-29.187-23.811S450.26,178.935,450.26,178.935Z" transform="translate(-380.48 -142.651)"/><ellipse class="o" cx="3.072" cy="5.762" rx="3.072" ry="5.762" transform="translate(65.939 41.661)"/><ellipse class="o" cx="3.072" cy="5.762" rx="3.072" ry="5.762" transform="translate(130.459 41.661)"/><path class="l" d="M468.058,124.633a11.7,11.7,0,0,1,4.245-6.294,22.154,22.154,0,0,1,5.381-2.308,41.127,41.127,0,0,0,7.822-3.741c2.8-1.725,5.432-3.8,8.516-4.944,5.307-1.962,11.217-.9,16.7.506a14.011,14.011,0,0,1,3.9,1.451,14.786,14.786,0,0,1,3.465,3.353l8.695,10.488a16.572,16.572,0,0,1,2.16,3.045,10.475,10.475,0,0,1,.989,3.435A9.028,9.028,0,0,1,529,135.26c-1.47,2.51-4.5,3.771-7.406,3.888a26.965,26.965,0,0,1-8.549-1.544c-9-2.636-18.114-5.093-27.45-6.187a77.43,77.43,0,0,0-13.969-.453c-1.463.1-3.4.766-4.285-.725C466.574,128.946,467.661,125.929,468.058,124.633Z" transform="translate(-393.389 -105.2)"/><line class="p" y2="25.643" transform="translate(79.3 117.59)"/><line class="p" y2="25.643" transform="translate(123.852 117.59)"/><g class="a" transform="translate(144.316)"><path class="b" d="M686.016,46.092H644.572L630.584,57.755V46.092H621.26V0h64.756Z" transform="translate(-621.26)"/></g><rect class="c" width="63.001" height="44.076" transform="translate(145.194 0.548)"/><rect class="j" width="49.919" height="1.31" transform="translate(152.289 7.027)"/><rect class="j" width="34.32" height="1.31" transform="translate(152.289 12.926)"/><rect class="j" width="41.185" height="1.31" transform="translate(152.289 18.823)"/><rect class="q" width="33.073" height="1.31" transform="translate(152.289 24.721)"/><rect class="q" width="49.919" height="1.31" transform="translate(152.289 30.618)"/><rect class="j" width="49.919" height="1.31" transform="translate(152.289 36.517)"/><path class="c" d="M671.45,184.606v11.658l12.822-12.824Z" transform="translate(-515.478 -140.839)"/></g></svg>